<svg width="61" height="61" viewBox="0 0 61 61" fill="none" xmlns="http://www.w3.org/2000/svg">
<g clip-path="url(#clip0_112_991)">
<g filter="url(#filter0_d_112_991)">
<path fill-rule="evenodd" clip-rule="evenodd" d="M36.5 7.20001C36.5 7.03425 36.4342 6.87528 36.3169 6.75807C36.1997 6.64086 36.0408 6.57501 35.875 6.57501H18.375C16.5516 6.57501 14.803 7.29934 13.5136 8.58865C12.2243 9.87797 11.5 11.6266 11.5 13.45V48.45C11.5 50.2734 12.2243 52.0221 13.5136 53.3114C14.803 54.6007 16.5516 55.325 18.375 55.325H43.375C45.1984 55.325 46.947 54.6007 48.2364 53.3114C49.5257 52.0221 50.25 50.2734 50.25 48.45V23.8175C50.25 23.6518 50.1842 23.4928 50.0669 23.3756C49.9497 23.2584 49.7908 23.1925 49.625 23.1925H38.375C37.8777 23.1925 37.4008 22.995 37.0492 22.6433C36.6975 22.2917 36.5 21.8148 36.5 21.3175V7.20001ZM38.375 31.575C38.8723 31.575 39.3492 31.7726 39.7008 32.1242C40.0525 32.4758 40.25 32.9527 40.25 33.45C40.25 33.9473 40.0525 34.4242 39.7008 34.7758C39.3492 35.1275 38.8723 35.325 38.375 35.325H23.375C22.8777 35.325 22.4008 35.1275 22.0492 34.7758C21.6975 34.4242 21.5 33.9473 21.5 33.45C21.5 32.9527 21.6975 32.4758 22.0492 32.1242C22.4008 31.7726 22.8777 31.575 23.375 31.575H38.375ZM38.375 41.575C38.8723 41.575 39.3492 41.7726 39.7008 42.1242C40.0525 42.4758 40.25 42.9527 40.25 43.45C40.25 43.9473 40.0525 44.4242 39.7008 44.7758C39.3492 45.1275 38.8723 45.325 38.375 45.325H23.375C22.8777 45.325 22.4008 45.1275 22.0492 44.7758C21.6975 44.4242 21.5 43.9473 21.5 43.45C21.5 42.9527 21.6975 42.4758 22.0492 42.1242C22.4008 41.7726 22.8777 41.575 23.375 41.575H38.375Z" fill="white"/>
</g>
<path d="M40.25 8.00996C40.25 7.54996 40.7325 7.25747 41.09 7.54497C41.3933 7.78997 41.6625 8.07497 41.8975 8.39997L49.43 18.8925C49.6 19.1325 49.415 19.4425 49.12 19.4425H40.875C40.7092 19.4425 40.5503 19.3766 40.4331 19.2594C40.3158 19.1422 40.25 18.9832 40.25 18.8175V8.00996Z" fill="white"/>
</g>
<defs>
<filter id="filter0_d_112_991" x="9.5" y="2.57501" width="50.75" height="60.75" filterUnits="userSpaceOnUse" color-interpolation-filters="sRGB">
<feFlood flood-opacity="0" result="BackgroundImageFix"/>
<feColorMatrix in="SourceAlpha" type="matrix" values="0 0 0 0 0 0 0 0 0 0 0 0 0 0 0 0 0 0 127 0" result="hardAlpha"/>
<feOffset dx="4" dy="2"/>
<feGaussianBlur stdDeviation="3"/>
<feComposite in2="hardAlpha" operator="out"/>
<feColorMatrix type="matrix" values="0 0 0 0 0.337206 0 0 0 0 0.38844 0 0 0 0 0.809295 0 0 0 1 0"/>
<feBlend mode="normal" in2="BackgroundImageFix" result="effect1_dropShadow_112_991"/>
<feBlend mode="normal" in="SourceGraphic" in2="effect1_dropShadow_112_991" result="shape"/>
</filter>
<clipPath id="clip0_112_991">
<rect width="60" height="60" fill="white" transform="translate(0.875 0.950012)"/>
</clipPath>
</defs>
</svg>
