<svg width="1757" height="778" viewBox="0 0 1757 778" fill="none" xmlns="http://www.w3.org/2000/svg">
<path d="M0 40.4492C0 21.593 0 12.165 5.85786 6.30707C11.7157 0.449219 21.1438 0.449219 40 0.449219H1717C1735.86 0.449219 1745.28 0.449219 1751.14 6.30707C1757 12.165 1757 21.593 1757 40.4492V737.449C1757 756.305 1757 765.734 1751.14 771.591C1745.28 777.449 1735.86 777.449 1717 777.449H939.124C928.518 777.449 923.216 777.449 918.528 775.346C913.84 773.242 910.315 769.28 903.265 761.357L846.072 697.082C839.022 689.159 835.497 685.197 830.809 683.093C826.121 680.99 820.818 680.99 810.213 680.99H40C21.1438 680.99 11.7157 680.99 5.85786 675.132C0 669.274 0 659.846 0 640.99V40.4492Z" fill="#3F5BD9"/>
<path d="M161.147 46.7363H160.481V604.53H161.147H161.812V46.7363H161.147Z" fill="white" fill-opacity="0.1"/>
<path d="M230.372 46.7363H229.706V524.655H230.372H231.038V46.7363H230.372Z" fill="white" fill-opacity="0.1"/>
<path d="M981.863 123.283V122.618H48.6563V123.283V123.949H981.863V123.283Z" fill="white" fill-opacity="0.1"/>
<path d="M1083.04 192.508V191.843H229.706V192.508V193.174H1083.04V192.508Z" fill="white" fill-opacity="0.1"/>
<path d="M957.9 261.733V261.068H141.844V261.733V262.399H957.9V261.733Z" fill="white" fill-opacity="0.1"/>
<path d="M1205.51 330.959V330.293H48.6561V330.959V331.624H1205.51V330.959Z" fill="white" fill-opacity="0.1"/>
<path d="M1146.94 400.184V399.518H100.575V400.184V400.849H1146.94V400.184Z" fill="white" fill-opacity="0.1"/>
<path d="M1096.35 469.408V468.743H48.6564V469.408V470.074H1096.35V469.408Z" fill="white" fill-opacity="0.1"/>
<path d="M1218.82 538.633V537.967H100.575V538.633V539.299H1218.82V538.633Z" fill="white" fill-opacity="0.1"/>
<path d="M299.597 46.7363H298.931V604.53H299.597H300.263V46.7363H299.597Z" fill="white" fill-opacity="0.1"/>
<path d="M368.822 46.7363H368.156V609.855H368.822H369.487V46.7363H368.822Z" fill="white" fill-opacity="0.1"/>
<path d="M438.047 46.7363H437.381V604.53H438.047H438.713V46.7363H438.047Z" fill="white" fill-opacity="0.1"/>
<path d="M508.603 36.088L507.937 36.0864L506.606 604.53L507.272 604.532L507.937 604.533L509.268 36.0895L508.603 36.088Z" fill="white" fill-opacity="0.1"/>
<path d="M576.497 46.7363H575.831V604.53H576.497H577.163V46.7363H576.497Z" fill="white" fill-opacity="0.1"/>
<path d="M645.722 46.7363H645.056V628.493H645.722H646.388V46.7363H645.722Z" fill="white" fill-opacity="0.1"/>
<path d="M785.503 46.7363H784.838V628.493H785.503H786.169V46.7363H785.503Z" fill="white" fill-opacity="0.1"/>
<path d="M925.284 46.7363H924.619V628.493H925.284H925.95V46.7363H925.284Z" fill="white" fill-opacity="0.1"/>
<path d="M1065.07 46.7363H1064.4V628.493H1065.07H1065.73V46.7363H1065.07Z" fill="white" fill-opacity="0.1"/>
<path d="M714.947 46.7363H714.281V604.53H714.947H715.612V46.7363H714.947Z" fill="white" fill-opacity="0.1"/>
<path d="M854.728 46.7363H854.062V604.53H854.728H855.394V46.7363H854.728Z" fill="white" fill-opacity="0.1"/>
<path d="M994.509 46.7363H993.844V604.53H994.509H995.175V46.7363H994.509Z" fill="white" fill-opacity="0.1"/>
<path d="M1134.29 46.7363H1133.62V604.53H1134.29H1134.96V46.7363H1134.29Z" fill="white" fill-opacity="0.1"/>
</svg>

