<svg xmlns="http://www.w3.org/2000/svg" fill="none" viewBox="0 0 643 118">
  <path fill="#333" fill-rule="evenodd" d="M33.7 73.6c-4.8 0-8.9 3.4-8.9 8.5 0 4.3 3.7 8.4 8.9 8.4 4.6 0 8.8-3.5 8.8-8.4 0-4.6-3.5-8.5-8.8-8.5m0 .4c-4.7 0-8.5 3.6-8.5 8s3.8 8 8.5 8 8.4-3.5 8.4-8-3.8-8-8.4-8" clip-rule="evenodd"/>
  <path fill="#333" d="M33.6 80c-.6 0-1.2.2-1.6.6a2 2 0 0 0-.6 1.5 2 2 0 0 0 .6 1.5l.7.4a2.3 2.3 0 0 0 1.7 0 2.2 2.2 0 0 0 1.2-1l.2-.9a2 2 0 0 0-.7-1.5 2.3 2.3 0 0 0-1.5-.6m0 .3c.5 0 1 .2 1.3.5.3.4.5.8.5 1.3s-.2.9-.5 1.2-.8.5-1.3.5-1-.1-1.3-.5a1.7 1.7 0 0 1-.6-1.2 1.7 1.7 0 0 1 .6-1.3 1.9 1.9 0 0 1 1.3-.5m8.4 3.2a.4.4 0 0 0 .5-.4.4.4 0 0 0-.4-.4.4.4 0 0 0-.5.3.4.4 0 0 0 .4.5"/>
  <path fill="#333" d="m33.7 90 .1-4.7-.1-1.4-.2 1.4zm7.6-4.5a.4.4 0 0 0 .6-.2.4.4 0 0 0-.3-.6.4.4 0 0 0-.5.3.4.4 0 0 0 .2.5m-9.8 4.3 1.4-4.6.2-1.4-.5 1.3zm8.6-2.5c.2.1.5 0 .6-.1a.4.4 0 0 0 0-.6.4.4 0 0 0-.7 0 .4.4 0 0 0 .1.7M29.4 89l2.7-4.1.6-1.2-.9 1zm9-.3a.5.5 0 0 0 .7 0 .4.4 0 0 0 0-.5.5.5 0 0 0-.6-.1.4.4 0 0 0 0 .6m-10.8-1 3.7-3.3.9-1-1.1.8zm8.8 2 .6.2a.4.4 0 0 0 .2-.6.4.4 0 0 0-.6-.2.4.4 0 0 0-.2.5m-10.1-3.5 4.4-2.3L32 83l-1.3.5zm8 4c0 .2.2.4.4.3a.4.4 0 0 0 .4-.4.4.4 0 0 0-.5-.4.4.4 0 0 0-.4.5m-8.8-6 5-1 1.3-.6-1.4.2zm6.6 5.9a.4.4 0 0 0 .4.4.4.4 0 0 0 .5-.3.4.4 0 0 0-.4-.5.4.4 0 0 0-.5.4m-6.9-8 5 .1 1.5-.1-1.4-.1zm4.8 7.3a.4.4 0 0 0 .3.6.4.4 0 0 0 .5-.3.4.4 0 0 0-.2-.5.4.4 0 0 0-.6.2M25.5 80l4.9 1.3 1.4.2-1.4-.5zm2.7 8.2a.4.4 0 0 0 0 .6l.7-.1a.4.4 0 0 0-.1-.6.4.4 0 0 0-.6 0M26.4 78l4.3 2.6 1.3.5-1.2-.8zm.3 8.6a.4.4 0 0 0 0 .6c0 .2.4.2.5 0a.4.4 0 0 0 .1-.5.5.5 0 0 0-.6 0m1-10.4 3.5 3.6 1 .8-.8-1zm-2 8.4a.4.4 0 0 0-.2.6.4.4 0 0 0 .5.2.4.4 0 0 0 .3-.5.4.4 0 0 0-.6-.3m3.7-9.6 2.4 4.2.9 1.1-.6-1.2zm-4.2 7.6a.4.4 0 0 0-.3.4c0 .3.2.4.5.4a.4.4 0 0 0 .3-.5.4.4 0 0 0-.5-.3m6.3-8.5 1.1 4.8.6 1.2-.3-1.3zm-6.1 6.4a.4.4 0 0 0-.5.3.4.4 0 0 0 .3.5.4.4 0 0 0 .5-.4.4.4 0 0 0-.3-.4m8.2-6.6v4.8l.1 1.4.1-1.4zM26 78.6a.4.4 0 0 0-.5.2.4.4 0 0 0 .2.5.4.4 0 0 0 .6-.2.4.4 0 0 0-.3-.5m9.8-4.3-1.4 4.6-.2 1.3.5-1.2zm-8.6 2.5a.4.4 0 0 0-.6 0 .4.4 0 0 0 .1.7c.2.1.5 0 .6-.1a.4.4 0 0 0 0-.6m10.6-1.7-2.7 4-.5 1.3.8-1zm-9 .3a.5.5 0 0 0-.6 0 .4.4 0 0 0-.1.5c.1.2.4.2.6 0a.4.4 0 0 0 0-.5m10.8 1L36 79.5l-.8 1.1 1-.8zm-8.8-2a.4.4 0 0 0-.5-.2.4.4 0 0 0-.3.6c.1.2.4.3.6.2a.4.4 0 0 0 .2-.6M41 78l-4.5 2.3-1.1.8 1.3-.5zm-8-4a.4.4 0 0 0-.5-.4.4.4 0 0 0-.4.5c0 .2.3.4.5.4a.4.4 0 0 0 .4-.5m8.8 6-5 1-1.2.6 1.4-.3zm-6.6-6a.4.4 0 0 0-.4-.4.4.4 0 0 0-.5.4.4.4 0 0 0 .4.5.4.4 0 0 0 .5-.4M42 82h-6.5l1.4.2zm-4.8-7.3a.4.4 0 0 0-.2-.5.4.4 0 0 0-.6.2.4.4 0 0 0 .2.6.4.4 0 0 0 .6-.3m4.5 9.4L37 82.7l-1.4-.2 1.3.5zM39.1 76a.4.4 0 0 0 0-.6.5.5 0 0 0-.6 0 .4.4 0 0 0 0 .7c.2.1.5 0 .6-.1M41 86l-4.3-2.6-1.3-.5 1.1.8zm-.4-8.6c.2-.2.2-.4.1-.6a.4.4 0 0 0-.6-.1c-.2.1-.2.4 0 .6s.3.2.5 0m-1 10.3-3.4-3.5-1.2-.8 1 1zm2-8.4a.4.4 0 0 0 .3-.5.4.4 0 0 0-.6-.2.4.4 0 0 0-.2.5.4.4 0 0 0 .5.2M38 89l-2.4-4.3-.9-1 .6 1.2zm4.2-7.6a.4.4 0 0 0 .4-.5.4.4 0 0 0-.5-.3.4.4 0 0 0-.4.4c0 .3.2.4.5.4m-6.3 8.4-1.1-4.7-.5-1.3.2 1.4zM33.6 81a1.2 1.2 0 0 0-.8.3 1 1 0 0 0 0 1.6 1.2 1.2 0 0 0 .8.3 1.2 1.2 0 0 0 .8-.3 1.1 1.1 0 0 0 .4-.8 1.1 1.1 0 0 0-.4-.8 1.2 1.2 0 0 0-.8-.3m0 .3c.2 0 .5 0 .6.2l.3.5a.8.8 0 0 1-.2.7 1 1 0 0 1-1 .2.9.9 0 0 1-.3-.2.8.8 0 0 1-.2-.2.8.8 0 0 1-.1-.4.8.8 0 0 1 .2-.6 1 1 0 0 1 .7-.2"/>
  <path fill="#333" d="M54 76.8c-.2 0-.3.1-.3.3 0 .1 0 .2.3.2.2 0 .2 0 .2-.2s-.2-.3-.3-.3m-1.7-1c-.2 0-.2.1-.2.3 0 .1 0 .2.2.2.3 0 .3 0 .3-.2s-.2-.3-.3-.3M30.6 0c-.3 0-.6 0-.8.3-.3.2-.4.2-.7 0-.5-.1-1.3 0-1.5.3-.2.2-.6.4-.7.2 0 0-.3-.3-.7-.3a1 1 0 0 0-.9.5c-.1.2-.2.2-.6 0-.5-.1-1.3 0-1.7.2-1.4.7-1.4 3-.7 4.3V6c-.5 1-1.2 1.5-1.5 2.7-.1.5-.3.6-.8.4A8.1 8.1 0 0 0 16.2 8c-.5 0-.6 0-1-.5-.6-.9-1-1-2.4-1-.9 0-1 0-1.3.2l-.6.6c0 .3-.2.3-.8.3-.8 0-1 0-1.3.2-.3.2-.5.3-.6.6 0 .2-.2.4-.3.5-.4.2-.7.8-.7 1.3 0 .2-.2.4-.4.6-.7.8-1.6 1.2-2.7 1.7-.7.2-1.3.8-1.4 1.2l-.2 1c0 1 0 1.3-.6 1.8A4.5 4.5 0 0 0 0 19.2v1.3c.3.5.3.5.9.6q.3.1.3.3c0 .6.8 1.5 1.6 1.7.3 0 .4.4.5.8 0 .7.8 1.4 1.2 2l.4.2c.4 0 .6.2.6.4a1.6 1.6 0 0 0 2.7 1.1c.2-.2.5-.6.5-.9L9 26c.1-.2.7-.2.7 0 0 .4-.5.9-.1 1.4.2.2 0 .6-.3.9-.6.5-.7.8-.6 1.5.1.4 0 .5-.1.7-.1.2-.3.3-.4.3-.2 0-.5.7-.6 1.3 0 .6 0 .7.3.9l.2.2-.2.1-.6.7c-.2.4-.3.5-.2 1.2 0 .7.3 1.4.5 1.3.2 0 .1.1-.1.4-.4.4-.3 1.3.3 2.2.3.6.3.8.2 1-.1.5-.1.5.3.8.2.2.3.4.2.5 0 .4.3 1 .3 1 0 .2 1 1 1.5 1.4.1 0 .2.2.2.5 0 .4 0 1 .3 1.3.2.1.3.2.7.2.6 0 .8.2.6.8v1c.3.6.9 1 1.3 1 .5 0 .1 1 0 1.4-.4 2 0 4.1.4 5.6.3 1.5 1.3 3.4.7 5-.3 1.5-.4 2.9-.5 4.5 0 1.6-.1 1.7-.4 2l-.1.3c0 .1-.4.2-.9.2l-.5.1h-.5c-.7-.3-1-.2-1.6.3-.4.4-.5.6-.5 1.1-.1.5-.2.6-.6 1-.8.6-1 1-1 1.7-.1.6 0 .8.1 1.2.4.6.3.7-.2.9-.5.2-.7.3-.9.9 0 .4 0 .5-.5.5-.4 0-.5 0-.8.3-.2.2-.4.5-.4 1v.4c0 .2 0 .5-.2.6v1.7l-.1 1.4v.4c0 .6 0 .6-.5 1l-.5.2v.9c0 .8 0 1 .3 1.2l.5.2c.2 0 .3.1.3.2a224.4 224.4 0 0 1 0 2l.2.8a1 1 0 0 1 0 .3c.1.6.3 1 .5 1.2l.2.3.4.5s.1 0 0 .1c0 .7.2 1 .5 1.3l.5.3c.7.6 3 .7 3.9.9l1.5.1-.3.4c-.7 1.5.2 2.4.8 3a5 5 0 0 0 1.7.7l2.4.1c.2.1 24.6 0 31.3-.1 1.4 0 2.8-.3 3.4-.5 1.5-.6 2.5-2.4 1.9-3.3-.2-.3-.2-.3 0-.4l2-.6 1-.3a4 4 0 0 0 2.5-1.9l.2-.6c0-.1 0-.3.3-.4.5-.4 1.2-1.5 1.3-2.4l.2-1c.2-1.3.3-1.5.7-1.7.6-.3.7-.5.7-1.4 0-.6 0-.8-.2-1a.8.8 0 0 0-.5-.3h-.4v-1l-.2-1.2-.2-.6c0-.7-.5-1.6-1-1.7l-.3-.3a2 2 0 0 0-.6-1 1.1 1.1 0 0 1-.2-.5c0-.4-.2-.6-.9-1-.3-.2-.3-.2-.3-.5l.2-.5c.1-.1.2-.5.1-1.3 0-.4-.5-1-1-1l-.4-.6c-.8-1.8-1-2-2.8-1.9-1.4 0-1.4 0-1.6-.2a9 9 0 0 1-.7-2c-.1-.7-.7-2.5-1-3.2-.3-.5-.4-.6-.3-1.2.1-1.1.6-2.3.8-3.5.2-1 .4-2.7.3-4.9 0-2.1 0-2.2.2-2.3.3 0 .6-.7.5-1.1 0-.2 0-.4.3-.7l.3-.6c0-.2 0-.3.3-.6.5-.3.7-.7.8-1.2 0-.5.1-.8.3-.8.2 0 .6-.8.6-1.3 0-.4 0-.5.4-.7.6-.3 1.2-1 1.2-1.3v-.6c-.2-.4-.2-.4.1-.7.6-.6.9-1.2.9-2.3 0-.7 0-1 .2-1.3.7-1 .7-2.2.2-2.8-.2-.2-.2-.3 0-.5v-1c0-.6 0-.8-.2-1.1-.3-.4-.3-.4-.1-.7 0-.1.1-.3 0-.4v-.4l-.5-.7c-.3-.4-.5-.7-.5-1 0-.6-.2-1-.6-1.2l-.3-.4-.2-.3-.2-.4c0-.3.4-.7.7-.7.3 0 .5 0 .6.2l.2.7c0 .6.6 1.2 1.1 1.5.3 0 .6.1.8 0 .4 0 1-.6 1-.9 0-.1 0-.2.3-.3a.5.5 0 0 0 .3-.3c0-.3.2-.2.4-.3.3 0 .5-.3.6-.4l.3-.4V25l.6-1c0-.2.2-.3.5-.5.2 0 .5-.2.5-.3 0-.2.8-1 1-1 .2 0 .5-.2.6-.6l.2-.2c.4 0 1.1-1.2 1.1-1.8 0-.7-.7-1.9-1.9-3.2l-.6-.6v-1.2l-.2-1.4c-.6-1-2-1.4-3.2-1.7l-1-.1c-.7-.2-.7-.2-.8-1 0-.5-.2-.8-.8-1.5-1.3-1.4-2.3-2-3.8-2.1-2.4-.2-3.4.8-4.2 1.5a2.2 2.2 0 0 0-.5.8v.1h-.3a2.7 2.7 0 0 0-.5 0c-.7 0-2 .3-2.4.6l-.5.5-.2-.1a7 7 0 0 0-.7-2.1 3 3 0 0 0-.8-.7c-.3-.3-.4-.3-.3-.5.2-.4.3-1.3 0-2.5-.2-.7-.5-1-.7-1.1-.2-.2-.2-.3-.1-.8 0-.5.1-.7-.1-1-.5-.9-.7-1-1.4-1.2-.8-.3-1.5-.3-2 0-.4.1-.4.1-.8 0-.4-.3-.7-.3-1.5-.1-.5.2-.6.2-1 0C35 0 34.6 0 34 .2c-.2.2-.4.3-.5 0-.3-.3-1.3-.3-1.5 0-.1.3-.4.2-.7 0-.1-.2-.4-.3-.8-.3m6.8.6c.2 0 .5 0 .6.2.2.1.2.1 0 .2-.5.2-1 .8-1.1 1.7l-.4 1c-.4.2-.4.2-.7 0-.2-.1-.2-.3-.2-1 0-.9 0-1 .5-1.7.3-.3.8-.4 1.3-.4m-2.7 0c.3 0 .5.1.6.4v.5a13 13 0 0 0-.3 1.7c0 .3-.2.5-.5.4-.4-.1-.4-.3-.4-.5a5.4 5.4 0 0 1-.3-1.3c0-.8 0-.8.4-1l.5-.1m-4 .1q.3 0 .6.3c.3.2.3.2.3 1.2l-.1 1.2-.3.2c-.5 0-.6-.1-.8-.6-.6-1.4-.6-1.7-.2-2q.2-.3.5-.3m2.3 0a.4.4 0 0 1 .2.1c.1.1.2.3.3 1.2 0 1 0 1.1-.2 1.3l-.4.1c-.2 0-.4-.3-.5-.4-.4-.8-.5-1.5-.1-1.8.2-.3.5-.4.7-.4M29 1c.6 0 1.1 2.3.6 2.9h-.3c-.3 0-1.2-1.5-1.2-2s.5-1 .8-1m10.7.1 1 .2c.4.1.7.7.7 1 0 .3-.5.8-.8.8l-.5.4c-.3.4-.6.4-.6.2 0 0-.1-.1-.2 0-.2 0 .3.6 1 .9l.8.6.2.2-.4-.8-.4-.8c0-.2.4-.7.6-.7h.3c.2 0 .5.4.5 1 0 .2 0 .4.3.7l.3.6c.2.4 0 .8-.2 1.1l-.3.6-.4.6V8l.1-.2c.3-.6 1-.4.8 0-.3.4-.4.7.2.5h.2l.8 1.2c0 .2.2.5.1 1 0 .3 0 .6-.2.7l-.3.5c-.1.3 0 .5.1.3 0-.3.3-.2.5.2.1.4.2 1 0 1.3v.4c.2.3.3.8.2 1.2v.5a1 1 0 0 1 0 .4 8 8 0 0 0 0 .5c0 .4-.4.3-.6 0 0-.2-.2-.3-.2-.2l.2.5c.3.3.3.6.2.6 0 0-.2 0-.2.2-.2.5-.5.2-.7-.5 0-.3-.5-.8-.6-.7l.3.6c.3.6.5 2 .4 2.1-.1.2-.7 0-.8-.3l-.4-.3c-.3 0-.4-.2-.4-.5l-.1-.6-.2-.5c-.3-1.7-.1-2.3.6-1.5.3.4.4.2 0-.3-.3-.4-.4-1.3-.1-1.7.4-.7.8-.7 1-2 0-.6-.4-1.4-1-2a5.3 5.3 0 0 1-.4-.8c-.2-.4-.2-.5-.1-.8v-.9c0-.9-.4-1.5-1.2-1.6a2.4 2.4 0 0 1-.8-.4l-.6-.3c-.5-.2-.4-1 .2-1.6.2-.2.8-.3.8-.1 0 .2.4 0 .4-.1.2-.5-.6-.6-1-.2-.3 0-.6.3-.8.7l-.3.6c0 .5-.3.5-.5-.1-.3-1.3 1-2.6 2.5-2.6m-13.2.4a.9.9 0 0 1 .3 0c.9.3 2.3 2.3 2 2.8-.2.2-.4.1-.8-.4s-.9-1-1.4-1.1c-.4-.2-.3 0 .3.3.4.2.8 1 .8 1.4 0 .4-.2.3-1-.4-.4-.5-.7-.7-.8-.7h-.3c-.8 0 0 .1.3.1.2 0 .5.6.7 1a.6.6 0 0 1-.1.5l-.2.5-.6.5c-.7.5-1 1.1-1 2 0 .9 0 1-.3 1.4-.8 1-.4 2.5.3 3.6.3.3.3 1.2.1 1.6v.4c-.2.2-.3 1-.2 1.8v.8c-.1.2-.1.3 0 .2.2 0 .4-1 .3-1.7v-.6c.3 0 .6.5.6.9v1.3c-.1.9-.2 1.1-.4 1.3l-.6.6-.5.3-.5-.6c0-.2-.8-1-1-1-.3 0-.5-.5-.5-1.4 0-.6 0-.6.3-.5.8.1 1.4-.3 1.8-1l.4-1-.2.2c-.4.9-1.3 1.3-2.2 1-.6-.2-.8-.8-.3-1 .2 0 .3-.2.4-.3 0-.2 0-.7-.2-.7-.3 0-.5-1.8-.3-2.4 0-.2.1-.2.4 0l.6.3.3.4v.3h-.2c0 .2.3.7.5.7.1 0 .2 0 .1.2 0 .3 0 .3.3 0 .5-.3 0-1.2-1.2-2.2a2 2 0 0 1-.6-1c-.2-.5-.2-.7 0-1.1.3-1 1-2.1 1.4-2 .1 0 .5 1 .5 1.3 0 .1 0 .3-.2.4l-.1.4.3-.4c.4-.8.4-1.5 0-2.2l-.2-.7c0-.3.3-1 .4-1l.1-.3-.3.2c-.2.2-.4.4-.5.3-.2 0-.2-1.3 0-1.8s1-1 2-.9c.6 0 .6 0 .7-.2 0-.2.3-.4.6-.4m6.9 2.2h.8c1.8.3 3.6 1 5.5 2 .5.2.6.3.6.6 0 .1 0 .4.2.6.2.2.2.4.2.7 0 .5 0 .7.7 2 .4.7.3 1.3 0 1.4l-.8.5c-.6.3-.7 1.8 0 2 .3.4.5 1 .2 1.2l-.3.4v1.2c.2 1 0 1.5-.3 1.7a1 1 0 0 1-.7.1c-.4 0-.5 0-.7.8-.1.6-.5 1.1-.7 1a.8.8 0 0 1-.1-.6c0-.4 0-.8-.3-1.2 0-.2 0-.2.4-.3.7-.1 1.2-.6 1.5-1.7l.2-.9.3-.4.2-.5-.5.5c-.8 1.4-2.4 1.9-4.2 1.2-1-.3-1.5-.6-2-1.4-.2-.3-.4-.4-.4-.3a10 10 0 0 1-1.8 1.7 8 8 0 0 1-2.4.7c-.7 0-1.1-.2-1.5-.7-.5-.7-1.4-1.6-1.4-1.4 0 0 0 .3.3.4l.3.5c0 .2.3.4 0 .7-.3.5 0 1 .2 1.2.2.2.4.3 1 .4h.5c.3.2.7.5.7.9-.1.5-.2 1-.5 1.3-.2 0-.5-.3-.7-1-.2-.4-.3-.5-.9-.4a2 2 0 0 1-.8-.2c-.3-.2-.5-.9-.4-1.4v-1.5c-.2 0-.3-.3-.5-.5l-.2-.3.3-.3c.5-.3.9-.5 1-1 0-.8-.6-1.5-1.3-1.9a1.5 1.5 0 0 1-.3-2.2c.6-.7.7-1.1.7-1.8v-.7a.4.4 0 0 0 0-.2c0-.3 1.6-1.3 3.3-2 1.3-.7 2.8-.7 4-.9h.6m-8.7 0-.4.1.2.1a.7.7 0 0 1 .6.1c.2.2.2.3.1.6L25 5l-.2.1c-.1.1 0 .1 0 0h.5c.4 0 .5-.2.5-.6a.6.6 0 0 0-.2-.5l-1-.2M29.4 6c-.8 0-1 .1-2.1 1.3-.4.4-.8.8-1 .8-.5.2 0 .1.1.1l.8-.6c.9-.8 2.6-1.7 3.5 0 .3.4.4 1 .2 1.1-.2.1-.7-.4-.8-.7-.1-.4-.3-.6-.8-.7-.6-.2-.9 0-1.5.5l-1.3.9-.2.1c0 .2.8 0 1.3-.4.6-.5.9-.6 1.3-.6.6 0 .8.1 1 .6.1.4.2.4.5.5.5 0 .7.2.5.4a.5.5 0 0 1-.3.2c-.1 0-.4 0-.7.2-.6.3-1.4.3-1.9.1l-.5-.2c-.4-.2-1.8-.4-1.7-.3h.3l1 .5c1 .5 1.8.6 2.4.3h.5l-.8.6-.5.2c-.4.3-.9.6-.9 1.3v.1c-.4 0-.9.7-.8 1.1 0 .4.2.6.3.9l.2.2c.4.5 1.2.8 2.5.7.9 0 3-1.1 2.9-1.3 0 0-.4 0-.8.3a5 5 0 0 1-2.3.7c-1.1 0-2.4-1-2.4-2 0-.2 0-.3.2-.3s.3.1.4.3c.1.4.8 1 1 1.1.7.3 1.8.3 2.7-.1.7-.3.7-.4 0-.2-.9.3-1.2.3-1.8.2a2 2 0 0 1-1.5-1.5c-.1-.4-.1-.5.1-.7.3-.3.6-.2.6 0l.1.7c0 .2.2.3.3.5l.8.4c.6.2 1.1.1 1.3 0l-.2-.1c-1 .1-2-1-1.8-2 0-.8 1-1.6 1-1a.5.5 0 0 1 0 .4c-.4.2-.4 1 0 1.6.1 0 .5.4 1.4.5l.4.2c.2 0 .3.2.9.1a2 2 0 0 0 1-.3l.4-.2.7-.3c.7-.3.8-.7.7-1.4-.1-.3-.1-.3.3-.3.3 0 .4 0 .5.3.2.4.2.5.1 1-.2.7-.6 1-1.5 1-.7 0-.7 0-.4.1 1.4.2 1.9 0 2.3-.7.1-.3.2-.5.1-.8 0-.5 0-.6.4-.3.3.2.5.8.5 1.1 0 .6-.6 1.4-1.4 1.6-.8.3-1.6-.1-2.3-.5h-.3c.2.4 1.8 1 2.5.8.6 0 1.5-.6 1.9-1.2 0-.3.2-.4.3-.3.2 0 .3.1.3.2 0 .4-.3 1.2-.7 1.6-1 .8-3.6.6-4.6-.4l-.5-.3c.1.3.4.5.6.7 1.7 1.5 5 1.5 5.6-1 0-.4-.3-1-.6-1l-.2-.3c-.2-.8-.3-1-1-1.2l-.7-.3s.3-.2.7-.2c.5 0 .7-.1 1-.5.3-.3.7-.5 1-.6.3-.2.4-.4 0-.3l-1.2.6a2 2 0 0 1-1.8.4 6 6 0 0 0-1.1-.2c-.5 0-.6 0-.6-.2-.1-.3 0-1.1.2-1.6A4 4 0 0 1 37 6.6c.7-.2 1.6.1 2.5 1.1l.7.7-.4-.6c-1-1.5-2.8-2.6-4.4-1l-.6.9c-.2.2-.4.5-.4 1l.3.9c.6 1.4.5 1.8-1.4 1.7-1.7 0-1.9-.3-1.2-1.7q.3-.7.2-1a3 3 0 0 0-3-2.6m8.4 1.3c-.4 0-.7.2-1 .6l-.5.6c0 .1 0 .3-.2.5l-.3.3h.4c.3 0 .4-.2.5-.5l.2-.7c.2-.3.3-.3.6-.3.5 0 .9.1 1.3.6l.6.3a.4.4 0 0 1 .3 0q.1 0 0-.1l-.1-.2L39 8c-.5-.5-1-.8-1.4-.8m15.8.4c.4 0 .9 0 1.2.2.2 0 .7.3.8.5.3.4.2.5.2.7 0 .4 0 .2-.3.7-.3.3-.5.7 0 .3l.7-.9.1-.3h.4v.5c0 .1 0 .4-.2.6l-.2.3c-.2.3-.3.4.2.1l.2-.3c.3-.6.5-.6.7-.2.3.6 0 1.4-.5 2l-.4.3h-.6a8 8 0 0 0-.5-.3q-.6-.3-.7.9l-.1 1-.1.3.4-.5.5-.4c.2 0 0 .4-.2.7-.1.2-.2.3-.2.8l-.1.8c0 .2-.4.3-.8.4-.7.2-1.2.6-1.2 1.2 0 .5.3.8.6.8.2 0 .2 0 0-.1-.2-.3 0-.6.6-1.1q1.1-.8 1-.2v.6l-.1.6c-.5 1 .2 1.3-.8 1.9-.1 0-.4.3-.7.3-1.5.4-2 .7-2 1 0 .3.4.5.9.3h.7c.4 0 .5 0 .9-.5l.7-.6c.2.1.2.2.2.8 0 1 0 1.4-.8 2.1-.3.2.5 0-1 .5-.2 0-.5.3-.7.5-.3.2-.5.4-.3.8 0 .3.2.4.5.5.3 0 .3 0 .2.3-.3.4-1.2.2-1.5-.3l-.1-.9c0-.4 0-.7.4-1l.6-.6.7-.4c.2-.3.4-.9.1-1l-.1.1-.2.1-.5.3c-.8.6-1.9-.3-1.9-1.7 0-.4.2-1 .5-1.4l.4-.4.6.4 1 .3c.5 0 1-.4 1-.7 0-.3 0-.3-.2 0l-.8.1c-.7 0-1.2-1-1.1-1.8 0-1 0-.9 1-1.3s1.3-.8 1.4-1.7V13s.1-.1 0-.1l-.3.5c-.3.6-.6.8-1.2.8-.4 0-.6.1-.8.3-.4.3-.5 1-.4 1.5 0 .4 0 .5-.2.6-.5.2-1.5-.3-1.5-.8 0-.8.3-1.1.7-1.8.6-.8.8-1.4.8-1.9v-.3l-.2.4c-.2.5-.4.9-.6.9-.2 0-.5-.7-.4-1.2 0-.5-.2-1.1-.4-1.1v.8c-.1.5 0 .8.2 1.3v1.4A9 9 0 0 0 49 16c-.2.6-.6.8-1.3.7-.8-.2-1.6.3-1.2.7v.3l-1-.1c-.3-.3-.2-1.5 0-1.5l.5-.3c.4-.3.4-.4.3-.7v-.5l.6.2c.6.2.6.2 1 .1.5 0 1-.8 1.3-1.2.1-.3.2-1 0-1l-.1.2c0 .3-.4.8-.7 1l-1 .1c-1 0-1.7.4-1.3 1v.3h-.5l-.4-.4a.3.3 0 0 0-.2-.2c-.2 0-.2-.1-.2-.4l-.1-.6-.1-.7c0-.7.3-1.1 1-1.8.3-.4.7-.8 1-.9.2-.2 1.3-.6 1.4-.6l.8-.4h.1a.5.5 0 0 0 0 .1c0 .3-.2.5-.6.7-.2 0-.3.2-.3.3h.1l.8-.2h.6c.4.3.5.3.5 0 0-.8.8-2 1.7-2.4.5-.3 1.2-.3 1.7-.3m-40.2 0c1.4.1 2.3 1.6 2.3 3.5-.1.7-.3 1.6-.6 1.7h-.1l.1.2s0 .2.2.3l.2.8c0 .2-.4.3-.6.1-.3-.2-.5-.2-.5 0l.3.1c.8.4.9 2.1.2 2.8 0 .1-.1.1-.2 0-.2-.3-1-.8-1.2-.8-.3 0-.2.3 0 .3s.5.2.8.7c.4.6.5.7.5 1.3 0 1.5-.7 2.5-1.4 1.8L13 20v.3l.1.2c.2.6.7.6 1 .9.3.3.4.6.5 1.5 0 .8-.5 1.3-1.2 1.3l-.3.1c0 .2.4.3.8.2.3 0 .3 0 .5.5v1.2c0 .5-.5 1-.5 1-.4.4-.6.5-1 .5-.7 0-.8-.2-.2-1 .6-.6.5-1 0-1.7l-.7-.6-.6-.7c-.7-1-.6-2.4.1-1.7.4.4 1 1 1.4 1a.5.5 0 0 1 .1.6v.3l.3-.3c.5-.6.4-.9-.8-2a5.4 5.4 0 0 1-1.9-3c0-.1.6-.2.6 0s.4.7.8 1h.7c.2 0 .4 0 .5.2.1.1.1.1.3-.1.4-.6 0-1.1-1-1.2l-1-.2c-.3-.2-.5-1-.3-1.2.2-.3.4-.2.7 0l.2.1c0 .2.1.2.4 0 .5-.4.3-.8-.4-1l-.9-.2c-.4 0-.7-.3-.5-.6 0 0 .3-.2.8-.2 1.4-.2 2.1-1.4 1.6-2.8-.1-.5-.4-.9-1-1.3-.2-.3-1-.5-1.1-.4l.3.2c.3 0 .7.3 1 .6.4.4.5.5.5 1 .1 1.2-.2 1.8-1.2 2.2l-.4.3h-.4c-.3 0-.3 0-.4-.3 0-.4.1-.5.3-.5.3 0 1-.8.9-1a1.3 1.3 0 0 1 0-.4c0-.3-.5-.7-.8-.7-.2 0-.3 0-.4-.2H9l-.4-.4c-.4-.6-.6-.9-.5-1.4a1.2 1.2 0 0 1 1.2-1c.4 0 .5 0 .7.4.2.4.3.3.2-.2-.1-.3-.8-.8-1-.7-.4 0-.4-.2-.1-.4.7-.2 1.6 0 1.8.5.2.4.4.5.5-.3 0-.3.7-.7.7-.7a2.7 2.7 0 0 1 1-.1m3.4 1c.6 0 2 .9 2.3 1.5h-2.4l.8.2 1.2.2.5.2.5.1.6.4c.7.4 1 .8 1 1.2v1c.2.7.2.8 0 1.1-.2.5-.3 1.4.2 1.7.2 0 .1.3 0 .4 0 .2-.2 1 0 1.2l.2 1.2c-.1.8-.4 1.3.3 2.3.2.2.3.2.6.1l-.2.4c-.5.7-.3 1.8-.2 2.1 0 .3-.5.7-.6 1-.1.3 0 1-.2 1.2 0 .2-.1.4-.3.4 0 0-.3.2-.3.4l-.2.3c-.4 1-.2.9 0 1.5 0 .2-.2.3-.3.4l-.4.4c-.4.2-.5 1.2-.2 1.6.1.1 0 .4-.2.6-.4.2-.7 1.4-.3 1.8.2.2.2.2 0 .4l-.3.6a3 3 0 0 0 .2 1.7v.7a2 2 0 0 1-.1.3c-.2.4-.2.9.1 1.5.2.3.2.4 0 .6l-.2.9c.1.3.1.6.4.9.1.2.2.4.2 1v.2c0 .9 0 .9-.3.5l-.3-.2-.3-.1c-.1-.2-.1-.3 0-.4.2-.2.2-.3 0-.7-.2-.2-.2-.5-.2-.8 0-.6 0-1-.2-1v.5c0 .8 0 1-.3 1.4-.1 0-.2.3-.8.3-.4 0-.5-.3 0-.4l.4-.4v-.7c-.2-.4-.7-.5-1.2-.4-.3 0-.4 0-.1-.5l.1-.5c.1-.2.7-.1.8 0l.4.2c.4.2.4.1.6-.2.2-.1.3-.5.3-.8l.2-.9c0-.3 0-.5-.2-.7-.2-.3-.3-.5-.2-.7l-.1-.3-.4-.1c0-.2-.1-.2.2-.5.5-.5.4-.8 0-1.2-.3-.3-.4-.5-.4-.9-.2-.2-.2-.2 0-.4l.2-.3c.2-.3.5-.2.4.2 0 .3 0 .4.3.1.2-.2.2-.5 0-.7l-.3-1-.3-1c-.1-.1 0-.2.2-.5.5-.5.7-.5.7.1l.1.6c.3.2.3.1.2-.6a11 11 0 0 1-.1-1.4c0-.7 0-.8-.3-.8-.4 0-.4-.4 0-.5.2-.1.4-.3.4-.5.2-.9.3-1 .6 0l-.2.6c0 .2.2.3.3.5 0 .4.3 1.7.2 0l.1-.6c0-.4-.2-1-.4-1.4-.3-.6-.3-1 0-1.3.3-.2.5-.2.6.2l.4.6.2.5v-.1c.1-.7 0-1.4-.4-1.8-.2-.2-.3-.5-.3-.8l-.2-.7q-.3-.5 0-.9c0-.1 0-.4.2-.6.1-.5.4-.4.4.2 0 .3 0 .5.2.6.3.2.6.9.6 1.2l.1.2.1-.5c0-1-.8-2-1.4-2.8-.3-.4-.4-.6-.2-1 .2-.1.3-.5.3-.7.2-.6.5-.4.6.4 0 .6 1 1.5.3.2l-.3-.6a1.8 1.8 0 0 1-.1-.5c-.2-.5-1-1.4-1.3-1.6h-.3c0 .2.2.3.2.3.2 0 .5.5.6.9.1.5 0 .9-.5 1.2-.7.5-1.4.2-.8-.3.2-.2.2-.2.1-.5-.1-.4-.5-.6-1.3-.8-.2 0-.5-.3-.8-.5l-.5-.5.1.3.5.8c.1.6.3.7.9 1 .4 0 .5.1.5.4 0 .5.5.9 1 .9.4 0 .5 0 .7.7 0 .3 0 .4-.2.7-.4.4-1 .7-1.3.7-.3-.1-.3 0-.1.3l.7.2c.7.2.8.3.9.8 0 .6-.2 1.2-.7 1.4-.3 0-1.7.1-.6.4h.4c.2.3.3.4.2.9-.1.7-.3 1-.7 1.3a.8.8 0 0 1-.7 0c-.4-.2-.4 0 0 .2.2.2.3.3.3.5v.5c.1.8-.2 1.3-1 1.5-.4 0-.6 0-.9-.3l-.4-.3.1.3c.1.4.4.6.8.6l.5.2c.2.3.3.9.4 1.3 0 .7-.3 1-.9 1.2-.4.2-.5.2-.9 0H15l.4.4.4.2c.2.2.4.2.6.5q.2.2.2.7l-.1.5c-.2.3-.7.6-1.3.6-.1 0-.3 0-.4-.2-.1 0-.2.1 0 .3l.3.3c.3.3.5.6.6 1 .1.4 0 .5-.4 1-.1.2-.8.5-1 .4a1 1 0 0 0-.3 0c-.2 0 0 .3.2.3.4 0 1 .5 1.1 1 .2.3.1.5 0 .8-.1.3-.3.6-.5.7-.4.2-1.1.4-1.3.2-.3-.2-.1-.4.2-.4.6 0 .8-.8.4-1.3l-.5-.3c-.7-.1-1.5-.7-1.6-1.3-.3-.8.2-1.7.7-1.3 0 .1.5.7.8.7.2 0 .2.1 0 .3v.2c.2 0 .3 0 .3-.2h.3c.3 0 .4-.4.3-.8-.1-.3-.2-.4-.5-.5a2 2 0 0 1-1.1-1.2c-.2-.3-.2-.4 0-.6a3 3 0 0 0 .4-.5c.1-.3.1-.3.5.2.5.5 1 .7 1.3.4.3-.3 0-1-.6-1.3l-.4-.3a6 6 0 0 0-.5-.4c-.5-.3-.5-.5-.1-.8l.6-.9c0-.3.3-.3.4 0l.1.4.4.6h.3l.4-.1c.2-.3.2-.3 0-.6l-.2-.3-.8-.6c-.8-.8-1-1.2-.4-1.4l.4-.6c.1-.3.3-.5.4-.5l.7.5c.2.3.5.5.6.5.1 0 .2-.5 0-.7 0-.1-.3-.4-.7-.6-.5-.3-.6-.4-.7-.7a6 6 0 0 0-.2-1c-.2-.6-.2-.6 0-.9.2-.3.4-.3.7.3.4.6.4.6 1 .7l1 .3c.3.3.3.3.3-.2 0-.3 0-.4-.2-.5-.1 0-.2-.1-.2 0l-1.5-.5c-.4-.2-.5-.3-.6-.8l-.2-1c0-.3-.2-.6-.3-.7-.3-.4-.3-.7 0-1 .5-.5.4-1.7.4-2.4v-.2l.5.6c.5 1.2 1.1 1.6 2.4 1.5.3 0 .3 0 0-.3-.2-.6-.3-.6-.9-.7-.7 0-1.3-.4-1.5-1l.1-.6c.3-.5.3-1.4 0-1.9-.1-.3-.2-.8 0-1 .3-.2.3-1 0-1.6-.3-.4-.3-.4-.1-.7l.4-.6c.2-.4.4-1.6.3-1.8-.2-.1-.3-1-.2-1.1a.4.4 0 0 1 .3-.2.3.3 0 0 1 .2 0m2 .1.5.2.5.2c.9.6.8.4 1.2 1l.4.7v.6c0 .1-.1.2-.3 0l-.3-.3c-.3-.5-.8-.8-1.2-1-.1-.2-.3-.7-.7-1-.2-.2-.3-.4 0-.4m16.7 1.4.3.5c0 .2.1 1-.3.8-.1 0-.1-.1 0-.4l-.1-.6v-.3m-4.2.1s.2.1.2.3v.7l-.4.1-.2-.1a1.2 1.2 0 0 1 .1-.7c0-.2.2-.3.3-.3m17.8.5-.1.2c-.2.5-.4.6-1.8 1-.5 0-.8.3-1 .7-.1.3-.2.3-.5.3s-.4 0-.4.3 0 .4.3.4c.4 0 .7-.3.7-.6 0-.5.3-.6 1.1-.5.7 0 .8 0 1.1-.3.3-.2.4-.5.5-.9V11M7.3 11l.4.5c.5 1 1.5 1.3 2.2 1.4.3 0 .7.3.7.6 0 .4-.4.6-1.3 1-.6 0-1.2.2-1.4.3-.8.2-1 .4.2.3.8-.2 1.7.2 2 .5l.2.4.4.4c.3.4.3.4.3 1 0 .3-.2.6-.3.7-.3.4-.2 2 .1 2.7.3.5.3.8.2.8l-.4.5c-.3.7-.4.5-.2 1.5.2.3.2.6.1.8-.2.2-.3.3-.7.2-.4 0-.7.3-.9.8 0 .1 0 .4-.2.6-.2.5-.5.6-.4.1V26s-.2.1-.2.3c0 .5-.8 1-1.3.9-.6 0-.6-.6-.4-1.2l.4-.6-.7.2-.9.3c-.3 0 0-.3.4-.7l.7-.5c0-.1.2-.4.5-.6.4-.4.5-.4 1.2-.5.7 0 1.2-.3 1.4-.9.1-.3 0-.4-.8-1.2a6.8 6.8 0 0 1-1-1.4c-.4-.8-.7-1-1.2-1-.4.2-1 .6-1 .9l-.5.7c-.5.6-.8 1-.7 1.2l-.3.5c-.2.5-.3.5-.5.1-.1-.3 0-.8.5-1.3L4 21l-.8.8c0 .2-.4.7-.6.7-.3 0 .2-1.3.6-1.7l.2-.3c-.2-.1-1.2 1.1-1.2 1.3.1.2 0 .2-.1 0-.3-.2-.3-.5-.1-.7a.9.9 0 0 0 .2-.4c0-.3 1.2-1.1 1.5-1.1l.3-.2 1-.6.4-.1 1.5-.4c.5 0 1.1-.2 1.1-.3H6.8c-1 0-1.2 0-1.6.2l-.6.4a3 3 0 0 1-1.1.7c-.3 0-.2-.4.1-.7l1.1-1 .1-.6c0-.5 0-.6.4-1l1-.4.6-.2-.4-.4-.4-.5-.2-.1a.4.4 0 0 1-.3-.2c-.1-.2-.2-.2-.3-.1-.2.2-.4.2-.4 0 0-.3-.2-.3-.4 0l-.4.3-.1.1-.2.5v.7c.1.5.3.7.4.2 0-.2.1-.2.3-.2.4 0 .4.1.2.7l-.1.8c0 .4-.2.6-.8.9-.6.3-1 .8-1 1.3l-.4.8-.6.4-.4-.3a2.6 2.6 0 0 0-.5-.5c-.3-.3-.3-.6 0-1.2.4-.4.7-1 1.2-1.4l1-1v-1.5c0-.8.3-1.1 1.7-1.6s1.7-.7 2-1.3l.5-.6m11 0c-.2 0 0 .2.5.5.8.5 1.3 1.6 1.3 2.7 0 .3-.8.6-1.3.5-.5-.1-.5 0 0 .2.7.3 1.1.2 1.5-.2.4-.3.4-.4.3-.8 0-.6-.2-.8-.8-1.7-.3-.4-.6-.7-1-.9l-.5-.2m39.4.4.9.2c.2.2 2.1.8 2.7 1 1.6.2 1.6.7 2 2.6 0 .5.2 1.1.3 1.3.3.5 1 1 1 1 .4.4 1 1.5 1.1 2v.2c-.3 0-.4 0-.6.2a1.2 1.2 0 0 0-.4.3h-.2c-.4-.2-.5-.8-.9-1-.3-.4-.5-.5-.7-.5-.3 0-.3.1-.3.3 0 .3 0 .3.4.4.3 0 .5.2.8.5l.6.5c.2.1.2.6 0 1-.2.2-.3.1-.6-.1l-.5-.5c-.2-.3-1.1-1-1.2-1-.2 0 0 .2.4.5l.4.4.2.2c.4.5.5 1 .2 1.2l-.4-.2a22 22 0 0 0-.7-.9l-.5-.7c0-.1 0-.1-.1 0l.3.6.6.9c.2.4.2.5.1.8-.2.5-.8.3-1.4-.8-.5-.7-1.2-1.5-1.4-1.5-.2 0-.2-.3 0-.5h.3l.7.7.1.2h.1c0 .3.5 1 .7 1l-.2-.7a4 4 0 0 1-.4-.8l-.4-.4a14 14 0 0 1-.7-.7c-.5-.4-1-.4-1.6.1l-.4.6a.5.5 0 0 1-.1.2l-.2.9c0 .7-.1.7-.5 1l-.5.4c-.2 0-.2 0-.1-.3 0-.5-.2-.3-.3.3-.2.7.2 1.5 1 1.7h1.2c0-.2.5-.1.7.1.1.3 0 .5-.1.4h-.1l.1.3.1.3.3.5c.5.5.3 1.2-.4 1.2h-.5c-.5.2-1-.2-1-1-.1-.8-.6-1.2-1.4-1.2-.5 0-.6 0-.7-.2a5 5 0 0 0-.2-.6c-.2-.4-.2-.5 0-.9.2-.6.1-1.6-.1-2.1-.3-.5-.2-.6 0-.6.6.3 1 .2 1.5 0a7 7 0 0 0 1.6-1.6l-.8.3c-1.2.5-1.7.6-2 .3V17c-.1-.5 0-.5.2-.8.3-.2.5-.2 1.3-.2 1 0 1.4 0 1.8.4l.4-.1c.1-.2 0-.3-.2-.4l-.9-.5c-.6-.4-.7-.4-1-.1-.3.2-.4.2-.8.2-.4-.1-.5-.2-.7-.6-.2-.4-.2-.6-.1-1.1 0-.6 0-.6.5-.7.3 0 .5-.1 1-.7l.5-.7h.2m-41.6.7c-.4 0 .5 1.4 1.1 1.7q.4.2 1 .1h.8c.2.2.3.2.3 0-.2-.8-.8-.8-1.7-.9-.7 0-.8 0-1-.3-.2-.1-.3-.3-.3-.4l-.2-.2m45.8 1.4c-.3 0-.6.2-1 .7a6 6 0 0 0-.5 1l-.1.2a2.4 2.4 0 0 1-.3.4 1 1 0 0 1-.4.3c-.1 0 .3 0 .7-.3l.4-.4.8-.6c.5 0 .7 0 .7.2 0 .3.1.4.3.1.2-.1.2-.4.2-.7 0-.4-.2-.6-.5-.8a.6.6 0 0 0-.3 0m-34.6.3v.8c.1.3.5.7.9 1 .3.2.7.1 1.1 0 .7 0 .7-.1 0-.1s-1.4-.4-1.8-.8a.9.9 0 0 1-.1-.5l-.1-.4m-22.3.4c.4 0 1 .5.8.7 0 .3-.3.3-.8 0h-.6c-.3 0-.3 0-.3-.2s.5-.5.9-.5m40 .8h.3c.2.3.2.8 0 1l-.2.8c-.2.7-.2.7 0 1 .3.2.3.3.1.3l-.6.6-.2.5c-.3.4-.4.7-.3.7l.4-.5c.2-.6.7-1 1-1l-.2 1a1.3 1.3 0 0 0-.1.6c0 .3 0 .5-.3 1l-.4.5c-.3 0-.5 1-.3 2 .1.7.3.5.3-.2 0-1 0-1.1.3-1.6l.6-.7c.1-.2.1-.2.5 0l.3.2-.1.5a2 2 0 0 0-.2 1c.1.7 0 .8-.2 1-.6.5-.8 1-.8 1.8-.1.8 0 1 .2.3l.7-1 .5-.7c0-.2.3-.2.5 0v.5a5 5 0 0 0 0 .8c-.1.3-.6 1-.9 1-.3.5-.2.8-.1 1.2v.8c0 .5.2.5.3-.1 0-.3.2-.6.4-.8l.3-.6c0-.3.3-.5.7-.3.2 0 .2.2.2.4a9 9 0 0 0-.1.5l-.4.7c-.8 1.2-1 1.5-.8 2 0 .7.4 1.5.5 1.3v-.4c-.3-.4-.2-.9.3-1.4l.5-.8c0-.2.1-.4.3-.3.3 0 .5.8.4 1 0 .4-.3.8-.5 1.1l-.7 1.2c-.2.7-.3 1-.2 1.7v1c.1 0 .1.4 0 .8l-.2.7c0 .3 0 .2.3-.3.2-.2.3-.6.3-.7 0-.4.1-.4.6.1l.4.6c-.2.4.1.8.3 1.1l.1.4c0 .7-.6 1.2-1 1.7-.2.2-.7.8-.3 1.2.2.4.6.5.6 0l.5-.4.6-.7c.1-1 .7-1.2.8-.3l.2.5c.3.2 0 .8-.4 1-.6.4-.7.6-.8 1.2 0 .5 0 .6.3.9l.3.3.5-.6.6-.8.3-.5c0-.4.1-.5.4-.4l.3.3c.1.2-.2 1.3-.3 1.4-.7.5-.8 1-.8 1.2 0 .2 0 .5.2.7.2.3.4.6.8.8q.2 0 .1-.3c-.1-.4 0-.9.6-1.4.4-.4.4-.6.4-1 0-.3.1-.4.2-.4l.6.2.2.4c0 .4-.3 1-.6 1.3-.3.4-.8.8-.7 1.4 0 .3 0 .6.6.7l.3.3c0 .2 0 .2-.4.1-.5 0-1-.4-1.1-.8 0-.2-.2-.3-.2-.3-.2.2-.9-.1-1.2-.4-.4-.4-.8-1.2-.7-1.5 0-.2 0-.2-.4-.2-.3 0-.5 0-.6-.3-.3-.3-.5-1.3-.5-1.6 0-.1 0-.2-.5-.2-.4 0-.6 0-.8-.3-.3-.4-.3-.7-.2-1.3 0-.3 0-.5.5-1.4.2-.2.5-1.1.5-1.5l-.1-.4s-.1 0 0 0c0 .3-.5 1.3-1 1.7-.3.4-.5.8-.4 1.2l.2 1.1.2 1.1c.3.5.3.6-.1 1-.5.4-.6.9-.5 1.4.2.5.1.5-.4.6-.5.1-.7.3-1 1.3 0 .3-.2.5.1.7l.3.2c.2.3.5.4.7.4.2 0 .3 0 .3.5a2 2 0 0 0 1.4 1.4c.2.1.3.2.5.7l.3.8.3 1.3c.6 1.7.3 5.2.2 6.8a110.6 110.6 0 0 0 0 4.6v-.4a34.8 34.8 0 0 1 .5-4.6 30.9 30.9 0 0 0 .2-8.4h.4c.6.6.7 1 1 1.5v1.1c.2 1.7.2 3.6-.2 5.7-.1.4-.4 1.7-.5 3-.1 1 0 1.1.1 1.4l.6 1.5.4 1.7c.1.6.3 1.2.6 1.7.2.5.2.6-.1.5-.3 0-.7-.6-1.2-1.5l-.2-.4c0 .5.3 1 .6 1.5 0 .2.2.4.4.5l.7.4.9.2c.7.1 1.6.5 1.6.8l.1 1 .1.6v.1c-.1 0-.1 0 0 .1h.1v.5l.1.7.1.5v-.5c0-.6.3-.8.7-.6.1.1.2.2.1.3v.4l-.2.6c0 .1-.2.2-.6.2-.7 0-.9-.1-.8-.5l.1-.3v-.7c-.1-.5-.2-.6-.8-.9-.7-.4-.8-.6-.9-1.2a4.5 4.5 0 0 0 0-.7c-.2-.2-.6-.3-1.2-.4-.4 0-.6-.2-1-.6-.7-1-1.1-2-1.4-3.2 0-.6-.1-.8-.3-.8v.3l.1.5.1.5.2.9c.3 1.6 1.1 2.8 1.9 2.8.7-.1 1 .1 1 .8a2.4 2.4 0 0 0 1.5 2c.3 0 .3.1.3.6l-.2.7c-.2 0-1 0-1.3-.2-.2 0-.2-.1 0-.3.1-.1.2-.1.4 0 .4.2.5 0 .3-.2-.3-.4-.4-.3-.9.2l-.2.2h-.3c-.2 0-.2-.7 0-1v-.6c0-.5-.7-1.9-.8-1.6l.1.4c.2.3.2.4.1 1.2l-.1 1.2c0 .3 0 .4-.3.4-.6 0-1-.1-1-.3l-.1-.3a.9.9 0 0 1-.6-.4 1.5 1.5 0 0 1-.5-1c0-.2-.2-.4-.4-.6-.3-.2-.4-.4-.4-.8-.1-.6-.2-.9-.7-1.4l-.3-.6-.2-1L46 65l-1-2.4-.3-.5-1-2.3a84 84 0 0 0-.3-1.4v-1.2a36.9 36.9 0 0 0 .6-10c-.1-.4-.6-.8-.1-1.4.3-.2.6-1 .4-1.3l.1-.3.6-.4c.3-.4.3-.4.3-1.2 0-.8 0-1 .3-1.3.3-.4.3-.5.3-1.4 0-.7-.1-1-.2-1-.3-.2-.3-.4 0-.6.6-.3 1-1.3.6-2-.2-.4-.2-.4 0-.5.4-.3.2-1.8-.3-2-.2 0-.2 0 0-.9l.3-1c0-.3-.6-1.4-.8-1.5-.2-.1-.2-.3-.2-.8 0-.8-.3-1.5-1.1-2-.2 0-.2-.1-.1-.4.2-1.1.1-1.9-.4-2.4-.2-.3-.3-.4-.2-.7 0-.2 0-.4-.3-.8l-.3-.5.2-.6c.3-.6.3-1.4.2-2V20c.2 0 .6-.4.6-.6l.2-.7c0-.2.2-.6.1-1l.3-1.2.3-.8.1-.2m17.7.4a.2.2 0 0 0-.1 0c-.2 0-.4.5-1.4 1-.3 0-.2.3.1.2.3 0 1 .5 1.2.8 0 .1.3.2.2 0a4 4 0 0 0-.3-.4c-.3-.5-.2-.9.1-1.2l.2-.4m-29.3.2v.3c0 .3 0 .3 1.3.5.3 0 .4 0 .4.3s-.2.6-.6 1c-.2.2-.3.2-.7.1-.4 0-.6.1-.2.3.4.1.7 0 1.2-.5l.5-.7c0-.1.2-.3.4-.3v.4a2 2 0 0 1-1.3 1.8c-.6.2-1 .2-1.7 0-1-.3-1.4-.7-1.4-1.5 0-.5.4-1 1.2-1 .5 0 .5 0 .6-.3 0-.2 0-.4.2-.4a.3.3 0 0 1 .1 0m4 .7c.1 0 .2.3.1.9v1l.2.8c0 .7 0 1-.4 1.3-.5.6-1.8 1-2.5.9a3.4 3.4 0 0 0-1-.1l-.5-.1h-.3c-.4.2-2.3.3-2.7.1l-.9-.8a3 3 0 0 1 0-1.7c.2-.8.2-1.1 0-1.4 0-.4 0-.6.5-.6.3 0 .4 0 .4.4 0 .3.1.4.4.4l.3.4c0 1 1.7 1.7 2.4 1.6 1.1 0 2-.4 2.6-1.5.3-.6.4-.7.6-.6.1 0 .2 0 .2-.4 0-.3 0-.4.3-.5a.5.5 0 0 1 .2 0m11.8 0 .1.3c.1.3.7.6 1 .6h.6c.3-.1.4 0 .4 0a.3.3 0 0 1-.2.3l-.7.5a5 5 0 0 1-2.5 1c-.7 0-1.2.3-1.1.7 0 .1.1.2.3.2h.6c.2 0 .6 0 .9-.2.7-.3 1-.3 1 0-.1.4-.4.8.1 1.3.2.3 0 .2-.1.4l-.3.3c-1.4.3-1.6.4-1.6.7 0 .1 0 .3.2.4.2.2.2.2 0 .3-.2.2-.5.2-.9-.2-.5-.4-.4-1.3.3-2 .2 0 .3-.3.3-.4 0-.3-.2-.3-.3-.1-.1.2-1 0-1-.4l-.2-.2c-.2 0-.2-.2-.1-.6 0-1 .2-1.1.6-1.3.3 0 .4-.2.5-.4 0-.3.2-.4 1-.6l.7-.3zm10.3 0c-.3 0 0 .2.3.3.6 0 1.4.6 1.6 1 .2.3.2.4 0 .8a5 5 0 0 0-.3.4h.4c.5 0 .9-.3.9-.6 0-.2-.8-1-1.2-1.3l-1.7-.6m-26.4.5-.1.5c0 .5-.3.6-.6.3-.4-.3-.4-.7-.4-.2 0 .2.3.5.6.6h.7s0-1.2-.2-1.2M9.5 18l-.3.3c-.3.4-1 .5-2.2.5h-.2l.8.3c.3.1.5.2.7.1h.3l.8-.8c.2-.3.2-.5.1-.4m27.4.6-.1.4c0 .7-.2 1.1-.5 1.4-.2.2-.2.2 0 .2.5 0 1-.8.8-1.6 0-.3-.2-.4-.2-.4m4.3 0 .2.2a.6.6 0 0 0 .3.2l.3.3.4.3c.4.3.4.3.4 1 0 .5 0 .7-.4 1.3-.1.3-.3.6-.7.7-.9.4-.6.3-.6.6-.1.4-.5.7-1 1-.3.2-.4.3-.6.1-.2 0-.4-.2-.3-.4h.2c.2 0 .4-.4.5-.7 0-.4 0-.4-.4-.7-.4-.2-.5-.4-.6-.9a3 3 0 0 1-.2-.6c.1 0 1 .7 1 .9 0 0 0 .1.1 0 .2 0 .2 0-.1-.8-.3-.6-.3-1 0-1l.2.5c.1.5.3.4.2-.1 0-.6 0-.7.4-.3q.6.7.5 1.5l.1.5s.2-.3.2-.8c0-.7 0-.7-.4-1.1l-.5-.6c0-.2.4-.2.5 0l.8.1-.3-.2c-.3-.2-.4-.3-.4-.6 0-.2 0-.4.2-.4m-18.5.6a.1.1 0 0 1 0 .1l.5.5.6.8c.2.3.3.3.4.2a.5.5 0 0 0 .2-.3l.1-.3.3-.5c0-.2.1-.3.3-.4l.2.1.1.3a.7.7 0 0 1 .2.4c0 .8.2 1.6.3 1.6l.2-.5c.1-.6.3-.9.7-.8.2 0 0 .1 0 .3v.3l-.2.8c0 .2.2 0 .5-.4s.7-.6.7-.3c0-.1.3.8-.3 1.2l-.3.2h-.4c-.3 0-.4.1-.5.4-.2.6-.3 1.1 0 1.3a1.2 1.2 0 0 1 .1.3c.1.3-.3.3-.5 0l-.5-.4-.5-.4c-.3-.3-.5-1-.5-1.1.1-.2-.2-.6-.7-.8-.8-.5-1.6-2.2-1.1-2.5m7.4 0v.5l.1.8c.4.3.5.2.3-.2a1.3 1.3 0 0 1-.3-.7v-.4H30m29.3.1c.4 0 .3.3 0 .6l-.4.6-.2.6a.6.6 0 0 0-.1.3l-.1.3-.5.5c-.3.5-.3.5-.1.7.3.2.3.2.4-.3 0-.5.2-.6.6-.5.3.2.4.2.4.4s-.2.3-.2.3v.2l.2-.2c.2-.2.3-.2.4-.1.2.2.3.5.1.6a.3.3 0 0 0-.1.2c0 .1 0 0 .2 0s.2-.3.2-.5l.3-.5c.3-.3.3-.3.5 0 .5.3.5.5.2.9l-.5.4c-.4.2-.4.4-.2.5.2 0 .6-.3.8-.6 0-.2.2-.3.4-.3s.3 0 .2.4c-.1.6-.4.9-.9 1h-.4l.3.2.2.4-.3.2c-.4 0-.7-.3-1.3-1-.5-.8-.6-.8-1-1-.7 0-1.3-.2-1.5-.3-.2-.2-.2-.5.3-1 .2-.2.5-.5.6-.8l.2-.8c0-.3 1-1.4 1.3-1.4m-53 .2.3.1c.3.1.9.8.9 1l.3.5c.6.7 1 1.4 1 1.6a1.8 1.8 0 0 1-.4.4c-.1.2-.2.3-.4.2-.3-.2-1.1.2-1.8.9l-1 .7c-.6.3-.7.3-.9 0-.2-.3-.1-.3.1-.3l.2-.2h-.1L4 24c-.5-.5-.6-1-.5-1.1.2-.3.4-.2.5.2.1.3.2.4.5.4h.3l-.2-.1c-.4-.3-.6-.8-.5-1.2l.2-.3s.1-.2 0-.2l.7-.9c.5-.5.8-.7 1-.7h.2c0 .3-.1.5-.3.5l-.1.2h-.1l-.4.3-.6.6-.3.2.3.4.4.5c0 .2.2.8.3.7V23l-.1-.4.5.3c0 .2.1.2.2.1l-.1-.3c-.2-.2-.2-.2 0-.5.2-.2.3-.2.6 0l.2.1-.1-.3-.3-.2.3-.2c.3-.2.3-.2.5 0 .2.1.3.3.3.5s-.5.6-.7.6c-.1 0-.7.6-.7.8l.5-.4.7-.4c.2 0 .6-.4.6-.6 0 0-.2-.4-.6-.7s-.5-.7-.5-.9c0-.3-.5-.7-.8-.7-.2 0-.4 0-.3-.1 0-.2.4-.3.7-.3M.6 20c.2 0 .6.4.5.5-.2.2-.5.1-.6-.1-.2-.3-.2-.4 0-.4m14.9.5q-.2 0 0 .7c0 1 .7 1.8 1.3 2a4.8 4.8 0 0 1 1.1.2h.2v-.5c0-.3-.6-.7-1.1-.7-.8 0-1.4-.5-1.4-1.3l-.1-.4m17.2 0-.2.2c-.2.3-.3.3-1 .3s-.7 0-.4.1c.5.2 1 .2 1.1 0a.4.4 0 0 1 .4 0c.2 0 .3-.2.2-.4v-.2m1.7.3c-.1 0-.1 0 0 .2 0 .2.1.2.7.1.3 0 .4-.1.4-.2h-.8a.8.8 0 0 0-.3-.1m-28 .3q.3 0 .2.3l-.4.4c-.3 0-.5.2-.6.3-.2.3-.7.3-.7 0l.6-.8.4-.1.5-.1m52.8 0 .5.2c.8.4 1 .5.8.7 0 .3-.5.3-.8 0l-.6-.2c-.3 0-.4-.2-.2-.6l.3-.1m-20.7 1 .2.2.4.6c.2.3.3.5.1.8H39c0-.2 0-.1 0 0v.3c.2.1.3.8.1 1l-.3.7-.8.6c-.5.2-1 .2-1.4.1-.2 0-.2-.4 0-.4.3 0 .6-.7.6-1l-.3-.4c-.2-.3-.3-.5-.3-.8l-.2-.5h.2c.3 0 .9.5.9.8l.1.2c.2 0 .2 0 .1-.2l-.1-.7c0-.6.2-.7.4 0q.3.8.3-.4l.1-.8h.2m-11 .4c.2 0 .2 0 .2.3v.4l.2-.3c.2-.3.3-.3.5-.1l.2.3v.5l.1.3.2-.4.3-.3c.2 0 .3.3.3.6 0 .4 0 .4.3-.2.4-.5.9-.6.7-.2-.1.6-.2.8-.4.9l-.3.5c-.2.4-.2.5 0 .7l.2.4-.1.2c-.5.4-1.4.1-1.9-.5l-.2-.5c0-.3-.6-.9-.8-.9-.3 0-.5-.6-.4-1l.4-.6.3-.1a1 1 0 0 1 .3 0m22.2 0c.1 0 .4 0 .7.2.4.2.3.4.2.5l-.3.6-.2.4c-.1.3-.3.4-.8.5-.8.3-1 .6-1.1 1.3-.1.8 0 .8.2.1.2-.4.2-.4.5-.4.5 0 1-.2 1.2-.5.2-.2.3-.2.5.4l.4.4c.3.1.3.5 0 .7l-1 .3c-.6.1-.8.4-.9 1.1 0 .4 0 .5.2.5l.2-.3c0-.3.4-.5 1.1-.5.5 0 .6-.2.8-.4.4-.5.7-.4.7.3 0 .6-.3 1.2-1 1.4-.4 0-.8.5-.8 1v.7c0 .3.1.4.4.5l.1-.5c.1-.6.3-.9 1-1a.8.8 0 0 0 .5-.6c0-.4.5-.6.7 0 .2.3.5.2.4 1 0 .1-.5.6-.8.7-.4 0-1.1.9-.9 1.4 0 .3.4.6.7.6.2 0 .3 0 .4-.5 0-.4.3-.8 1-1.6.3-.3.4-.3.6-.2l.2.2.4.2c.3.1.3.5.1.7a2 2 0 0 0-.3.4 2 2 0 0 1-.7.6l-.5.4a1 1 0 0 0-.2 1.4c.3.4.6.3.6-.2 0-.3.3-.5.9-1.1l.9-1c.1-.4.2-.4.6-.1.3.4 0 .8 0 1-.4.3-.7.9-1.2 1.4-.4.4-.4 1.4 0 1.4.1 0 .2-.1.3-.4l.4-.5.7-.5c.4-.4.5-.4.7-.3.1 1 .3 1.2-.8 2-.2 0-.6.4-.7.7 0 .4.1.6.8.5.5 0 .5 0 .4.2a1.6 1.6 0 0 1-.2.4c0 .1-.5.1-.8 0-.5-.2-1-1-1-1.3.2-.2.2-.3 0-.3l-.6-.2a.8.8 0 0 1-.4-.6c-.1-.4-.3-.5-.6-.7-.4-.2-.5-.3-.8-1-.1-.2-.2-.3-.5-.3-.4 0-1.1-.7-1.4-1.4-.1-.4-.3-.6-.4-.6-.7-.2-1.5-1.5-1.3-2.2 0-.4 0-.7-.3-.7-.2 0-.6-.9-.6-1.4q0-.5-.2-.5c-.2 0-.7-.9-.8-1.5 0-.7 0-.8.5-.9.5-.1 1-.8.5-1l-.1-.2c0-.2 0-.3.3-.3l1.2-.3.2-.1m-13.8 1c.1 0 .2 0 .2.3 0 .2 0 .5.2.7.3.6.2.9-.2 1.4-.3.3-.5.4-.9.5a3 3 0 0 1-1.7-.3l-.6.2c-.5.3-1.7.2-2.2-.2-.2-.2-.7-1-.7-1.3 0-.2.7-1.3.8-1.3.2 0 .3.4.2.7v.2c.3 0 .4-.2.4-.5 0-.2 0-.3.2-.3s.2.1.2.3v.4a.3.3 0 0 0-.2.2l.5-.4c.3-.5.5-.6.8-.6l.3.1c0 .3-.2.6-.4.6s-.4 0-.6.5v.3c0 .4 0 .5.3.5l.5.2c.1.1.2 0 .2 0 0-.2.1-.2.4-.2.3 0 .5 0 .6-.2.2-.2 0-.9-.4-1.3l-.4-.4c0-.2.4-.2.6 0 .2.1.2.2.3 0 .3-.2.4-.1.6.4l.3.4.2-.4c0-.3.1-.5.3-.6a.5.5 0 0 1 .2 0m-12.7.1s.2 0 .3.2c.1.3.1.7.5 1 .3.2.2.5.1.8 0 .4-.2.5-.3.6l-.3.3a1 1 0 0 0-.2.4c0 .1 0 .5-.2.6-.2.1-.3.3-.6-.4-.2-.6 0-1 .5-1.7.3-.4.4-.7.1-1-.1-.1-.2-.6 0-.7m-14.4 0-.2.3c-.2.2-.3.3-.6.3-.4 0-1 .1-1.1.3-.2.2-.2.2.4.2l.8-.1c.3 0 1-.8.8-1m45.6.8c.2 0 .4.4.3.6 0 .2-.3.5-.6.7l-.2.3c-.3.4-.6 1-.4 1.5l.3.3.3.2.5-.8c.1 0 .3 0 .6.4.4.4.4.5.3.7 0 .2-.1.4-.2.3-.3 0-.3.8 0 .9.2.2.5.5.8.6l.4.1c.2.1.2.2 0 .3-.2.3-.9.2-1.6-.3-.3-.2-1-1-1-1.3l.4-.2.4-.4c0-.2 0-.2-.2 0-.5.5-2 0-2-1.1l.2-1.2.4-1s.8-.5 1.3-.6m-21.4 0s.2 0 .3.2v.5c-.2.5-.6.3-.6-.2 0-.3.2-.4.3-.4m8.8.3s.5.2.6.5c.2.3.6.7.6 1.1v.6c-.4.1-.6 0-1-.3l-.2-.3a1 1 0 0 1 0-.6c.1-.3.2-.2 0-.9-.1 0 0 0 0 0m-30.7.5.2.2.4.3c.3 0 .7.8.5 1-.2.5-.5.3-.7-.2-.2-.3-.2-.3-.2 0 0 .6.8 1.5 1.5 1.6h.2c.2.1.2.2.3.4v.8c0 .5 0 .7-.2.9-.5.4-1.4.7-1.6.4a.3.3 0 0 0-.2-.1c-.2 0 .2.4.7.6 1 .6 1.2 1.3.4 2-.4.5-.4.5-1 .5-.4 0-.6-.2-.8-.3-.2-.2-.3-.3-.4-.2 0 0 .3.5.7.7.4.2.9.7.9 1v.3c.2 0 .1.1 0 .2a9 9 0 0 0-.5.6c-.2.2-.3.3-.7.2h-.5l.4.4c.3.3.4.4.3.6a3.4 3.4 0 0 0-.1.5c0 .3-.1.4-.4.5-.4.2-.8.1-1-.1 0 0-.4 0-.2.1l.3.3c.7.4.8.5.9 1.1 0 .5 0 .7-.2.9-.2.2-1 .3-1.3.2-.3 0-.6-.5-.5-.7h.4c.4.3.6.2.7 0 .2-.3-.2-1-.7-1.4l-.5-.9c-.3-.5-.3-.6 0-.7.2-.2.7.1.9.5.1.5.2.5.6.1l.3-.3-.8-.8c-1-1-1.1-1.3-1-2 0-.5.2-.6.6-.4.6.4.8.8.8 1.4v.4l.4-.2c.7-.3.6-.9-.2-1.7l-.4-.5-.1-.1c-.2 0-.6-1.1-.6-1.6s.2-1 .4-1l.5.5.6.7c.2.1.3.3.3.5 0 .3.1.3.5.2.3-.1.3-.2.3-.5a1.5 1.5 0 0 0-.3-.5c-.9-.9-1.4-1.7-1.4-2.1 0-.2.5-.7.6-.7l.4.3.4.3s.2.2.2.5.8.2.9-.1c0-.3 0-.7-.2-.7l-.5-.3-.7-.6c-.2-.1-.2-.3-.3-1.1 0-.5 0-1.3.5-1.8l.2-.1m15 .5.2.5c0 .7.2 1.6-.5 2l-.7-.1c-.6 0-1 .8-.6 1v.2c0 .2-.3.2-.5-.1-.6-1-.2-2.2.7-2.5.3 0 .5-.2 1.2-1h.2m13.9 0 .4.3c.5.4.6 1.4.2 1.8-.3.3-.6.4-1 .3-.3-.2-.3-.6 0-.6s.4-.3.2-.6c-.2-.2-.2-.5 0-.6v-.3c0-.2.1-.2.2-.3m-18.3.4h.1l.1.2v.6c.2.2.2 0 0 .4l-.3.6-.1.3c-.5.5-.7.4-.7.2l.1-.4.2-.6V27l.3-.3v-.2l.3-.1m6.6.7h1.2c.9 0 1.1.1.8.4l-.3.2-.4.3-.6.7-.7.8-.6.8s0 .1 0 0c.2 0 .3.5.3.9l-.7-.1c-.5-.3-.7-.4-.8-1 0-.5.2-1 .6-1.3.4-.3.8-.9.9-1.3q0-.4.3-.4m13.7.3.6.1.6.3c.2 0 .8 1 .8 1.3 0 .4 0 .6-.5.7l-.4.2-.2-.4c.1-.1-.3-1-.7-1.3-.4-.4-.6-.8-.3-1a.2.2 0 0 1 .1 0m-4.5.1c.4 0 .7.2.7.4 0 .4.7 1 1.3 1.2.8.3 1 .7 1 1.4v.6c-.1 0-.9.2-.9 0a3 3 0 0 1 0-.3.7.7 0 0 0-.1-.4 2 2 0 0 0-1-.6c-.4 0-1-.3-1.1-.6a11 11 0 0 0-.5-.8l-.3-.6.6-.2a1.3 1.3 0 0 1 .3 0m-4.1 0a.8.8 0 0 1 .3 0c.3.1.7.2 1 .1h.7c.4.3.3.4.4.6a4 4 0 0 0 1.3 1.8c.4.4.8.4.5 1.4l-.2.7c-.1.2-.3.3-.6.3s-.6-.3-.3-.7c.3-.4.2-.7-.6-1.1a4 4 0 0 1-1.8-1.9c-.2-.5-.4-.6-.7-.8-.2-.2-.2-.4 0-.4m-1 .2c.3 0 .4 0 .3.3-.5.8-.3 1.2-1 2-.4.4-.7.6-1.2.7-.2 0-.4.2-.5.5-.2.4-.2.4 0 .8.2.1.3.3.2.4a.7.7 0 0 1-.4 0c-.4 0-.5 0-.7-.3-.4-.5-.4-1 0-2 .4-.8.7-1.2 1.4-2 .4-.4.5-.4 1-.3l.8-.1a1 1 0 0 1 .1 0m9.2.4c.1 0 .2 0 .2.2l.3.5c.5.7.6 1 .4 1.5l-.2.4c-.2.1-1.3.2-1.4.1l.2-.3c.3-.2.3-.8 0-1.2l-.4-.2c-.1 0-.3-.1-.3-.3-.2-.1-.1-.2.5-.5l.7-.2m-8.4.2c.2 0 .4.4.4.8 0 .6.4 1.2 1 1.6l.7.5c.8.7.8.8.8 1v.4c.1.2.6.4.8.4.5 0 .7.4.6 1 0 .5-.5 1-1.2 1-.5-.1-.8-.4-.5-.7.7-.4-.6-1.1-1.4-1.4-.8-.1-1-.3-1.7-1.4-.2-.4-.3-.3-.2.3.2.6 0 .9-.5 1.3l-.8.5a4 4 0 0 1-.5.3c-.3.1-.8.6-.8.8l.3.4.3.5c-.1.2-1 .2-1.4 0-.2-.2-.2-.4-.3-1 0-1 .1-1.3.8-1.5.7-.2 1.3-1 .9-1-.4-.2.5-1 1.1-1l1-.3c.7-.2.8-.2.8-.6l-.2-1c-.2-.6-.2-.8-.1-.9m-10.5.3c.1 0 .2 0 .3.2 0 0 .2.2.2.8 0 0 0 .3-.2.5l-.6.3c-.7.4-.4.8-.5 1-.1.4-.2.4-.4 0-.4-.6 0-1.7.8-2.5l.4-.3M21 29c.1 0 .2.2.1.5l-.1.6-.1.5c0 .2-.1.3-.3.4-.5.4-.7.2-.6-.6.1-.5 0-.5.4-1q.4-.4.6-.4m4.5.1c.1 0 .2.1.1.3 0 .3 0 1 .4 1.4.1.1 0 .2-.3.3-.7.3-1.9 1-1.4 1.9.2.2.2.2 0 .4-.4 0-.6 0-.8-.3-.5-.7-.4-1.8.6-2.5.8-.6 1-.8 1-1l.3-.3.1-.2m18 .9h.6c.4.2.5.7.7 1.2.3.5.3.8-.1 1-.3.2-1 .3-1.2.1-.3-.2-.2-.4.1-.4.5 0 .4-.5-.1-.7-.3-.1-.4-.3-.4-.4a6 6 0 0 0 0-.5c.1-.2.2-.3.4-.3m-4.9.1c.3 0 .7.4.7.7 0 .3 0 .3.6.4.2 0 .3.1.2.3 0 .1.1.3.4.5.2.1.3.3.3.4l.3.3.3.4c0 .4-1 1.2-1.4 1.1-.2 0-.3.2-.1.4l.6.2.4.6s.1.4-.1 1c-.2.3-.4.4-.9.5-.5.1-.4.4.1.5l.5.2.3.5c.2.3.2.4 0 .7v.5c0 .1-.7 1-1 1-.3 0-.2.2.1.3.7.1 1 1.2.5 1.8-.1.2-.3.3-.5.3s-.2 0-.1-.4c.1-.7-.4-1.4-1.2-1.5-.6 0-.7-.3-.4-.6.2-.3.1-1-.2-1.2-.3-.7-.3-1 0-1.2.1 0 .4.3.3.5l.3.4.2.4.2.3c.2 0 .3.2.3.3 0 .3 0 .3.4 0 .3-.3.3-.6 0-.9l-1.2-1c-.1 0-.2-.2-.2-.8 0-.7 0-.8-.4-1.1-.5-.5-.5-.6-.1-.8.2-.2.3-.1.4.1l.7.7c.3.2.4.5.4.6 0 .3.2.4.3.1.5-.5.3-1-.6-1.3-.7-.3-.8-.4-.8-1.2 0-.5 0-.7-.2-1-.2-.4-.2-.5 0-.7.2-.2.2-.2.4 0l.2.3.3.5c.2.2.4.4.4.6l.1.3.4-.3c.4-.3.3-.7-.4-1-1-.5-1-.5-1-1.7 0-.8 0-1 .2-1m3.2.8h.2c0 .2.3.3.4.3.2 0 .6.6.8 1 0 .5-.3 1.4-.8 1.5-.3 0-.3 0-.2-.4 0-.6 0-.9-.7-1.2-.6-.3-.8-.5-.5-.6l.5-.4.3-.2m6.8.3c.1 0 .2 0 .4.3.4.4.4.8 0 1.2-.2 0-.5.2-.7 1 0 .5 0 .6.4.9.4.5.5.5.5 0 0-.3.2-.7.4-.8l.2-.5c.1-.4.3-.6.4-.6l.4.5a2 2 0 0 1 0 1.5l-.5.7c-.2.3-.4.7-.4 1.3.1.3.3.7.6.9l.4.1c.2 0 .2 0 .2-.2-.2-.6-.2-.8.2-1.4.4-.6.5-.9.5-1.4 0-.8.2-.9.6-.4l.3.5c.3.5.3 1.2-.2 1.7-.5.4-.7 1-.8 1.3-.2.6-.1 1 .3 1.6l.4.6c0 .2-.7 0-1-.2a3 3 0 0 1-.6-1.3c0-.5-.2-.6-.4-.6-.8-.1-1.5-1.2-1.4-2.2 0-.5 0-.5-.3-.6-.6-.1-1-.7-1.2-1.6 0-.4 0-.5.3-1l.4-.5c.2 0 .3-.3.4-.5 0-.2.1-.3.2-.3m-27.9 0 .1.6c0 .6 0 .7-.2.8a2.3 2.3 0 0 0-.5.3c-.3.3-.5.3-.5 0 0-.4.6-1.4.9-1.5zm7.3.2.4.8c0 .3 0 .4-.1.3-.2-.1-1 .6-1 1v.7c.3.3.3.3.1.4l-.2.1H27c-.4-.1-.8-.8-.9-1.3 0-.5.2-1.4.6-1.6.2-.2.3-.4.6-.4.5.4.7 0 .8 0m-5.5 0 .1.2c-.2.3-.3.7-.2 1.2.2.2.2.5 0 .5-.5 0-.7.9-.8 1.4 0 .3-.3.2-.4-.1 0-.2-.2-.5-.1-.7l.1-.7c0-.3.6-1.3.9-1.6l.4-.2m22 1.6c.2 0 .2 0 .4.4l.3.6c.2.2.2.3-.1.5-.6.6-1 .6-1 0L44 34c-.6-.6-.5-.9 0-.8h.4a1 1 0 0 1 .2-.1m-11 0 .3.3c.4.4 1 .8 1.2.7.2-.1.5 0 .5.4s.6 1 1.1 1c.6.2.9.6.9 1.1 0 .4 0 .5-.5 1-.6.5-1.1.7-1.3.2-.1-.2-.1-.2.2-.5l.4-.3-.3-.5a1.4 1.4 0 0 0-1.2-.6c-.5 0-1.5-.7-1.8-1.6a1 1 0 0 1 .3-1l.2-.2m-13 .2V35c-.3.4-.4.4-.7.1-.2-.2-.2-.9.1-1.3.2-.4.5-.6.6-.6m4.7 0 .1.4.1.9a1 1 0 0 1-.2.7c0 .1-.2.3-.4.3s-.4.1-.5.4c-.2.3-.1.8 0 1 .2.2.2.2.1.3h-.6c-.5-.2-.7-1-.5-1.8.3-1.1 1-1.4 1.6-2l.3-.1m7.4.6c.1 0 .2.2.1.6-.1 1 .5 1.5 1.3 2l.7.4c.6.2.7.2.6.7 0 .4.8 1 1.5.9.5 0 .5 0 .6.8.1.4-.4 1.2-1 1.5-.4.2-.5.2-.6.1-.2-.1-.1-.3 0-.3.2 0 .4-.5.4-.8 0-.4-1.4-1.5-2-1.5-1.4-.8-1.4-1.6-2-2.2l-.4-.4v.1l.2.5c0 .4 0 .5-.2.7a1 1 0 0 1-.4.2l-.4.4c-.5.4-.6 1.2-.4 1.5.4.4-.3.5-.8.1-.3-.2-.4-.3-.4-1l.1-1.1c.2-.3.2-.3 0-.5s-.2-.2.3-.2c.6 0 1-.4.8-1-.1-.6 0-.7.8-.8.3 0 .6-.2.8-.4q.2-.3.4-.3m-4.4.1c.2 0 .2.3.2.7l.3 1.3-.1.7-.5.4c-.5 0-1.1.5-1.1 1 0 .3 0 .3.2.4.2 0 .3 0 .3.2 0 .3-.4.4-1 .1-.2-.3-.3-.3-.4-.8 0-.7 0-1.5.3-1.8 0-.2.4-.4.6-.6l.4-.5c0-.2.6-1 .8-1M42 34c.3 0 .5.2 1 .7l.6.5-.2.5c0 .3-.2.6-.3.7l-.5.3c-.2 0-.3 0-.3-.2l.3-.4.3-.2-.4-.2-.6-.4-.6-.3-.3-.1c0-.2.5-.7.8-.8a.7.7 0 0 1 .2 0m-19.3.3v.4a10 10 0 0 0-.2 1c0 .6 0 .6-.4.8-.5.3-.7.6-.8 1.2 0 .4-.3.5-.4.4-.3-.3 0-2 .3-2.3a5 5 0 0 0 .4-.6l1-.9m-5.6.4v.2c0 .3.1.6.4 1l.2.6.1.3c.4.1 0 1.1-.5 1.4l-.9.2c-.5 0-.6 0-1-.4-.3-.4-.3-.5 0-.8.3-.2.5-.1.7.2.2.4.5.4 1 0 .2-.3.2-.3 0-.6l-.5-.5-.2-.3c0-.6 0-.8.2-1q.3-.3.5-.3m27.2.4.6.3c.5.2.5.2.5.5a.6.6 0 0 0 .1.5c.3.3-.2 1-.8 1.3-.2 0-.2 0 0-.4.1-.4-.2-1-.6-1.2-.2-.2-.3-.2-.2-.5 0-.3.2-.5.4-.5m-24.6.3a.2.2 0 0 1 .1 0l.7.6v.3l-.1.6c0 .3 0 .4-.2.4-.4 0-.8-1-.7-1.6 0-.1 0-.3.2-.3m34 1 .2.2c.1.4.4.8.1 1.3a2 2 0 0 1-.3.6 5.3 5.3 0 0 0-.5 1c-.1.5-.1.6.1 1 .3.5.6.7.6.5v-.3a3 3 0 0 0 .1-.3l.3-.5.5-.6c.2-.3.4-.8.3-1.2V38l.3.1c.4.2.6.7.6 1 0 .1 0 .4-.2.7a3 3 0 0 0-.3.3c-.2.2-.8.6-1 1.2 0 .3.5.6.8.5.5 0 .6.2.3.4a2 2 0 0 1-.7.3c-.5 0-.8-.2-.9-.6 0-.2-.1-.3-.2-.3-.5 0-.9-.3-1.2-1-.2-.5-.3-1.1-.3-1.7.1-.5.4-.8.6-.9l.4-.8c.1-.5.3-.7.4-.7m-12 0c.2 0 .3.1.3.3 0 .2.2.3.4.4.3.1.3.4 0 .3l-.3.1.1.2.5.3c.5.4.6 1 .3 1.5q-.6.9-.6 0c0-.4 0-.5-.3-.9a3 3 0 0 0-.8-.5c-.3-.2-.4-.5-.2-.6l.3-.6c.1-.3.3-.4.4-.5m-16.5.2v.3c-.2.3-.2 1.3.2 1.6 0 .2 0 .3-.2.3-.2-.1-1.1.9-.9 1.3l.6.3.3-.3c.3-.2.5 0 .4.4l-.1.6-.1.8c-.3.1-1 1-1 1.2v.4c0 .3-.2.2-.3 0-.4-.7-.2-1.8.4-2.4l.3-.3h-.3a1 1 0 0 1-.6-.3c-.5-.7-.2-1.6.2-2 .5-.4.3-.5.5-1l.3-.5.3-.4m-2.6.6.6.5v.6c0 .3-.2.4-.3.6-.5.4-.9 1-1 1.3 0 .5-.4.6-.5.2-.4-.7 0-2 .7-2.4.3-.2.4-.3.3-.5v-.3h.2m20.9.2.5.4c0 .2.2.4.4.6.4.3.5 1 .3 1.4-.2.2-.9.3-1 .2a.1.1 0 0 1 0-.3c.4-.1.3-.7 0-1.4-.3-.4-.4-.7-.3-.8m-23.6.2s.1 0 0 0l.3.4c.2.3.3 1 .2 1.4 0 .5 0 .6-.2 1-.4.3-.5.2-.5-.3 0-.6 0-.6-.2-.9-.1-.3.1-1.7.4-1.6m13 .2.6.8c.5.5 1 .8 1.7 1 .6.2.7.7.4 1-.2 0-.2 0 0 .3.4.4.9.6 1.2.6.2 0 .4.1.5.4.2.4.3.7.1 1.1-.2.5-.8.8-1.2.6-.1-.1 0-.2.1-.3.3-.1.3-.4 0-1-.2-.5-.3-.6-1-1A6 6 0 0 1 34 41c-.5-.4-1-1.1-1-1.4 0-.3-.2-.8-.4-.8-.1 0-.1 0 0 .4v.8c0 .3-1 .9-1.2.9-.3 0-.8.5-.8.8l.1.5c.5.4.2.7-.4.4-.5-.3-.7-.8-.6-1.7a.7.7 0 0 1 .6-.6l.7-.2c.4-.3.5-.5.3-.7l-.1-.1c0-.2.6-.7.7-.7l.4-.3c.2-.2.3-.3.5-.3m-4.6.3c.2 0 .3 0 .3.3 0 .4.3 1.2.4 1.2l.1.2c0 .2-.6.7-1 .9-.5 0-1 .5-1 .7v.3l-.2.1c-.6 0-.6-1 0-1.9l.7-.7c.2 0 .2-.1.2-.7 0-.2 0-.3.3-.4h.2m-16.8 0 .3.3c.2.5.8.8 1 .7v.1c0 .2-.3.5-.4.4l.6.7.7.9v.2c.2.8-.5 1.2-1.1 1.4-.3.1-.4 0-.2.2 0 .1.3.2.4.1.2 0 .2 0 0 .2a.6.6 0 0 0-.1.3c0 .3-.1.4-.6.8-.4.3-.9.4-1.1.2-.2-.2-.2-.4.1-.4.4 0 .7-.4.7-.8 0-.3-.1-.4-.4-.4-.4-.1-.9-.5-1.1-1.1-.4-.7-.4-1 0-1 .2 0 .4.2.7.7.4.6.5.6 1 .6.6 0 .7 0 .8-.3.2-.4 0-.8-.7-1-.5-.3-.8-1-.8-1.6 0-1 0-1.2.2-1.2M41.7 40l.3.3c0 .1.1.3.3.3s.3.3.4.5c.2.2.2.3 0 .7-.1.6-.5.6-.5.1 0-.2-.5-.7-.7-.7a.8.8 0 0 1-.5-.1c-.1-.2-.1-.2.2-.5l.3-.5.2-.1m-12.1.5-.1.2c-.4.7-.6 1.2-.6 1.7s0 .6-.5.7c-.7.4-1.4 1.3-1 1.4.2.1 1.1-.3 1.5-.7.6-.5 1.2-.3.7.4v.5c0 .2-.2.5-1 1.2-.6.5-.7.9-.3 1l.6-.2c.3-.1.5-.2.6 0 .1 0 0 .5-.2.5l-.5.2c-.4.2-.5.2-1 0a1 1 0 0 1-.6-.7c-.1-.5 0-.9.5-1.4.5-.4.5-.6 0-.3-.4.2-.9.1-1-.1l-.2-.7c0-.4 0-.6.4-.9.4-.1.6-.3.8-.7 0-.2.2-.5.1-.7 0-.1 0-.2.3-.3l.9-.7c.3-.3.5-.5.6-.4m13.9 0c.3.1 1 .6 1.1.9.2.5.2.7-.2 1.1l-.5.5c-.2 0-.3-.4-.1-.6.2-.2 0-.9-.3-1.4-.3-.3-.3-.4-.1-.4a.3.3 0 0 1 .1 0m-20.5 0 .4.3.3.4-.4.8-.5.8c0 .2-.4.2-.6 0-.2-.2-.2-.5 0-1l.3-.8c.2-.4.3-.5.5-.5m-7.7.3c.3 0 .3.3.3.3-.1 0 .2.5.7.9 1.2 1 1 2.2 0 2.5-.7 0-.5.2-.5.8 0 .5-.1.6-.5.8-.8.4-1.3.2-.8-.3a.9.9 0 0 0 .3-.7c0-.3 0-.4-.5-.7-.5-.3-.6-.5-.3-.7l.1-.4.1-.3.7.7c.6.6.7.6.8.5.6-.7.2-1.4-.2-1.7l-1-.8c-.4-.1-.4-.4 0-.4l.6-.4a1 1 0 0 1 .2 0m5.3 0c.1 0 .3 0 .3.2 0 .1 0 .3.2.5s.1.4.1.5l.2.4a.5.5 0 0 1 .1.5c-.1.7-1 .2-1.1-.7v-1.3a.3.3 0 0 1 .2-.1m12.7 0v.1c.1.2 1.7 1.5 2.2 1.7.3.2.3.5.1 1l.1.4c.1 0 .3.1.4 0l.1.1.5.3c.4 0 .4.2.5.5 0 .4-.3 1-.7 1.4-.4.3-1.3.2-1.5-.3-.1-.1-.3-.2-.3 0 0 .3.8.8 1.5 1 .2 0 .3.1.2.4l-.2.4-.4.5c-.3.4-.5.5-.6.3-.1-.2.2-1 .4-1 .2-.2 0-.3-.4-.3a1.7 1.7 0 0 1-.7-.1c-.5-.3-.9-1.1-.8-1.7l-.1-.5-.3-.4-.2-.2-.1.4a3 3 0 0 1-1 1.2c-.6.6-.7.8-.7 1.1v.4l.3-.2.7-.3c0 .2-.4.6-.7.7 0 .2-1.3.3-1.3 0-.2-.3-.2-1 0-1.2l.2-.5c0-.4.1-.4.7-.5.3 0 .6-.2.6-.3l.3-.1c.1 0 .2-.1.1-.3 0-.4 0-.4.5-.6l.6-.3.3.3.5.4.4.2.6.5.3.5c0 .4.2.4.4 0 .4-.5.3-.8-.3-1.3l-.5-.5c-.1 0-.3 0-.5-.2-.5-.2-.5-.6-.2-1l.3-.3h-.7c0-.3-.2-.5-.3-.5V42l-.2-.2v.3c0 .4-.2.6-.8.7a1.8 1.8 0 0 0-.7.5c-.2.3-.3.5-.2.9 0 1.1.1 1-.3 1-.5 0-.6-.2-.9-.6-.2-.5 0-1 .3-1.1l.4-.4.1-.2c.2-.1.3-.4.2-.6-.2-.2.1-.5.6-.5l.7-.4.5-.3m4.5.1c.2 0 .4.2.6.4.5.6.7 1 .5 1.2-.2.2-.2.3.1.4l.5.1.6.3c.5.3.8.7.8 1.1 0 .3.2.3.3-.1.3-.5.3-.5 0-.9-.4-.4-.4-.6-.2-.8l.2-.5c0-.3 0-.4.3-.3l.1.4c0 .3.1.5.3.5.1 0 .2.2.2.7 0 .6-.1.9-.6 1.4-.3.3-.8.4-1 .1l-.1-.5c-.1-.4-.5-1-1-1-.2 0-.2 0 0 0 .2.2.4.9.4 1.3 0 .2 0 .3-.4.5a7 7 0 0 0-.6.2c-.2.2-.4.2-.7 0-.3 0-.5-.3-.6-.7-.1-.5 0-.7.3-.4l.3.2.3.3c.2.4.4.4.4 0 0-.2 0-.4-.4-.7-.3-.3-.5-.8-.3-1 .1 0 0-.7-.2-1.1l-.3-.5-.1-.3c0-.2.1-.3.3-.3m9.8.9.1.3c0 .2 0 .5.2.6 0 .3 0 .4-.4.8-.5.5-.6.8 0 1.2.3.5.7.5 1.2 0 .3-.5.4-.5.6-.3.2.3 0 .8-.3.9-.3 0-.5.4-.5.8 0 .3 0 .4.4.5.4.2 1 .1 1-.2 0-.3.2-.3.7 0l.4-.3q.6-.6.5.5c0 .3-.2.5-.3.6a1.4 1.4 0 0 0-.5.6v.5c.2.2.5.3.7.3.6 0 .6.2.1.5h-.4c-.3 0-1-.3-1.1-.6v-1.2c.3-.4.2-.5 0-.3-.4.4-1.2.4-1.6.1-.5-.3-.8-1.2-.5-1.5.1-.2 0-.3-.2-.2-.4.1-.7 0-1-.5-.2-.4-.3-1.2 0-1.4a.5.5 0 0 0 .1-.4l.1-.3.2-.4c0-.4.3-.7.5-.6m-29.8.7c1 0 1.4 1.4.6 2.2a2.2 2.2 0 0 1-.7.5c-.6.2-.7.2-.9 0 0-.2 0-.2.3-.4.6-.3.8-.5.7-1.2a2 2 0 0 0-.2-.8c-.2-.2 0-.3.2-.3m8 .1.1.1c.2.2.2.2 0 .5-.4.3-1.4 1.8-.7 2.2.3-.4.6-.1.6 0 0 .3 0 .3-.4.5-.7.3-1.2-.5-1.2-.9 0-.8.2-1.5.5-1.5.1 0 .4-.2.6-.5l.5-.4m-2.6.4c.3 0 .4.2.3.7l-.1.6v.5c0 .4-.1.5-.3.5l-.4-.3c-.3-.3-.3-.4-.2-.8.1-.6.5-1.2.7-1.2m20 0c.4 0 .6.3.5.8l-.2.5c-.3.3-.5 1-1 .7 0-.3 0-.7.2-.9.2-.1.2-.4.2-.6 0-.4 0-.5.2-.5m-23.7.3q.2-.1.6.3c.3.3.3.3.3 1 0 .8.2 1.4 1 2 .1 0 .1.2 0 .4-.4.7-.6 2.5.1 5l.7 2.8c.2.8.4 1.5.3 2.3l-.1.9-.2 1.2c0 .1-.2.4-.4.4-.5.6-.8 1.6-1 2.1 0 .3-.1.7-.3 1l-.4.8-.1-.8c0-1 0-1-.2-.3 0 .7-.1.9-.2 1.1l-.2 1-.2.9-.2.7c0 .4-.1.7-.3.9-.2.2-.2.6-.3 1 0 .3-.8 1.4-1.5 2l-.4.5.4-.1.5-.2.3-.4c.2-.3.5-.3.5 0 0 0 0 .6-.4 1-.3.3-.7.4-1.5.4-.5 0-.6.2-1 .5l-.6.4c-.2 0-.4 0-.5.2-.3.3-.8.5-1 .3-.1 0-.1 0 0-.2l.5-1-.2-.4c-.2-.3-.2-.2-.1 0 0 .4-.3 1.3-.5 1.3s-.3-.4-.3-1c0-.7.3-1 1.1-1l.6.1-.5-.2c-.4-.2-.5-.3-.5-.7l.1-.8.2-.4a.3.3 0 0 1 .3 0l.5.2c.6.3.7.4 1.2.3 1-.2 1.3-1.3 1.6-2l.2-1v-.5l-.1.4c-.2.8-.5 1-.7 1.5-.4.5-.8.8-.8.3l.1-.6c.3-.6.5-2 .3-2.3-.1 0-.2.1-.2.7 0 .5 0 1-.2 1.3l-.3.8c-.2.3-.4.4-.7 0v-.6l.5-2.4v-.9l-.1 1s-.3 1.4-.5 1.6c-.3.3-.2-.3 0-1.6.2-1.9.7-4 1.4-6.2l.2-1.3a36 36 0 0 0 0-5.4 19 19 0 0 1-.5-2.9v-1h.3c.5-.1 1.3-.5 1.5-.7l.1-.5a.7.7 0 0 1 .3-.4 3 3 0 0 0 1.4-1.3c.2-.5.2-.7.1-1v-.5m1.9.4h.2l.4.2c0 .2 0 .6.2.8v.6c0 .4-.2.3-.6-.2-.3-.3-.4-.6-.4-1 0-.3 0-.4.2-.4m24.4.6c.1 0 .2.1.2.3l.2.5.2.6c0 .2-.2.3-.6 0-.3-.1-.4-.4-.4-1 0-.2 0-.3.2-.4a.6.6 0 0 1 .2 0m-32.6.7h.2c.2.2.5.5.7 1 0 .9 0 1.6-1.3 1.4-.3-.4-.3-.6 0-.6.6 0 .7-.6.2-1-.4-.4-.1-.8.2-.8m3.2.1c.4 0 .7.7.5 1.1l-.5.6c-.8.4-1.1.4-1.2.2V47l.3-.2c.4-.2.6-.7.6-1.2 0-.2 0-.3.3-.3m24.4.6.3.2c.7.6 1 1.9 1 4.1l-.4 2.8-.7 2.8a241 241 0 0 1-.5 2 5.3 5.3 0 0 0 .4 3.8c.5 1.4 1 4 .8 4.7 0 .1-.2.2-.3.1-.2 0-.2 0-.2.5 0 .4 0 .5.3.7.1.2.4.3.6.3l.6.3c.3.3.3.4.2.9l-.1.6-.1.5v.3l.2-.3.5-.4.5.5c.4.4.4.5.4 1.1 0 .6 0 .7-.2.7-.4.1-.5-.1-.3-.6.2-.4.2-.4 0-.6-.2-.2-.3-.2-.5-.1-.2 0-.2.1 0 .5.2.8.2.8-.2.8-.5-.1-.6-.2-.5-.7 0-.3-.1-.5-.2-.1a1.3 1.3 0 0 0-.1.3c0 .1 0 .2-.2.3-.2.2-.3 0-.2-.9.1-.6.1-.7-.2-1.4l-.4-1c0-.3-.4-.6-1-.7-.4 0-.5-.1-.5-.3.2-.5-.1-2-.6-3.5a12.4 12.4 0 0 1-.4-1.6c0-.5-.2-.8-.3-.9v1l.3 1.9c.2 1 .3 2.7.2 3-.1.1-.2 1.6 0 1.6v.3c0 .2 0 .2.2 0 .1 0 .3-.4.3-.7.2-.5.2-.5.6-.6.4 0 .5 0 .7.3.2.4.1.7-.4 1l-.3.4c0 .2 0 .2.3 0 .2-.2.4-.2.6 0 .5.1.6.5.6 1.3 0 1 0 1-.3 1s-.4-.2-.2-.8v-.8c-.3-.3-.6-.2-.8.1-.1.3-.1.4.2.7l.2.6c0 .2 0 .3-.3.3-.6 0-.7-.2-.8-.8 0-.4 0-.6-.3-.9l-.4-.4-.1-.2c-.2 0-.2.2.1.6.2.2.2.4 0 1-.1.5-.2.6-.4.6-.3 0-.3 0-.3-.5v-.4l.1-.3a.6.6 0 0 0 0-.2c0-.4-.4-.4-.7 0v.5l.3.5.1.4-.6.2-.5-.2V72l.1-1c0-.6 0-.8.2-1l.3-.4v-.3h-.2l-.1.2c-.2 0-.2-.1-.2-.5 0-.8.7-1 1-.2v.3l.1-.3-.1-.7c-.2-.3-.3-.7-.3-2a128.2 128.2 0 0 0 .2-3.2c.1-.6.2-1 .5-1.6l.1-2c0-1.4 0-1.6-.1-1.3l-.2.9v1.2c0 .4-.2.8-.3 1.1l-.2 1.2-.2 1-.3 3-.2.8-.1.5a.8.8 0 0 1-.2.3c-.3.5-.2 1.1-.2 1.4l-.2.2a.8.8 0 0 1-.4-.7c0-.6.3-1.2.5-1.9l.2-.4c.1 0 .1 0 0-.2a5.5 5.5 0 0 1 0-3.3l.1-.8.2-.7c0-.4.8-2.4.7-2.7a.7.7 0 0 0 0-.4l.2-1a30.2 30.2 0 0 0-.4-9.5h.6c.6 0 1.3-.4 1.5-.9l.7-.5.4-.2v-.3l.2-.2m6 .2h.3c.2 0 .3 0 .3.5l.1.5v.3c0 .2-.6.1-.9-.2a1 1 0 0 1-.2-.7c0-.3 0-.4.3-.4m-8.8 0 .2.2.6.3c.4.1.4.3 0 .5q-.7.3-.7 0v-.3c-.2 0-.4-.5-.2-.6h.1m4.9.4c.2 0 .2 0 .1.3 0 .5.4.7.4 1.4.3 3.5-.4 8.6-1.4 11.8-.1.8-.4 1-.6.3v-2.1c.2-1.3.2-2.3.5-3.5l.1-1 .5-3.3.1-2.8c0-1 0-1.1.3-1.1m-20 0c.2.2.2 1 .2 5.2V54c0 .8 0 1-.3.3-.7-2.5-1-5.7-.6-6.5.1-.3 0-.6.7-1m10.3 0c.1 0 .3 0 .4.4l.3.5-.1.3a3 3 0 0 0-.4 1.5c0 .4-.2.5-.5.3l-.4-.8.1-1 .3-.7c0-.3.1-.5.3-.5m-9.2.2s.3 0 .5.2h1.3c.2-.2.3-.2.5 0 .5.2.2.4 1 1 .7 0 1.3 2.8.9 4.1-.4 2-.3 3-.1 4.8 0 .7.2 2 .7 2.7l.4 1 .2.8c0 .7-.2 1-.3.7-.5-1.4-.7-1.8-.1.6v.3l.2.7v1.3c-.2 1.1-.6 1.3-.7.3l-.2-.7a8 8 0 0 1-.2-.6c-.1-.6-.1-.6-.1.4l-.1 1.1-.3.6c0 .3-.1.5-.2.5l-.5-2.6-.1-.3c-.1 0-.2 0-.1.1a10.6 10.6 0 0 1 0 3l-.1.3c-.4 0-1.2 1.1-1.2 1.7l-.2.8v.5l-.2.6-.2.9v.4h-1.1c-.1 0-.2-.4 0-.6l.1-.4c.1-.3 0-.4-.2-.5-.3-.2-.5-.2-.7.2-.1.3-.1.4.1.8l.3.5H22v-.8c0-1 .5-1.6 1.1-1.6.6 0 .8.4 1 1.3v-.2l.2-1.2a.4.4 0 0 0 0-.4h-.4a1 1 0 0 1-.3.2c-.3 0-.4-.6-.2-1 .2-.6.4-.8.8-.7.3.2.4.1.9-.6.2-.4.4-.7.5-1.5l.1-1.3c0-.2-.1-.1-.1.2-.3 2-.7 2.6-1.5 2.8-.6.1-.7 0-.4-.6l.3-.8c.1-.5.3-.5.4 0l.1.4v-8.2a40.1 40.1 0 0 1-1.2-9.1c0-1 .3-2 .5-2m5.7.7.3.3s.2.5.6.6l.4.4-.4 1.1-.1 1c.2.5.2 4.6.1 5.5 0 .6-.1 1-.5 2.7 0 .4-.1.8-.3 1 0 .2-.2.2-.3 0-.1-.5-.3-1.7-.3-3 0-1 .1-1.5-.2-3l-.5-2.8v-1l.2-1.3v-.8l.5-.3zm18.7.3h.5c.5 0 .6.2.4.9 0 .3-.4.3-.8-.2-.3-.4-.4-.7-.1-.7m-33.4.4a38.6 38.6 0 0 0 .6 1.6c.3 1 .4 1.9.2 4 0 .8-.3 2-.1 3v.7c-.2.1-.2-.1-.3-.3a24.8 24.8 0 0 1-1-8.6.5.5 0 0 1 .4-.4.8.8 0 0 1 .2 0m19.4.4a.3.3 0 0 1 .1 0l.3.6v.5c-.4.4-.9 0-.6-.5V49c0-.1 0-.2.2-.2m-2.4.2.2.1c.1.1.2.3 0 .5s-.4-.4-.3-.5V49m5 0v.6l.4 2 .3.9c.2.5.3 1 .1 2.3a57 57 0 0 1-1 4c-.3 0-.4-.6-.7-2-.2-.8-.5-1.9-.4-2.9a76 76 0 0 0-.2-3v-1.2l.4-.2.6-.2c.1-.2.3-.3.4-.3M33 51c.2 0 .3 0 .5.2s.4.2.8.2h.5v1.3c0 1.4 0 3.2.2 4.9l.3 1.7c.2.6.2 1.8.7 2.6.1.3.2.9 0 1.5-.1.7-.2 1.4 0 2.1l-.1.6c-.4.6-.4 1.4-.6 1.7-.1.1-.2 1.1 0 1.5l.1.4.2.5c.3.3.4 1.3.2 1.6l-2.2.1h-2.1l-.1-.3a1.9 1.9 0 0 1-.1-.5L31 71v-.3l-.2-.2v-1c0-.6-.1-1-.2-1.1-.2-.2-.2-1-.1-1.8a5.9 5.9 0 0 0 0-1.5l-.2-1c0-.7.2-2.3.4-3 .3-.9.3-1.2.4-4v-2.7a9 9 0 0 1 .1-3c0-.1.1-.3.3-.1l.6.2.6-.2a.3.3 0 0 1 .2-.1m-12.5 0v.3a42.7 42.7 0 0 1-.4 4.3 9 9 0 0 1-.3 2.8c-.3.7-.3 1.5-.6 2.2l-.5 2-.2.8c0 .2.1 0 .3-.4l.4-.8.8-2.5.6-2.4v-2.7a613 613 0 0 1 0-2.8v-.7m2.6 6.6c.3 0 .4.4.5.6-.2 1.8-.5 2.7 0 4.4.3 1 .4 2.5.3 2.9l-.2.4c0 .3-.8 1-1.1 1-.7 0-1 0-1.1.6a2 2 0 0 0-.3 1c0 .6-.3 1-.7 1-.3 0-.7.4-.9 1v1.7h-.5v-3c-.3 0-.4-.4-.2-.6.3-.2.7-.2.9.1.2.4.5.3.7-.3l.3-.7s0-.2.2-.2c0 0 .1-.1 0-.2 0-.1.2-1 .7-2L22 64c0-.8.2-1.6.4-2.4.2-.3.2-1 .2-1.7v-1.4a2.7 2.7 0 0 0 .1-.5c.1-.2.3-.2.3-.2m20 2.4c.2.2.4 1 .5 1.7.1.8.4 1.2.6 2.3v2c0 1.5.1 1.3-.7 1.2-.4 0-.8-.4-.9-.9v-.7a31 31 0 0 1-.1-1c0-.7-.4-1.3 0-2.2l.4-2c0-.3.1-.4.2-.4m-21.4 2 .2.1v.2l-.4.8s-.4.7-.4 1.5c0 1.3 0 1.3-.4 1.2-.2-.1-.2-.2-.2-1.3l.2-1.1c.2-.5.3-.8.6-1.1.1-.2.3-.2.4-.3m8 .1h.2c.2.3.6 3.4.4 3.5v.5c0 .3-.1.4-.3.4-.6 0-.3-2.1-.4-2.7 0-1.2 0-1.7.2-1.7m14.9.6c.4 0 1 2.5 1.2 3.1l.2.7c0 .2-.3.1-.5-.2l-.4-.3c-.2 0-.2-.2-.2-.7l-.3-1.8c0-.6-.2-.8 0-.8m-16.7 3 .3.1v.3c0 .3 0 .4.3.4.2.1.3.2.2.5a1.3 1.3 0 0 1-.2.6l-.3.5c0 .2 0 .2.2 0 0-.1.3-.3.5-.3.5 0 .7.2.3.6a2 2 0 0 0-.4.6l-.1.4.3-.3c.6-.6 1.1-.4 1.1.4l-.5.1c-.3 0-.7 0-1 .6l-.1 1c0 .5-.3.8-.6.7-.2 0-.2-.4 0-.7.3-.3.2-1-.2-1.3l-.2-.8c0-.8-.1-.9-.3-.2l-.3.5c-.1 0-.3 0-.4.2-.2.2-.2.2.2.3.3 0 .5.2.6.3l.1.4c.2.5 0 1.3-.4 1.3-.3 0-.4-.1-.2-.7.1-.6 0-.8-.5-.8-.4 0-.5.2-.4 1.2 0 .4-.1.5-.5.3-.3 0-.4-.8-.2-1.4l.2-.8.1-.5.2-.6c.1-.8.2-.9.5-1 .5-.2.7-.2.9 0 .2.2.5.1.4-.1l.1-1c.1-.6.2-.8.3-.8m-7.9.2c.3 0 .3.4-.2.8l-.4.4-.1-.5c0-.4 0-.5.3-.6h.4m21.9.3.3.3.4.7.3.4-.8-.2c-.3-.2-.4-.3-.4-.7 0-.3.1-.4.2-.5m-21.5.2c.2 0 .3 0 .3.6l-.2.8c-.3.7-.7.2-.6-.6.1-.6.2-.8.5-.8m24.6.2c.7 0 1.6 1.1 1.3 2-.1.2-.1.7-.3.7-.2 0-.2 0-.1-.7 0-.7 0-.8-.2-1-.2-.3-.3-.4-.6-.3h-.7c-.1-.1 0-.3.1-.5a.7.7 0 0 1 .5-.2m-15 .4.2.6a1 1 0 0 0 .2.5l.2.7c0 .5 0 .6-.2.6-.1 0-.2 0-.1-.2a.6.6 0 0 0-.1-.3V69l-.2-.4-.2-.7v-.5h.2m-6.6 0c.2 0 .2.2 0 .6-.2.1-.3.4-.3.5v.2c-.1 0-.2 0-.2.2s-.2.5-.5.8l-.5.4v2.2h-.4c-.2 0-.2 0-.1-.7 0-.8 0-1-.5-1-.4 0-.6.4-.4 1l.2.7-.3.2c-.2 0-.3 0-.4-.6-.2-1 .1-1.8.6-1.8.3 0 1-.4 1-.6l.4-1.3c.2-.5.3-.6.6-.6h.6a.6.6 0 0 1 .2-.1m-12.2.2c.3 0 .3.2 0 .6l-.2 1.1c0 .7 0 .8-.5 1.2l-.5.4v1c0 1.4 0 1.4-.5 1.6H9c-.2 0-.7-.7-.8-1.3v-.4l.4.6.4.4c.1 0 .3 0 .2-.1-.1-.2.1-1 .3-1.2.1-.1 0-.3-.4-.3a1.4 1.4 0 0 1-.5 0v-.2l.1-.2c.2-.2.5-.4.7-.3.2.1.2 0 .3-.2l.3-.8c.2-.3.3-.6.2-.7 0-.4.3-1 .7-1.2a.9.9 0 0 1 .3 0m34 .1h.3c.1.2.2.4.1.9l-.1.7c-.2 0-.2-.2-.2-.5 0-.2 0-.5-.2-.7l-.2-.4h.3m-7.8.1c.2 0 .2.1.3.3H37s.1-.2.4-.3M55 68c.5 0 .7.5.8 1.4v.8l.7.4c1.4.7 1.3.6 1.4 1.2 0 .7-.2 1.3-.4 1.3s-.2 0 0-.6c0-.5 0-1-.3-1-.1 0-.1 0 0 .2.2.3 0 1.2-.3 1.5-.3.4-1.1 0-.9-.3.2-.1.2-.5.2-1l-.6-.8a5 5 0 0 1-.9-1.6c-.2-.8-.3-.9-.7-1-.4-.2-.5-.3-.3-.3a10 10 0 0 0 .6-.1 2.4 2.4 0 0 1 .7 0m-11.6 0h.3c.6.1.7.2.8 1 0 .4.2.5.3.6.3 0 .4.4.1.6h.3c.6 0 .8.2.8 1 0 .2 0 .5.2.5v.4h-.5l-.2-.7c-.2-.5-.2-.5 0-.7v-.2l-.3.3-.3.3.3.4.3.5c0 .2-.2.2-.7.2l-.3-.1v-1c-.1-.7-.2-.9-.5-1.3l-.4-.8a1.6 1.6 0 0 0-.3-.6c-.2-.3-.2-.4 0-.4m-30.8 0h.3c.4.1.6.2.7.4l-.2.2-.2.3c-.3.4-.3.5-.3 1 0 .6 0 .6-.2.7-.6.3-1 1.1-.6 1.5.1.1-.3 1-.6 1l-.6.2c-.2 0-.2-.1-.1-.2a8 8 0 0 1 .1-.4c.2-.7.3-1 .1-1.2-.1-.2-.1-.2-.1.2s-.2.8-.4.8-.4-.5-.3-.6l.1-.7c0-.5 0-.5.4-.5l.6.2c.2.2.2.2.3 0v-.9c-.2-.6-.2-.7 0-1.1.3-.7.6-.9 1-.9M46.4 70c.1 0 .3 0 .5.2s.4.7.5 1.3c.1.5 0 .6 0 .8-.2 0-.3.2-.3.2a2.5 2.5 0 0 0-.3-.1h-.3v-.7c.1-.6 0-.7-.2-1.2l.1-.5m-17 0a.8.8 0 0 1 .7.4c.2.2.6 1.4.6 1.8 0 .2-.7.1-.8 0v-.6c.2-.4 0-1-.5-.9-.3 0-.4.2-.4.4l.1.4.4.7c0 .2-.6.2-.7 0l-.2-1 .3-.8a.7.7 0 0 1 .5-.3m11.2.5c.1 0 .3.3.3.6 0 .2-.2.4-.3.3v-.9m-17.5.2.1.4-.1.3c-.2 0-.4-.3-.2-.5q0-.2.2-.2m-2.3 0c.2 0 .3.4.1.8 0 .4-.2.3-.3-.1 0-.4 0-.7.2-.7m5.4 0c.2 0 .3.4.2.6 0 .3 0 .3-.3.2l.1-.8m11.6.1.3.3-.1.1c-.2 0-.3 0-.3-.2l.1-.2m-8.4 0c.2 0 .4.3.3.5 0 .3-.3.3-.5 0 0-.3 0-.4.2-.4m14 0 .2.3v.3l-.2-.1a3 3 0 0 0-.1-.3V71m13.5.6c-.2 0-.3.5-.1 1 .2.5.3.5.1-.1v-.7c.2-.2.2-.2 0-.2m-23 .8a9.6 9.6 0 0 1 9 13.1 10 10 0 0 1-11.1 6A10 10 0 0 1 24 85c-.8-2.4-.5-5.3.7-7.5a12 12 0 0 1 3-3.3c1-.8 2.4-1.3 3.7-1.6l2.4-.2m-4.3 0c.5 0 .4.3-.2.5-.8.3-.8.3-.5 0l.2-.3.3-.1h.2m-1 0h.2c.1.2-.6 1-1 1.3-.6.4-.7.4-.6 0v-.6l.2-.2a1.6 1.6 0 0 0 .4-.3l.7-.2m-1.5 0c.8 0 .8.1 0 .6-.3.2-.4.3-.4.7 0 .5 0 .5-.6.4-.3 0-.4 0-.4-.2 0-.7 0-.8.3-.9l.3-.3c0-.3.2-.3.8-.3m-1.7 0 .8.1-.5.5-.5.5a2 2 0 0 1 0 .3 2 2 0 0 0-.1.3l-.6.1c-.3 0-.5 0-.6-.2-.1-.3 0-.8.3-1.1l.4-.4h.8m-1.5 0h.2c.2 0 .3 0 0 .1l-.4.5c-.5.3-.5.3-.5.7v.4h-.4l-.7.1c-.2 0-.4-.2-.4-.5 0-.2.1-.5.4-.8.4-.5.4-.5 1.3-.5a8 8 0 0 1 .5 0m17.6 0c.6 0 .7 0 1.1.6.3.4.5.7.5 1 0 .2 0 .3-.6.3-.5 0-.6 0-.7-.3V74l-.4-.5c-.6-.7-.6-.8.1-.8m-1.8 0 .5.1c.5.2 1 .5 1 .8v.3c.2.1.2.4 0 .5-.4.4-1 .2-.9-.3.1-.2-.2-.5-.6-.9-.4-.2-.6-.3-.4-.4a1 1 0 0 1 .1 0h.3m-1.3 0c.3 0 .5 0 .9.4.8.7.5.8-.5.3l-.9-.6.5-.2m4.4 0a.7.7 0 0 1 .1 0l.6.1c.6 0 1.5 1 1.5 1.6l-.6.2c-.6 0-.6 0-.7-.4l-1-1c-.2-.2-.2-.4.1-.4m-21.3 0c.7 0 .6.1 0 .6-.3.3-.4.4-.3.7l-.1.4-.7.1c-.6 0-.6 0-.7-.2 0-.5 0-.8.4-1.2.3-.3.5-.4 1.1-.4h.3m-2 0 .6.1-.5.5c-.5.3-.5.4-.5.8v.5h-1.4V74c0-.4.2-.8.5-1 .1 0 .3 0 .4-.2.1-.1.3-.2.8-.2m-1.4 0v.3c0 .2-.4.5-.8.7-.2.1-.1.2 0 .5 0 .3 0 .4-.3.5h-.5c-.9 0-.6-.5 0-1.2.3-.3.3-.6.8-.6l.7-.1a.3.3 0 0 1 .1 0m28.7 0h.3c.7 0 .8 0 1.3.6.4.4.5.6.5.9 0 .4 0 .3-.5.3-.3 0-.5-.1-.5-.2 0-.3-.4-.7-1.1-1q-1-.6 0-.6m-2.2 0h.5c.9.1 1.6.6 2 1.2l.2.4v.2h-.6l-.6-.1-.4-.2c0-.2-.3-.5-.6-.8a4 4 0 0 1-.7-.7h.2m3.8 0h.8c.5.1.6.2.9.5.2.3.3.5.3.9v.5h-1l-.1-.5-.3-.6c-.2 0-.3-.3-.4-.5-.2-.1-.4-.2-.2-.2m-32.7.1h.4c0 .2 0 .4-.3.5-.4.3-.5.4-.5.8s0 .4-.5.5c-.4 0-.5 0-.5-.2-.1-.4 0-.8.4-1.2.2-.2.3-.4.5-.4h.5m35 0h.3c.4 0 .4 0 .7.4l.6.8v.3c0 .3 0 .3-.5.3s-.6 0-.7-.4a1.6 1.6 0 0 0-.5-.8c-.3-.2-.4-.5-.2-.5a4 4 0 0 1 .3 0m1.5 0a1 1 0 0 1 .2 0l.7.2a1 1 0 0 1 .8 1c0 .5-.3.6-.7.5-.2 0-.3-.2-.3-.4 0-.3-.4-.7-1-1.2h.3m-38.2 0h.3s.1.2 0 .4c-.4 0-.5.3-.5.3v.8c0 .1-.1.2-.3.2-.4 0-.5-.1-.5-.6 0-.4 0-.5.3-.8.2-.2.4-.3.7-.3m-1.2 0c.2 0 .4 0 .4.2l-.3.3c-.2 0-.4.2-.4.4 0 .4-.1.6-.5.6h-.4V74l.4-.6.8-.2m41.2.1c.5 0 1.5.4 1.5.6.1.2 0 .7-.1.7l-.1.1c0 .2-.1.2-.3.2h-.3a9 9 0 0 1 0-.3c-.1-.4-.3-.7-.6-.9-.5-.2-.5-.4 0-.4m1.5.1.5.1c.4.2.7.6.7 1 0 .2-.3.5-.5.4-.2 0-.2-.1-.2-.3q0-.4-.3-.7-.4-.4-.2-.5m-44.3.1v.5l-.2.1c-.1 0-.3.1-.2.3 0 .3 0 .7-.3.7s-.4 0-.4-.2c-.2-.5-.2-.5.1-1l.8-.4h.2m45.7.2c.2 0 .8 0 1 .2v.7l-.1.2c0 .1 0 .2-.4.2s-.5-.2-.3-.5l-.1-.5c-.2 0-.3-.2-.3-.3h.2m-46.8 0-.3.3c-.4.4-.5.5-.5.9.1.7-.1.5-.3.5-.2 0-.3-.1-.4-.5v-.7l.6-.3c.3 0 .4-.2 1-.2m16.2 1c.4 0-.5.7-.6 1-.2 0-.3.2-.7.7-.1.3-.2.1-.1-.2v-.6l-.4-.5H24c-.3.5-.4.8-1.4 1.7-.4.4-.8.7-1.2 1.5l-.3 1v1l.1.8c0 .6.1.6-.4.7a3.5 3.5 0 0 1-1-.2l-1.3-.3-1.9.1-.4-.1c0-.2 0-.3-.2-.5l-.3-.7v-.6c-.2-.1-.2-.3-.2-.4 0-.3-.2-.5-.4-.7v-.2c0-.2 0-.4-.2-.6v-.2c0-.2 0-.5-.2-.6l-.1-.4c0-.3-.4-.7-.7-.8l-.2-.4h.3l1.3-.1A70 70 0 0 0 18 75l6-.1h.5l.8-.1.8-.1m20 .1c.3.1.2.2.1.3-.3.3-.3.4-.3.8 0 .6 0 .6.5.8 1.2.3 1.6-.8 1-1.6-.3-.3.6 0 .8.2s.2.3.2.8 0 .7.2.4l.2.1c.3.3.2.7-.2 1-.3.3-.3.3 0 .3.6-.2.8-.8.4-1.5l-.3-.3-.1-.6c-.3-.4-.2-.4.7-.3l1.7.1 1.1.1c.6.3 1 .6 1.4.6 0 0 .9.5 1 1.2v2.4l.1 2.2h-.4a5 5 0 0 0-1-.2c-.7 0-1.3-.2-1.3-.5s.3-.8.5-1c.2-.3 0-.3 0-.3-.2 0-.3-.1-.3-.2 0 0-.2-.6-.6-.8-.6-.4-1.3-.5-1.7-.3-.3.2-.6 0-.6-.4 0-.2-.1-.2-.2 0 0 1-.2 1.3-1 2-.4.2-.5.2-.8 0h-.5l.2.1.4.2c.1.2 0 .3-.2.6-.4.4-.6.9-.5.9l.3-.4c.3-.4 1-1.1 1.2-1.1.2 0 1.1-.6 1.1-.8l.5-.5c.6-.4 1.1-.5 1.7 0 .6.3.5.7 0 1.5-.7.8-.8 1-.4 1.2l.3.6c.2.5.1.3.3.2l.2-.2.6-.3c.5 0 1.8.1 2.2.3.3.1 1.2 2 1.2 2.4 0 .4-.2 1-.3 1v.3c0 .2-.2.3-.3.5s-.2.1-.2 0l-.2.2-.1.2c.1.3-.3.9-.8 1.2l-.5.4c0 .4-.2 1-.3 1.1l-.2.7c0 .4 0 .4-.4.5H52c-.4.1-.7-.1-.6-.4 0-.2.1-.3.2-.3V90c0-.2.2-.2.3-.3l.4-.9.5-.9.2-.3.5-.5c.3-.3.4-.5.4-.7 0-.2 0-.2-.1 0-.2.3-.8 1-1 1h-.4l-.2.4c.2.2 0 .5-.1.6-.2 0-.2.2-.1.4 0 .3 0 .5-.4 1l-.6.5c-.2 0-.2 0-.2.2q.1.5-.6.5l-.4-.1c-.3-.2-.3-.6-.3-.6 0-.5.1-1.3.4-1.9l.2-.8c0-.8 0-1 .6-.7 1.2.4 2.1.1 3-.9l.5-1-.4.4c0 .2-.8.9-1 .9h-.3l-.6.2c-1.6 0-1.8 0-1.4-.5.7-.6 1-2.3.7-3.1-.3-.7-.5-.7-.4-.1.2.6-.1 2-1 3-.2.2-.4.4-.3.6h.4l.1.2v.8l-.3.7c-.2.1-.4 1-.5 1.7 0 1.2 0 1.2-.9 1.2h-1l.3-.5c.4-.5.4-.4.2-1.2 0-.6-.3-.7-.3-.2l-.3.9a7 7 0 0 0-.4.8c-.1.3-.5.3-.5 0l.1-.2.2-.3c0-.2 0-.6.4-.9.3-.3.3-.9.3-1 0-.2 0-.3.2-.3s.5.4.8 1l.2.4V89a2 2 0 0 0-.5-1.5c-.2-.3-.3-.4-.2-.8v-.4c-.1 0-.5.9-.4 1 .2 0 .1.5-.1.6-.2.1-.2.3-.2.6s-.1.5-.5.9l-.4.6s-.2.9-.4 1c-.2 0-1.4.1-1.6 0 0 0 0-.2.3-.5.7-.6 1-1 1-1.2 0 0 0-.3.2-.5s.2-.4.3-1.1l.2-1c.4.3.7.4 1-.2a3 3 0 0 0 1-2 1.8 1.8 0 0 1 .3-.5l.1-.5c0-.3-.6 1.2-.8 1.7-.2.4-.8 1.3-1.1 1.3-.4 0-.5-.4-.2-.8l.6-.8.4-.6.3-.4.8-1.3c.3-.4.3-.6.2-.6l-.9 1.1c-.2.6-1.3 2.2-1.5 2.4l-.4.2-.2-.3c-.4-.4-.4-.5-.1-.5l.5-.5.6-.6c.4-.2.8-.7.8-1 0-.2.2-.5.5-.8l.3-.5c-.2 0-.7.6-1 1.2-.1.4-.3.7-1 1.3-.6.5-.9.6-1.1.4-.3-.2-.1-.6.2-.6.2 0 1-.8 1-.9l-.5.3c-.3.4-.5.5-.8.3-.3 0-.2-.3.3-.5.4-.1 1-.5.9-.6l-.3.1a1 1 0 0 1-.7.2c-.3 0-.3 0-.3-.2 0-.3 0-.3.4-.4.5-.1.8-.4.8-.7 0-.1 0-.1-.2 0-.1.4-.7.7-.9.5v-.4c0-.2 0-.3.4-.3.4-.1 1.1-.5 1.1-.6h-.3l-.4-.1c-.2-.2-.2-.2-.1 0 0 .4-.6.6-1.5.4l-.2-.2.1-.2a.9.9 0 0 1 .4 0c.5.2.6.2.7 0 .3-.2 0-.7-.5-.7l-.5-.1c0-.1-.2-.3-.4 0v1c0 .2.1.3.3.4.2 0 .2.2.3.5l.2 2c.2 1.1.4 1.8 1 2.7.2.1.2.2.1.5v.7c0 .3-.2.6-.3.8-.1.2-.3 1.3-1 1.6-.2.5-.3.5-.6.9-.2.3-.3.3-1.3.3l-2.8.1a22 22 0 0 1-1.3 0H38l.8-.5a10 10 0 0 0 3.7-13.8l-1.4-2h3.7c.3 0 .5 0 .3.2-.2.3-.3.5-.3 1 0 .3 0 .6.2.8a3 3 0 0 1-.3.4c-.2.4-.3.5-.2 1v.8c-.2.3-.3.4 0 .3h.5c.4.1.3-.1 0-.4-.4-.4-.3-1.7.4-1.9h.2l-.2-.3a1 1 0 0 1-.2-.7c0-.7.3-1.3 1-1.3m-33.8 0c.3 0 .3.1.4.3.2.3.2.5 0 .8l-.1.2s.2-.1.3-.4c.3-.3.4-.4.7-.3v.7l-.2.4.3-.3c.2-.4.5-.3.5.2 0 .2 0 .4-.2.6-.4.3-.3.4 0 .2.7-.4.8.3.2.8l-.3.3.4-.2c.2-.2.3-.3.4-.2.2 0 .1.6 0 .9-.3.2-.3.2 0 0h.3c0 .1.2.4.1.5l-.1.2c-.9.7-.1.3.2.2.4 0 .3.6-.2 1l-.1.2.4-.2c0-.1.3-.2.4-.1.2 0 .2.1 0 .5 0 .3-.2.3-.5.3H15c0 .1.3.2.7.1.6 0 .7 0 .7.3 0 .2 0 .2.3.1l.7-.2c.6-.3 1.5.1 2.7.4 1.2.3 1.5-.1 1.6-.4.2-.3.3-.6 0-1.5a3 3 0 0 1 .1-1.9c.4-.8.8-.9 1.4-1.7.1 0 .6-.4 1-1 0-.3 0-.3.3 0 .2.4 0 1.2-.6 1.5l-.5.3c-.5.1.1.2.4 0h.2c.7-.5.6-.2.2 0-.6.5-1.5 1.2-1 1 .3-.2 1.2-.9 1-.5-.2.3-.5.3-.7.5l-.3.3c-.9.8-.5.5 0 0l.4-.1c.3-.1.3.3 0 .7l-.8.6c-.1.2-.2.3.3-.1l.3-.2c.2 0 .2 0 .1.3 0 .1-.1.5-.3.6-.6.6-.8.7 0 .3.1-.1.2 0 .1.2l-.2.5c-.6.5-.6.5 0 0 .2 0 .2.2 0 .7 0 .2 0 .4-.2.4l-.5.1c-.4.3-1.6.4-1.6.2h-.1c-.1 0-.1 0 0 .2 0 .2-.3.3-.5.1a.7.7 0 0 0-.3 0c-.2 0-.2 0 0 .1l.2.2.2.4c.2 0 .2.2.1.2v.8c0 .5 0 .8.1.3.1-.4.4-.2.4.3v.5l.7.5c.4.4 1.2.8 1.4.6 0 0 .2 0 .3.2v.6l-.2.5.2-.2c.1-.3.4-.2.4 0l.5.8c.5.5.5.7.5 1.1 0 .5 0 .6-.4.7h-.7c-.7.1-.8 0-.5-.5.1-.3.2-.3.4-.3.2.1.2 0-.2-.4L23 89c0-.3-1-1-2-1.6-.7-.4-1-.5-1.6-.5a5 5 0 0 1-2.7-1.3l-.3-.3.1.3c.1.3.1.4-.2.6-.4.3-.9.5-1 .3-.2 0-.3-.1-.2-.2L15 86l-.8-.3c-.6-.3-1.1-.8-1.1-1 0-.2 0-.3-.2-.5-.2-.3-.2 0 0 .7s.1 1-.4 1.6c-.6.6-.9.7-1.6.7-.4 0-.7.1-.7.2l-.1 1c0 .7.2 1 .4.8.1-.1 0-.2 0-.4-.3-.4-.2-.9.1-1l.5.1c.4.2.6.2.5-.2-.1-.4.3-.7.5-.5.3.3.4.2.4-.2l.3-.5c.3-.2.4-.2.6 0 .5.2 1.4.1 2 .3.5.1.8-.2 1.2-.1.4-.1.5 0 .7.1.2.2.2.3.1.4-.1.2 0 .2.3.2.8-.1 2 .3 2 .7 0 .3.3.3.4.1 0-.2.6 0 1 .4.4.5.4 1.3-.1 1.4-.2 0-.2 0-.2.2l-.1.6h-2.1a50 50 0 0 1-2 .1h-3.2c-.6 0-.8-.1-1-.2-.1 0-.4-.2-.6-.5-.1-.1-.4-.6-.3-1 0-.4 0-.5-.2-.5s-.2 0-.2.4.2 1 .2.7l.3.8c0 .2-.1.2-.8-.1l-.8-.3c-.6 0-1-.7-1-2 .1-1 .3-1.5.5-1.5l.4-.3c.3-.3.7-.3.8 0 .1.1.1.1.1 0l.2-.4c.2-.2.2-.2 0-.2-.4 0-.6-.4-.6-1l.2-.8c0-.5.1-.7.4-.9.3-.1.5-.6.4-.7l-.2.1c0 .5-.4.4-.5-.1-.1-.7-.1-1.6 0-1.6l.1-.5c0-.2 0-.4.2-.5l-.1-1.8-.4-.8.1.5c.3.6.3 2 0 1.9-.3-.1-.3 0-.1.2.1.4 0 .8-.3.8-.2 0-.8-.7-.9-1l.1-.6c.4-.4.4-.7.3-1.2v-.5c.2-.1.3-.2.1-.3-.1-.2-.1-.4.1-.7a1 1 0 0 0 .2-.5c0-.3.3-.5.7-.6.3-.1.3-.3 1-.3h.7m34.5 0c.4 0 .6.8.3 1.2-.1.2-.3.3-.6 0-.4-.2-.2-1.2.3-1.2m-21.7.1c-.2 0-.3.2-.2.3h.3l-.1-.3m.6 0v.4h.2l-.1-.2m-2.8.2c-.2 0-.2.1-.1.2l.3-.1-.2-.1m-1 0v.3s.3 0 .2-.1l-.1-.1m-.8 0s-.2 0-.1.1l.2.1.2-.1-.3-.1m21.3 0-.3.1.3.1.2-.1-.2-.1m-22 0-.1.2v.1l.2-.1-.1-.2m-.8 0-.1.2.1.2.2-.1c0-.2-.1-.3-.2-.3m23.8 0a.2.2 0 0 0-.2.1c0 .3.3.3.5.1v-.1a1 1 0 0 1-.2 0 .2.2 0 0 0-.1 0m-25.4 0a.2.2 0 0 0-.1 0l-.1.3c0 .3.3.3.4 0l-.2-.3m.7 0-.1.3c0 .2 0 .2.3 0 .1 0 .1 0 0-.2a.2.2 0 0 0-.2 0m39.5 0h.3c.3.2.3.5 0 .5l-.2.1.2.1.4.1c.2.1 0 .5-.1.5-.3 0-.2.2 0 .3.4.1.5.6.2.6v.2l.1.2c.3 0 .3.2.1.5-.2.3-.2.3 0 .5l.3.1v.6h-.3l-.2.1.2.1c.2 0 .4.4.3.7 0 .3 0 .4-.2.4s-.2 0 0 .2c.4.3.5.7.2.8-.2 0-.3 0 0 .2.1.1.2.6 0 .7-.2 0-.2.2 0 .4l-.1.3c-.2.2-.3.3 0 .3.1 0 .2.3 0 .4-.1.1-.3.3 0 .5l-.1.3h-.2c0 .1.1.3.2.2.1 0 .2.2 0 .4-.4.1-.3.3-.1.4.2 0 .1.3 0 .4-.3 0-.3.1 0 .2v.4l-.1.2-.2.1c0 .1 0 .2.2.2l-.1.2a1.1 1.1 0 0 0-.2.5c0 .2 0 .4-.2.5-.2.2-.2.2-.3 0l-.1-.4a49.5 49.5 0 0 0-.4-12 7 7 0 0 1-.1-.8c0-.1.3-.3.5-.3m-51.4.1.4.1.4.2.5.3.6.4c.4.3.4.4.3.7v.7c.1.2.2.3 0 .6 0 .4-.4.7-.4.4a28 28 0 0 0 0-.7c-.2-1.4-.2-1.4-.7-1.7-.6-.3-1.3-.7-1.3-.9 0 0 .1-.1.2 0m10.4 0c-.2 0-.5.2-.4.3h.5c.2-.1 0-.4-.1-.4m-2.8 0-.1.3q0 .2.2.2t.2-.2c0-.2-.1-.3-.3-.3zm.8 0-.2.4c0 .2.4.3.6.1l-.1-.3-.3-.2m1 0-.2.3c0 .2.5.2.6 0h-.1l-.2-.2m33 0c-.2-.1-.3.2-.1.4.1.2.3 0 .3-.2 0-.1 0-.2-.2-.3m.8 0s-.2.2-.1.4c0 .2 0 .2.2 0 .2-.1.2-.2 0-.3m.8 0q-.2 0-.2.3 0 .2.2.2.3 0 .3-.2 0-.3-.3-.3m4.8.3.3.1c.4.2.4.3.5 2l.2 1.4v.7l.2-.6v-1.3A18 18 0 0 1 57 77c0-.5 0-.5.2-.5.5 0 .6.3.6 1.3l.2 1.9a27.1 27.1 0 0 1 .1 6.9l-.2 2c-.1.9-.1 1-.4.9-.1 0-.2-.3-.2-1.7V86c-.2-.1-.3 1.2-.2 2.9l-.1.7c-.2.2-.4.2-.5 0V89a81.4 81.4 0 0 0-.3-1.8c0 1.2 0 1.7-.3 1.7l-.2-.7-.2-.8c0-.2.2-1.5.4-1.7l.3-.8c0-.3 0-.4-.3-.9l-.4-.5c0-.2-.3-.9-.5-1-.1-.2-.2-.5-.1-1v-1a69 69 0 0 1 0-1.4c-.1-1.4 0-1.8.4-1.8.2 0 .3.6.3 1.8l.1.9.2.5c.2.7.2 0 0-1.7v-2.5l.1-.2m-45.4.1-.2.3c0 .1.1.2.3 0l-.1-.3m-4.9 0 .4.3c.3.4.7 1.4.9 2.2a37.5 37.5 0 0 1-.1 10l-.3.8-.1.1c-.3 0-.3-.3 0-1.1l.2-1.9v-1l-.4-.3c-.2-.3 0-.5.2-.4.3 0 .2-.2 0-.3-.3 0-.3-.3 0-.5.1-.2.1-.4-.2-.6 0-.4 0-.5.2-.5l.2-.1-.2-.1c-.2 0-.4-.4-.3-.6a.7.7 0 0 1 .3-.2c.2 0 .3-.4 0-.4-.2 0-.2-.2 0-.4.4-.2.4-.4 0-.4s-.5-.3-.1-.5l.2-.1-.2-.1c-.3-.2-.3-.5 0-.7l.2-.2h-.2c-.4 0-.5-.4-.2-.6l.3-.2h-.3c-.3 0-.4-.2-.2-.5.1 0 .1-.1 0-.1-.4 0-.4-.4-.1-.5.2 0 .2 0 0 0a1 1 0 0 0-.1 0c-.4 0-.5-.3-.4-.7l.3-.3m5.5.1-.3.4h.1c.2 0 .4-.3.3-.4m32.5 0-.3.3c0 .1.3 0 .4 0v-.2h-.1m-1.2 0s-.2 0-.2.2l.2.2c.1 0 .2-.2.1-.4m-20.4 0s-.3 0-.3.2h.3c.1 0 .2-.1.1-.2m-1 0a.2.2 0 0 0-.2 0v.3c.2 0 .4 0 .3-.2a.2.2 0 0 0-.1 0m-2.4 0-.1.3c0 .2.1.3.2 0v-.3m1.5 0-.1.2c0 .2 0 0 0 0h.2v-.2m-.8 0-.2.3h.3v-.2a.2.2 0 0 0-.1 0m-4.3 0c-.2 0-.2.2-.2.4 0 .3.2.3.3-.1l-.1-.2m.8 0h-.1v.2c-.1.2 0 .2 0 .2.2 0 .3 0 .3-.2 0-.1 0-.2-.2-.2m1 0c-.1 0-.2 0-.2.2l.1.2c.1 0 .2 0 .2-.2 0-.1 0-.2-.2-.2m.9 0c-.2 0-.3 0-.2.2.2.1.3 0 .4-.1l-.2-.1m33 0c-.2 0-.3.2-.2.5l.5-.1v-.3a.4.4 0 0 0-.3-.1m-1.7 0v.3c0 .1 0 .1.2 0s0-.1 0-.3h-.2m-42.2 0c.3 0 .5.8.6 2l.2 1.2v-2.7c.3 0 .6 1.3.6 3 0 .2 0 .2.1 0 0-.2.2-.3.2-.3l.6 1.2c0 .1 0 .2.2.1.2 0 .2 0 .2 1.2v1.3l-.5.1c-.6.3-.7.4-1.1 1-.4.5-.4.6-.4 2V89l-.3 1.8c0 .1-.3.2-.5.1v-1.6l.1-.6.2-1.8a72.2 72.2 0 0 0-.3-8.6c-.1-1.3 0-1.8.2-1.7m43 0a.2.2 0 0 0-.1 0v.4c.2.2.4.1.4-.2l-.3-.2m-38.5 0c-.1 0-.5.5-.5.7 0 .2.2 0 .4-.3v-.3m40.4 0c-.1 0-.2 0-.2.2s0 .2.3.2c.2 0 .2 0 .2-.2l-.3-.2m.9 0c-.2 0-.3.2-.3.4.1.2.4.2.5 0 .1-.1 0-.4-.2-.4m7.2.6c.3 0 .5.1.6.8.2.9.3 2 .3 3.6 0 2.1-.1 3.3-.4 4.4 0 .2-.2.3-.3.3a46.3 46.3 0 0 0-.1-5 184 184 0 0 1 0-3.3l-.2-.8h.1m-13.2 0-.9.4-.3.5.4-.2.9-.4c.6-.2.6-.2 0-.3m-3.5 0-.1.2.2.1c.2 0 .2 0 .1-.2a.3.3 0 0 0-.2 0m-31.5 0-.1.3c-.1.3-.2.6-.1.7l.3-1m9 .2v.2h.2l-.1-.2m-4 0-.1.3c0 .3 0 .3.3.2.2-.1 0-.5-.2-.5m1.8 0-.3.4h.2q.2 0 .2-.2v-.2m1.4 0a.2.2 0 0 0-.2.2c0 .2.3.2.4 0 0-.1 0-.2-.2-.2m29 0c-.2 0-.2.2-.1.4.1 0 .3 0 .3-.2a.2.2 0 0 0-.2-.2m.8 0c-.2 0-.3 0-.2.2 0 .3.3.3.3 0l-.1-.2m.8 0c-.2 0-.3.2-.2.4 0 .2.3.2.4 0 0-.2 0-.4-.2-.4m-34.8 0-.1.3c0 .4 0 .5.3.3V78c0-.2-.1-.3-.2-.3m3.3 0v.3c0 .2.1.2.2 0s.1-.1 0-.2h-.2m-1.5 0-.1.2c0 .2 0 .3.1.2.1 0 .2 0 .2-.2l-.2-.3m-2.6.1c-.2 0-.2 0-.2.3 0 .4.4.4.4 0 0-.2 0-.3-.2-.3m36.5 0-.2.2v.3c.2.2.5 0 .5-.2 0-.1 0-.2-.2-.3a.5.5 0 0 0-.1 0m.8 0v.3l.1.3.2-.3c0-.1 0-.2-.2-.3m1 0a.2.2 0 0 0-.2.1v.3c.2.2.4.2.4-.1 0-.2-.2-.3-.3-.3M5.7 78l.1.4c.1.4.2.7.2 3.1l.1 1.7V85c0 2-.2 2.8-.5 2.5L5.5 84a348 348 0 0 0 0-4.5c-.1-1.2 0-1.7.2-1.7M47 78a.8.8 0 0 0-.2.1c-.3.2-.8.8-.6 1l.2-.3a.8.8 0 0 1 .4-.4c.4-.2.5-.2.5 0s0 .3-.4.5c-.3.1-.4.3-.3.3.3 0 .3 0 .7-.3.4-.2.4-.3.3-.5a.6.6 0 0 0-.6-.3m-34.3.3c-.1 0-.5.6-.5.8 0 .3 0 .3.3-.2.3-.4.3-.6.2-.6m31 .2h-.1l.1.2c0 .1.2.1.2 0l-.1-.2h-.1m9.4.2-.2.3.2.3c.1 0 .2 0 .2-.3s0-.3-.2-.3m-1 0-.1.2v.3c.2.2.5 0 .5-.2 0-.1-.1-.2-.3-.2m1.7 0q-.2 0-.2.2c0 .2.1.2.3.2.2 0 .3-.3 0-.3a.5.5 0 0 0-.1 0m-34 0c-.2 0-.3.2-.2.3l.2.1c.1 0 .1-.3 0-.4m.7 0-.1.2.1.1.2-.1-.2-.1m-4.2 0-.1.3.1.3.2-.3c0-.1 0-.3-.2-.3m1 0c-.2 0-.2 0-.2.2l.1.2.2-.2c0-.2 0-.2-.2-.2m1 0c-.1 0-.2 0-.2.2 0 .3.2.3.3 0l-.1-.2m.7 0a.2.2 0 0 0-.1.1l.1.2c.1 0 .2 0 .2-.2a.2.2 0 0 0-.2-.1m24.7.1v.3h.2v-.2h-.2m-30.5 0-.6.8c0 .2.1.1.4-.3l.2-.5m39.9.6c-.2 0-.2.3-.1.5.1.1.3 0 .3-.3l-.2-.2m-39.4 0h-.1c0 .2-.2.4-.3.5l-.3.6c-.1.2-.1.2.2 0 .3-.3.7-1 .5-1.1m40.3 0c-.2 0-.2 0-.1.3 0 0 .1.1.2 0 .2 0 .2-.2 0-.3a.4.4 0 0 0-.1 0M18 80v.2c0 .2 0 .2.2.2.3 0 .3-.2 0-.3H18m27 0c.1 0 .3 0 .2.2l-.5.1.1-.3h.2m-27.7 0s-.2.1 0 .3h.3l-.1-.3a.2.2 0 0 0-.2 0m1.7 0s-.1 0 0 .1l.1.2.1-.2c0-.2 0 0-.2 0m.8 0h-.1l.1.2c.1 0 .2 0 .2-.2s0 0-.2 0m-3.3 0h-.1v.3h.1c.2 0 .2 0 .1-.3h-.1m-8.4 0v.2a.3.3 0 0 0 0-.2m12.5 0v.3l.2-.1-.1-.2m29.4.2c-.2 0-.3.2-.1.3 0 .2.3 0 .3-.1q0-.2-.2-.2m7 0a.2.2 0 0 0-.1.3l.1.1c.2 0 .3-.3 0-.3m-49 .1v.2c0 .3 0 .3 0 0 .1 0 .1-.1 0-.2m44.4.1-.1.2v.3s.2-.1.2-.3l-.1-.2m1.6 0c-.2 0-.3.1-.2.4l.2.1c.2 0 .2-.5 0-.5m-1 0-.2.3c0 .1 0 .2.2.2s.3-.1.3-.3l-.2-.2m-44.4 0v.3H9l-.1-.2m9.3 0a.1.1 0 0 0-.1.1v.2l.1-.2m29.8 0h-.2l-.4.6-.6 1-.2.4c.2 0 .8-.7.9-1a1 1 0 0 1 .3-.6c.3-.2.4-.5.2-.5m-34 0-.1.2a.9.9 0 0 1-.4.2c-.3.1-.4.4-.3.6l.2-.1.3-.4c.2 0 .3-.2.3-.3v-.2m6.6 0v.2l.1.2h.2c0-.1 0-.2-.2-.3h-.1m-.7 0-.1.2.2-.1v-.1m-3.5 0s-.1 0 0 .2h.1c.1 0 .1 0 0 0l-.1-.2m2.6 0a.3.3 0 0 0-.1 0c-.1.1-.1.1 0 .1h.2-.1m42.7.2c.2 0 .4 0 .5.2.2.4 0 1.2-.2 1.4-.3.2-.4.3-.5.1-.1-.1-.1-1.5 0-1.6l.2-.1m-4.7 0v.3s0 .1.1 0 .1-.1 0-.2l-.1-.1m-1.1 0-.1.2c-.1.2-.1.2 0 .2.3 0 .3 0 .2-.3H56m-47-.1v.2h.2l-.2-.2m-.8 0v.5l.1-.1v-.1a.1.1 0 0 0-.1 0m6.2 0c-.2 0-.4 1-.3 1l.2.2c.2 0 .2 0 .1-.4v-.8M9 82v.2a.1.1 0 0 0 .2-.1.1.1 0 0 0-.2-.1m48.3 0c-.2 0-.3.1-.1.2s.2.1.2 0a.2.2 0 0 0-.1-.2M5 81.9l.1 1.1c0 1.2 0 1.3-.4 1-.2-.2-.3-.4-.3-1l-.1-.7.3-.3a1.1 1.1 0 0 1 .4-.1m3.2 0v.2h.2l-.2-.2m47.9 0v.4c0 .2 0 .2 0 0V82M15 82v.4h.3l-.2-.3H15m-6.8.2v.2h.2l-.1-.1m.7 0v.2h.2l-.1-.2m48.2 0-.1.3c0 .2.1.3.3.2 0-.1 0-.4-.2-.4m-1.2.1-.1.1.1.2.2-.1-.2-.2M23 83c.2 0 .3 0 .3.3 0 1.2.4 2.3 1 3.3.4.9 1.1 1.8 1.8 2.5l1 1c.4.2.6.4.4.5h-2.4c-.1.1-.1 0-.1-.4 0-.5-.3-1-.6-1.3-.2 0-1-1.5-1-1.6 0-.1 0-.3-.3-.6s-.4-.3-.7-.3c-.5.1-.7 0-.6-.4 0-.3 0-.3-.3-.3s-.3 0-.4-.5l-.1-.7-.1-.7v-.6h.7l1-.1.5-.1m-15 .1v.2h.2l-.1-.2m.7 0v.2h.2L9 83m35.4 0a.1.1 0 0 0-.2.2h.2a.1.1 0 0 0 0-.2m12.8.3a.1.1 0 0 0-.1 0l.1.2a.1.1 0 0 0 .1-.1.1.1 0 0 0 0-.1m-1.2 0v.4s.1-.1 0-.2c0 0 0-.1 0 0M9 83.5v.2h.2l-.1-.2m-.9 0v.2h.2l-.1-.1m14.8 0a.1.1 0 0 0-.1.3h.2v-.3m-1.6 0v.3q0 .2.1 0c.1 0 0-.2 0-.2m.8 0a.1.1 0 0 0-.1.2h.1c.1 0 0-.2 0-.2m34.9.2h-.1l.1.2.1-.1-.1-.1m-13 0a.1.1 0 0 0 0 .2v.1a.1.1 0 0 0 .2-.1.1.1 0 0 0-.1-.1m-35 0 .5.1-.1.8c0 .7-.2.8-.4.7a.8.8 0 0 0-.5-.1h-.5c-.1-.2-.1-.3.2-.8l.5-.6a.4.4 0 0 1 .2-.1m-1.1.2v.2h.1v-.2a.1.1 0 0 0-.1 0m49.1.2v.4l.1-.2v-.2m-35 .3s-.1 0 0 0v.2l.2-.1-.2-.1m-.7 0a.4.4 0 0 0-.2 0c-.2 0-.2.1 0 .2s.3.1.4 0c0-.1 0-.2-.2-.2m21.9.2c-.2 0-.2 0-.2.2h.3l-.1-.2m.8 0-.2.1.2.1h.2s0-.2-.2-.2m13 .2-.2.1.1.2.1-.2v-.1m-1 .1a.1.1 0 0 0-.2.2h.1a.1.1 0 0 0 .1 0 .1.1 0 0 0 0-.2m-33.2.4-.1.1v.1c.2 0 .2-.2 0-.2m-.5 0a.1.1 0 0 0-.1.1v.1a.1.1 0 0 0 .2 0 .1.1 0 0 0-.1-.2m22.4.1c-.2 0-.3.2-.1.3.1.1.2 0 .2-.1a.2.2 0 0 0-.1-.2m-36 0h.4c.4.2.3.5-.2.7-.4.3-.5.4-.5 1.5l-.1.9v.6c.1.4 0 .7 0 .8-.2.2.2.3-.4.2-.3 0-.3-.1-.2-1l.1-2.2.1-1.4h.9m35.3 0c-.2 0-.2.2 0 .3l.2-.1a.2.2 0 0 0-.2-.2m-.9 0c-.2 0-.3.3-.1.4h.2c.1 0 0-.4 0-.4M24 87a.2.2 0 0 0-.2.1c0 .1 0 .2.2.1l.2-.1-.2-.2m19.5.2c-.3 0-.4.3-.1.4.2 0 .3 0 .4-.2 0-.2 0-.2-.3-.2m.8 0v.1c0 .1 0 .3.2.3s.2-.4 0-.4a.2.2 0 0 0-.2 0m.9 0-.2.1.2.2c.1 0 .2 0 .1-.1l-.1-.2m-2.4 0a.5.5 0 0 0-.1 0c-.2.1-.2.1-.2.3.1.2.3.2.4 0l-.1-.2M14 87c-.1 0-.2 0-.2.2q-.1.1.1.1l.2-.1-.1-.2m5.3 0h.3l.6.2a.5.5 0 0 0 .3.1c.2 0 1.8 1.1 2 1.5.3.3.4 1.2.2 1.2l-.1.2c0 .2-.2.3-.5.4l-.7.1c-.2 0-.5.2-.7 0 0-.2.3-.3.4-.4.5-.3.7-.9.4-1.5-.2-.4-.3-.5-1.3-1s-1.4-.8-.9-.8M13 87c-.1 0-.2 0-.2.2l.4.1c.3 0 .3 0 .1-.2a.4.4 0 0 0-.2 0m2.5 0c-.2 0-.3.1-.1.3l.3-.1c0-.1 0-.2-.2-.2m.9 0h-.2s-.1.2 0 .2c0 .2.2.2.3 0l-.1-.2m-1.6 0a.1.1 0 0 0-.1 0 .4.4 0 0 0-.2.2l.1.1a.4.4 0 0 0 .2-.2m35.5 0v.4a.5.5 0 0 0 0-.3m.8 0c-.3 0-.4.1-.3.3 0 .2.5.3.5.1v-.2c0-.1 0-.2-.2-.2m4 .1c.2 0 .3.1.3.3l.1.9V90c-.2.2-.1.3-.4.4l-.7.2c-.3 0-.2-.4-.2-.5 0-.1 0-.3.2-.3.2-.1.2-.6 0-1.2-.1-.3-.1-.4.2-.7q.3-.4.6-.4m-43.1.4c-.3 0-.4.2-.2.4h.3c.2-.1.2-.4-.1-.4m1 0c-.2 0-.3.2-.3.3l.2.2c.2 0 .3-.3.1-.4m29.4 0a.5.5 0 0 0-.2 0c-.2 0-.2 0-.1.3 0 .2.3.2.4 0V88m-26.2 0a.2.2 0 0 0-.2 0v.3c.1.2.3.2.3 0l-.1-.3M14 88c-.1 0-.2 0-.2.2l.2.2.2-.2c0-.1 0-.2-.2-.2m1.7 0c-.2 0-.4.2-.3.4.1.1.4 0 .4-.2l-.1-.2m2.4 0a.2.2 0 0 0-.1.2l.1.2.2-.2a.2.2 0 0 0-.2-.2m.8 0c-.2 0-.3.2-.2.3.2.1.4 0 .4-.1s0-.2-.2-.2m24.5 0c-.3 0-.4.2-.3.3.1.1.5 0 .5-.1l-.2-.2m-26.1 0-.1.2q0 .3.1.2a.2.2 0 0 0 .1-.2l-.1-.2M45 88v.2c0 .2.4.2.4 0L45 88m-1 0v.3c.1.3.4 0 .4-.1 0 0-.1-.2-.3-.2m-29.3 0-.2.2.1.2a.2.2 0 0 0 .2-.2l.1-.2m9.8 0-.2.2.2.2c.2 0 .2-.1.2-.2l-.2-.1m26.4.3c-.1 0-.2 0-.2.2 0 .3.4.3.5 0 0-.1 0-.2-.3-.2m3 0c.2 0 .3.8.1 1.3a2.4 2.4 0 0 0-.2.8c0 .2 0 .3-.2.3-.4 0-.5-.3-.3-1.1.2-1 .3-1.2.5-1.2m-3.8 0-.1.2.1.2.1-.2v-.2m-38 .4a.5.5 0 0 0-.3 0l-.1.3c0 .1 0 .2.2.2h.3V89c.1-.1 0-.2-.2-.2m1 0c-.2 0-.3.4-.1.5.1.2.3 0 .3-.2s0-.3-.2-.3m31.1 0-.2.2.1.2c.2 0 .3-.1.3-.2l-.2-.2m-1 0c-.2.1-.2.2 0 .3q.2.3.3 0c.1 0 0-.3-.2-.2M14 89s-.2 0-.2.2c0 .1 0 .2.2.2s.3 0 .2-.2c0-.1 0-.2-.2-.2m28.3 0q-.2 0-.2.3 0 .2.3.2t.2-.2-.2-.3zM15 89c-.2 0-.3.2-.2.3.1.2.3.1.3 0L15 89m.7 0-.2.1c0 .1 0 .2.2.2s.3-.3 0-.3m.9 0-.2.1c0 .1 0 .2.2.2s.2 0 .2-.2 0-.1-.2-.1m.9 0h-.3c0 .1 0 .2.2.2l.2-.1-.1-.1m.7 0h-.1l.1.2.2-.1-.2-.1m1 0h-.3c0 .1 0 .2.2.2l.2-.1-.2-.1m.8 0h-.1l.1.2.2-.1-.2-.1m1 0h-.2v.2l.2-.1V89m20.7 0q-.2 0-.2.2t.2.2q.3 0 .3-.2t-.3-.2m-16 .2a.2.2 0 0 0-.2.2l.2.1.1-.1a.2.2 0 0 0-.1-.2m25.5 0a.4.4 0 0 0-.1 0c-.3.1-.3.4 0 .5.1 0 .2 0 .2-.3l-.1-.2m-38.9.7a.4.4 0 0 0-.1 0l-.1.2.2.1h.2a.7.7 0 0 1 0-.2l-.2-.1m32 0q-.3 0-.3.2t.2.2.3-.2q0-.2-.3-.2zm-26.7 0-.1.2c.1.2.3.1.3 0l-.2-.2m25 0c-.1 0-.2 0-.2.2 0 .3.3.3.3 0l-.1-.2m.8 0c-.1 0-.2 0-.2.2 0 .3 0 .4.4.2.2 0 .2-.2 0-.3a.5.5 0 0 0-.2-.1m-23.4 0c-.1 0-.2 0 0 .2 0 .2.2.2.2 0V90a.4.4 0 0 0-.2 0m-.9 0-.1.2c0 .2 0 .1.1.1l.2-.1c0-.1 0-.2-.2-.2m-2.4 0c-.2 0-.3.2-.2.3.1.2.4.2.5 0 0 0-.1-.3-.3-.3m-2.4 0c-.2 0-.3.2-.3.3l.2.1c.2 0 .2 0 .2-.2V90m-1 0c-.2 0-.3.2-.3.3l.2.1.2-.1c0-.1 0-.2-.2-.2m1.7 0c-.2 0-.3.2 0 .3 0 0 .2 0 .2-.2l-.2-.1m1 0c-.3 0-.5.1-.4.3.2.1.4 0 .5-.1q0-.2-.2-.2m2.5 0-.1.1.1.1h.2c0-.2 0-.2-.2-.2m39.2 0c.4 0 .6.2.4.6-.2.2-.3.2-.6 0-.3-.4-.3-.6.2-.6m-15.8 0c-.2 0-.3.2-.2.3 0 .2.3.1.3-.1V90m-1 0-.2.3c0 .1 0 .2.2.2s.3-.1.2-.2c0-.2 0-.2-.2-.2m-.6 0a.6.6 0 0 0-.2 0l-.3.3c0 .1 0 .2.3.2l.3-.3-.1-.2m16.3.1c.2 0 .3.1.5.3.3.3.3.5 0 .7-.3.1-.4.1-.4-.2a.3.3 0 0 0-.2-.3c-.3 0-.2-.4.1-.5m-2 .4h.2l.1.1c.4.3.5.8.4 1-.2.2-.5.2-.5-.1 0-.2-.2-.4-.4-.6-.2-.2-.3-.3 0-.4h.2m1.2 0c.4 0 .6.4.5.6 0 .4-.6.5-.6.1 0 0-.2-.4-.1-.7a1 1 0 0 1 .2 0m-44.9.1.3.1-.3.4c-.2.1-.2.2 0 .3.1.3 0 .5-.3.5s-.9-.6-.9-.8c0-.2.5-.4 1-.5h.2m42.5 0 .6.3c.3.3.4.3.3.7l-.2.4c-.3.2-.4 0-.4-.3l-.2-.5c-.3-.4-.3-.6-.1-.6m-41.4.1c.1 0 .2 0 .2.2l-.1.2c-.1 0 0 .2 0 .4l.3.4H12a.8.8 0 0 1-.6-.2l-.3-.3.3-.3c.1-.2.4-.4.6-.4m14.6 0c.2 0 .2 0 .1.2a1.2 1.2 0 0 1-.4.2l-.7.4c-.4.3-.4.3-.4.7.1.5 0 .5-.7.4-.5-.2-.5-.2-.5-.7 0-.5 0-.5.4-.7.8-.3 1.1-.4 1.8-.4h.4m1.5 0a.8.8 0 0 1 .3 0l.3.1-.3.2-.9.5c-.5.2-.5.3-.4.5v.4c0 .2-1.2.2-1.4 0a2 2 0 0 1-.2-.4c-.1-.3 0-.4.2-.5l.7-.3q1.1-.5 1.7-.5m-14.7 0c.2 0 .2.3 0 .5-.2 0-.2.1 0 .3l.2.4c0 .2-.2.2-.6 0-.9-.6-.7-1.2.4-1.2m7.4 0c.3 0-.1.5-.2.6 0 .1 0 .3.2.5.3.4.1.5-.3.5-.3 0-.5 0-.8-.4-.3-.5-.1-1 .7-1.1h.4m31.7 0c.4 0 .6 0 .8.4v.7a.4.4 0 0 1-.3.2c-.4 0-.4 0-.5-.6l-.1-.5c-.3 0-.2-.3.1-.3M22 91c.5 0 .6.2.2.4-.4.2-.5.4-.3.9l.1.3c-.1.2-.4 0-.4 0-.4 0-.6-.3-.8-.7v-.3c.3-.4.8-.6 1.2-.6m-5.5 0c.4 0 .3.2 0 .4-.5.3-.6.4-.2.7l.1.3a.2.2 0 0 1-.2.1c-.7 0-1-.1-1.2-.5-.4-.7-.3-.8 1.3-1h.2m34.6 0a.5.5 0 0 1 .2 0l.3.1c.3 0 .5.5.4 1-.2.6-.4.5-.6 0 0-.3-.2-.6-.3-.7V91M24 91v.1c-.4.4-1 .6-.6 1 .3.4.2.6-.4.6-.4 0-.7-.4-.9-.9 0-.2.2-.4.7-.6L24 91m23 0 .8.3c.6.2.6.2.6.7l-.2.6-.3.2c-.2 0-.3-.1-.3-.6-.1-.4-.2-.5-.4-.7-.4-.2-.5-.5-.2-.5m3.3 0c.7 0 1 .6.8 1.2-.2.5-.6.5-.8 0l-.2-.6-.2-.2c-.2-.2 0-.4.4-.4m-1.2 0c.2 0 .3.1.5.3.2.3.3.4.2.7a6 6 0 0 0 0 .5c0 .3-.7.2-.7 0a.7.7 0 0 0-.2-.5l-.2-.3c0-.1 0-.2-.2-.3-.2-.1-.1-.2.4-.3h.2m-20.2 0c.2 0 .2.1 0 .4-.2.2-.3.3-.2.8v.2c0 .4 0 .4-.7.3-.4 0-.5-.1-.6-.4-.1-.4 0-.6.9-1l.6-.3m-11.5 0h.2c.2 0 .4.1.1.3-.1 0-.2.3.3 1 .2.2 0 0 0 0-.6 0-1.2 0-1.5-.8l.3-.3a1 1 0 0 1 .6-.2m-3.6 0a.6.6 0 0 1 .4.2l.4.6c.4.4.4.4 0 .4H14l-.2-.3s-.4-.5-.3-.7c0 0 .1-.2.3-.2m4.8 0h.5c.2.1.1.2 0 .3-.2.2-.2.2 0 .5.4.4.3.6-.1.6-.3 0-.4 0-.6-.3 0-.1-.3-.3-.3-.5-.1-.2-.1-.2.2-.4l.3-.2m19.4.1h.2c.2 0 .4.2.5.3l.5.3c.2.1.3.5.2 1-.1.2-.4.3-.8.1-.2 0-.4-.4-.4-.8 0-.2-.1-.4-.3-.5-.3-.2-.2-.4.1-.4m7.7 0c.8 0 1.2.3 1.3.7l-.1.6c-.2.3-.9.4-1 .2v-.4a1 1 0 0 0-.4-.6c-.4-.4-.3-.5.2-.5m-3.1 0 .4.1.5.2.3.3c.2.2.2.8 0 .8l-.6.2c-.4 0-.4 0-.4-.2v-.4l-.1-.5-.4-.4h.3m1.6 0 .5.1.5.5v.8h-.4c-.3 0-.5 0-.5-.4 0-.2.2-.3 0-.6l-.2-.2c-.3-.1-.2-.3 0-.3m-4.7 0 .9.3c.5.3.5.3.5.8v.5c-.2.1-.8.2-.9.1v-.4c0-.3-.2-.5-.4-.7l-.3-.4.2-.1m1.5 0a1.3 1.3 0 0 1 .2 0h.6c.6.2.8.5.7 1 0 .4 0 .4-.5.5-.6 0-.7 0-.7-.5l-.2-.7c-.2-.2-.2-.3 0-.3m-11.3.1h.3c.2.1.2.2.2.8v.6h-.5c-.5.1-.6 0-.6-.4 0-.6-.1-.6.1-.8.2-.2.3-.2.5-.2m7.3 0 .5.2c.3.2.4.3.4.7 0 .2 0 .4-.2.5-.2.2-.3.2-.7.1-.2 0-.2-.1-.2-.4l-.1-.7-.2-.3h.3a1 1 0 0 1 .2 0m-1 .2.4.2c.2.2.3.3.2.5l-.2.5c-.5.3-1 0-1-.5V92c-.2-.1-.1-.2 0-.2l.6-.1m-5.4 0h.2c.9.1.9.1.9.7v.5H31c-.4 0-.5 0-.6-.2a12 12 0 0 0-.1-.4c-.2-.4 0-.6.2-.6m4 .2.6.1c.1.2.2.6 0 .8-.1.3-1 .3-1.2.1l-.2-.5V92h.6a4 4 0 0 1 .3 0m-2.2 0h.3c.7 0 .7 0 .8.3v.5c-.1.3-1.2.2-1.5 0-.2-.2-.3-.7-.1-.8h.5m18.8 1c.2 0 .3.4.1.5-.3.2-.6 0-.4-.3a.4.4 0 0 1 .3-.2m-.8 0s.2.2.1.3c-.1.6-1.2-.1-.1-.2m-9.7 0c.4 0 .6.3.5.5 0 .3-.8.3-.9 0 0-.3 0-.5.4-.5m7.9 0c.2 0 .3.3 0 .4-.2.2-.3.2-.4 0 0 0 .2-.4.4-.4m-.9 0c.2 0 .4.2.3.5-.2.2-.3.3-.6.1v-.3a.5.5 0 0 1 .3-.3m-1 0 .2.1c.2.2.2.5 0 .6-.3 0-.4 0-.5-.2l.1-.3.2-.1m-10 0c.4 0 .5.1.5.4-.1.4-.2.5-.7.3-.6-.2-.6-.6-.1-.7a2.4 2.4 0 0 1 .4 0m-1.7 0h.3c.2 0 .3.1.2.4 0 .2 0 .3-.4.3-.5 0-.6 0-.5-.4 0-.2.2-.3.4-.3m14 0c.4 0 .9.5.2.5-.3 0-.4-.5-.2-.5m-11 0h.4c.3.2.1.6-.3.7h-.6c-.2-.1-.2-.5 0-.6l.4-.1m1.5 0c.4 0 .6.2.5.4 0 .1-.2.2-.5.2-.6.1-.8-.5-.1-.6h.1m6.2 0c.3 0 .4.1.3.4 0 .2-.3.2-.7.1-.3 0-.1-.4.3-.5h.1m-12 0c.7 0 .9.2.6.6-.2.2-1 .2-1.2 0-.3-.3 0-.6.7-.6m-1.7 0c.4 0 .5 0 .6.3v.4l-.2.1H32l-.5-.3c0-.3.2-.5.7-.5m9.6 0h.3c.4.1.5.1.5.4 0 .2 0 .2-.5.2-.4 0-.5 0-.5-.3 0-.2 0-.2.3-.2m1.4 0c.2 0 .4 0 .4.2s0 .3-.3.3c-.4 0-.6-.1-.4-.4a.4.4 0 0 1 .3-.1m1.3 0c.3 0 .5.1.3.3l-.5.2c-.4 0-.4 0-.4-.2s.1-.3.4-.3h.2m-17.1 0h.2c.3 0 .4.3.3.6 0 .2-1.1.2-1.2 0-.1-.4.2-.6.7-.6m1.8 0c.3 0 .3 0 .4.4v.4h-.6c-.5-.1-.9-.3-.9-.6l.4-.2h.7m1.3 0h.2c.4 0 .5.1.4.3 0 .2 0 .3-.6.3s-.7 0-.7-.2c0-.3.2-.4.7-.4m-4.5 0c.2 0 .4.2.4.5 0 .2 0 .3-.4.3-.3 0-.4-.1-.5-.3v-.3a.7.7 0 0 1 .5-.1m-1.2 0c.3 0 .4.2.4.4s0 .3-.3.3-.4-.1-.5-.3c0-.3 0-.4.4-.4m-1.1 0c.2 0 .4.2.4.4s0 .3-.3.3c-.5 0-.8-.3-.5-.6a.4.4 0 0 1 .4-.1m-9.9 0c.2 0 .4.2.5.5 0 .2 0 .3-.2.3a.5.5 0 0 1-.4-.5l.1-.2m1 0s.3.1.4.4c0 .2 0 .3-.2.3a.5.5 0 0 1-.4-.5l.1-.2m1 0c.3 0 .6.2.6.5 0 .1-.2.2-.5.2s-.4 0-.5-.3c0-.3 0-.4.4-.4m5.4 0c.3 0 .6.2.6.4s-.7.2-1 0c-.1-.2 0-.4.4-.4m1.3 0c.3 0 .6.1.6.3 0 0 0 .2-.2.2-.2.2-.7 0-.8-.3 0-.2 0-.2.4-.2m-2.4 0c.3 0 .5.2.4.5 0 .2-.4.2-.7 0-.2-.1-.2-.4.1-.5a.5.5 0 0 1 .2 0m-2.2 0a.5.5 0 0 1 .4.2c.1.2.1.3 0 .4-.3.2-.8.1-.8-.2 0-.2 0-.3.2-.3a.7.7 0 0 1 .2 0m-1.2 0c.3 0 .5.2.4.5-.1.2-.5 0-.6-.2-.2-.3-.2-.3.2-.3m2.3 0c.5 0 .7.3.4.5h-.7c-.2-.3-.1-.5.3-.5m31.8.4c.2 0 .2.1.3.2.2.1.3.7 0 1l-.6.3c-.4 0-.4 0-.3-.2l.3-.5v-.6l.3-.2m-4.7.1c.2 0 .4 0 .5.2v1.2c-.1.2-1.2.3-1.2.1v-.3c.2-.2.2-.3 0-.6 0-.4-.1-.5.1-.5h.6m-2 0c.8 0 .8 0 .9.3l-.1.8c-.2.4-.2.4-.7.4h-.6V95l-.1-.5c0-.2 0-.2.7-.2m4.2 0c.9.2 1.2 1 .4 1.3l-.6.2c-.3 0-.5-.3-.3-.5l.2-.6c0-.4 0-.4.3-.4m-6.2 0h.7l.2.7-.2.8h-.7c-.5 0-.6 0-.5-.6V95c0-.1 0-.2-.2-.3l-.3-.3zm-20.6 0c.4 0 .6.2.5.3 0 0-.2.5.1.8l.1.6-.5.1c-.6 0-.7 0-.7-.3a15 15 0 0 0-.2-.7c-.1-.6 0-.7.5-.8h.2m18.6 0c.6 0 .6.1.8.4.3.2.4.6.2 1 0 .1-.2.2-.6.2H40v-.4l.2-.6a.5.5 0 0 0-.1-.3c-.2-.1-.2-.2.1-.2m-14.5 0h.4c.2 0 .2 0 0 .2s-.3.3-.1.7v.6l-.6.2h-.6l-.2-.4c-.1-.4-.2-1.1-.1-1.2l1.2-.1m12.6 0h.5c.4 0 .6 0 .8.3.2.2.2.3.1.7 0 .3 0 .5-.2.5h-.6l-.3-.1v-.9l-.1-.3-.2-.2m-18.9 0c.5 0 .6 0 .6.6l.2.7v.3c0 .3-.7.2-.8 0-.2-.2-.4-.9-.4-1.4 0-.2 0-.2.4-.2m17.4 0h.5c.5 0 .6 0 .7.3l.1.7v.4h-1.2l-.1-.7zm-9.8 0c.6 0 .7 0 .8.7l.1.8c.1.2 0 .2-.4.2l-.8-.1c-.2 0-.2-.1-.2-.6-.1-.8 0-1 .5-1m-3.6 0 .6.1v.3c0 .3 0 .9.2 1v.2c-.1.2-1 .1-1.2 0l-.2-.6c-.2-.7 0-1 .6-1m12.6 0c.3 0 .2.2.3.3q.2.2.1.7v.6h-.6c-.7 0-.8 0-.8-.4l-.2-.7-.2-.4H36m-18.8 0h1v.5l.1.9c.1.2 0 .2-.2.2a.9.9 0 0 1-.7-.3c-.2-.2-.2-.3-.2-.8zm12.6 0V96h-1c-.2 0-.3 0-.3-.2v-.3l-.2-.6v-.3h.8zm.6 0h.5l.6.2V96l-.6.1c-.6 0-.6 0-.7-.3V95l.2-.4m3.7 0c.2 0 .2.2.4.6l.2.7q0 .2-.6.2c-.5 0-.5 0-.6-.6a8 8 0 0 0-.2-.6c0-.2 0-.2.5-.3h.3m-1.4 0c.2 0 .3.1.3.2l.1.8.1.5H32v-1.4h.8m-17.2 0c.2 0 .4.3.4.5 0 .3.2.5.4.8l-.4.1a.9.9 0 0 1-.8-.8c0-.3 0-.5.4-.5m78-45.7V25.2h8.6q2.4 0 4.2.9a6.5 6.5 0 0 1 2.9 2.5q1 1.7 1 4 0 2.5-1.2 4.3-1.2 1.7-3.3 2.5l5.5 9.6H107l-5.8-10.4 2.4 1.5h-6.3V49zm3.7-12.3h5q1.3 0 2.3-.5a3.6 3.6 0 0 0 1.4-1.4q.6-1 .6-2.2 0-1.2-.6-2.1a3.4 3.4 0 0 0-1.4-1.4q-1-.5-2.3-.5h-5zm22 12.7q-1.8 0-3.1-.6-1.3-.7-2-1.7-.8-1.2-.8-2.7 0-1.4.6-2.5.7-1.1 2-1.9t3.3-1l6-1v2.8l-5.3 1q-1.5.2-2.1.8-.7.7-.7 1.7t.7 1.6q.8.6 2 .6 1.4 0 2.5-.6a4.5 4.5 0 0 0 1.7-1.7 4.8 4.8 0 0 0 .7-2.4v-4.4q0-1.3-1-2.1t-2.5-.8q-1.4 0-2.5.7a4.4 4.4 0 0 0-1.6 2l-3-1.6a5.6 5.6 0 0 1 1.6-2.2 7.8 7.8 0 0 1 2.5-1.5 8.9 8.9 0 0 1 3.1-.6q2 0 3.6.8t2.5 2.1q.9 1.4.9 3.2V49h-3.5v-3.1h.7a6.4 6.4 0 0 1-1.5 1.9 6.8 6.8 0 0 1-2.2 1.2q-1.1.4-2.6.4m10.6 6.7-.7-.1a5 5 0 0 1-.8-.1v-3.1h1.2q1.4 0 2.2-.6.8-.7.8-2V31.6h3.6V50q0 1.9-.8 3.2a5 5 0 0 1-2.2 2q-1.4.8-3.3.8m2.7-26.7v-4.2h3.6v4.2zm13 20q-1.8 0-3.1-.6-1.3-.7-2-1.7-.8-1.2-.8-2.7 0-1.4.6-2.5.7-1.1 2-1.9t3.3-1l6-1v2.8l-5.3 1q-1.5.2-2.1.8-.7.7-.7 1.7t.7 1.6q.8.6 2 .6 1.4 0 2.5-.6a4.5 4.5 0 0 0 1.7-1.7 4.8 4.8 0 0 0 .7-2.4v-4.4q0-1.3-1-2.1t-2.5-.8q-1.4 0-2.5.7a4.4 4.4 0 0 0-1.6 2l-3-1.6q.5-1.2 1.6-2.2a7.8 7.8 0 0 1 2.5-1.5 8.9 8.9 0 0 1 3.1-.6q2 0 3.6.8t2.5 2.1q.9 1.4.9 3.2V49H151v-3.1h.8a6.4 6.4 0 0 1-1.6 1.9A6.7 6.7 0 0 1 148 49q-1.1.4-2.6.4m19.7 0q-2.7 0-4.7-1.3t-2.8-3.5l2.8-1.4q.7 1.5 2 2.4a4.7 4.7 0 0 0 2.7.8q1.3 0 2-.5t.9-1.6q0-.6-.4-1a2.6 2.6 0 0 0-.9-.7 4.8 4.8 0 0 0-1-.4l-2.8-.7q-2.2-.7-3.3-2a4.6 4.6 0 0 1-1.1-3q0-1.6.8-2.7.8-1.2 2.2-1.8 1.4-.7 3.2-.7 2.3 0 4.2 1.2 1.8 1.2 2.6 3.2l-2.8 1.4a4.2 4.2 0 0 0-1.6-2q-1.1-.8-2.5-.8-1.2 0-1.9.6a1.7 1.7 0 0 0-.7 1.4q0 .7.4 1 .3.5.8.7l1 .4 2.9.8q2.1.6 3.2 2 1.2 1.2 1.2 3 0 1.5-.8 2.7-.8 1.2-2.3 1.8-1.4.7-3.3.7m17.4-.2q-2.7 0-4.2-1.5-1.5-1.6-1.5-4.4V35h-3v-3.3h.4q1.3 0 2-.7.6-.7.6-1.9v-1.3h3.6v4h4V35h-4v8.2q0 .9.3 1.5t1 1q.6.3 1.6.3h.6l.6-.1V49l-1 .1a8 8 0 0 1-1 0m5.5-.1V24.8h3.6v10.3l-.6-.4q.7-1.7 2-2.5 1.5-.9 3.3-.9 2 0 3.4.9a6 6 0 0 1 2.3 2.3q.8 1.4.8 3.3V49h-3.5V38.8q0-1.3-.5-2.2a3.3 3.3 0 0 0-1.4-1.4q-.9-.5-2-.5-1 0-2 .5a3.5 3.5 0 0 0-1.3 1.4q-.5 1-.5 2.2V49zm23.9.4q-1.8 0-3.1-.6-1.3-.7-2-1.7-.8-1.2-.8-2.7 0-1.4.6-2.5.7-1.1 2-1.9t3.3-1l6-1v2.8l-5.3 1q-1.5.2-2.2.8-.6.7-.6 1.7t.7 1.6q.8.6 2 .6 1.4 0 2.5-.6a4.5 4.5 0 0 0 1.7-1.7 4.8 4.8 0 0 0 .6-2.4v-4.4q0-1.3-1-2.1-.8-.8-2.4-.8-1.4 0-2.5.7a4.5 4.5 0 0 0-1.6 2l-3-1.6q.5-1.2 1.6-2.2A7.8 7.8 0 0 1 211 32a8.9 8.9 0 0 1 3-.6q2.1 0 3.7.8t2.5 2.1q.9 1.4.9 3.2V49h-3.5v-3.1h.7a6.4 6.4 0 0 1-1.5 1.9 6.8 6.8 0 0 1-2.2 1.2q-1.1.4-2.6.4m13.3-.4V31.7h3.4v3.4l-.4-.4q.7-1.7 2-2.5 1.5-.9 3.3-.9 2 0 3.4.9a6 6 0 0 1 2.3 2.3q.8 1.4.8 3.3V49h-3.5V38.8q0-1.3-.5-2.2a3.2 3.2 0 0 0-1.4-1.4q-.9-.5-2-.5t-2 .5a3.3 3.3 0 0 0-1.3 1.4q-.5 1-.5 2.2V49zm33 .4q-2.3 0-4.2-.8-1.9-1-3.2-2.4a9.3 9.3 0 0 1-2-3.4l3.2-1.3q.8 2.2 2.5 3.4 1.7 1.2 3.8 1.2 1.3 0 2.3-.4 1-.4 1.4-1.2.6-.7.6-1.7 0-1.3-.8-2t-2.1-1.3l-4.5-1.4q-2.7-.8-4-2.5-1.5-1.7-1.5-4 0-2 1-3.5 1-1.6 2.7-2.4 1.8-.9 4-.9 2.1 0 3.9.8a8.7 8.7 0 0 1 3 2 7.8 7.8 0 0 1 1.9 3L263 32q-.7-1.8-2.2-2.9-1.4-1-3.4-1-1.2 0-2 .4a3.1 3.1 0 0 0-1.5 1.2q-.5.7-.5 1.7 0 1.1.8 2t2.2 1.4l4.2 1.3q2.8.9 4.3 2.5 1.4 1.6 1.4 4 0 2-1 3.5t-3 2.4q-1.7.9-4.1.9m19.4-.2q-2.7 0-4.2-1.5-1.5-1.6-1.5-4.4V35h-3v-3.3h.5q1.2 0 1.9-.7.6-.7.6-1.9v-1.3h3.6v4h4V35h-4v8.2q0 .9.3 1.5t1 1q.6.3 1.6.3h.6l.6-.1V49l-1 .1a8 8 0 0 1-1 0m10.5.3q-1.7 0-3-.6-1.4-.7-2.1-1.7-.7-1.2-.7-2.7 0-1.4.6-2.5t2-1.9 3.2-1l6-1v2.8l-5.3 1q-1.4.2-2.1.8-.7.7-.7 1.7t.8 1.6q.7.6 2 .6 1.4 0 2.5-.6a4.5 4.5 0 0 0 1.7-1.7 4.8 4.8 0 0 0 .6-2.4v-4.4q0-1.3-1-2.1-.9-.8-2.4-.8t-2.6.7a4.4 4.4 0 0 0-1.5 2l-3-1.6a5.6 5.6 0 0 1 1.5-2.2 7.8 7.8 0 0 1 2.5-1.5 8.9 8.9 0 0 1 3.1-.6q2 0 3.7.8 1.6.8 2.4 2.1 1 1.4 1 3.2V49h-3.5v-3.1h.7a6.4 6.4 0 0 1-1.6 1.9A6.8 6.8 0 0 1 291 49q-1.2.4-2.7.4m20.5-.2q-2.7 0-4.2-1.5-1.5-1.6-1.5-4.4V35h-3v-3.3h.4q1.2 0 2-.7.6-.7.6-2v-1.2h3.6v4h4V35h-4v8.2q0 .9.3 1.5t.9 1q.6.3 1.7.3h.5l.6-.1V49l-1 .1a8 8 0 0 1-.9 0m13.3.3q-2.6 0-4.6-1.2a8.6 8.6 0 0 1-3.1-3.3q-1.1-2-1.1-4.6 0-2.6 1-4.6 1.2-2 3.1-3.2 2-1.2 4.4-1.2 2 0 3.5.7a7.4 7.4 0 0 1 2.6 1.9 7.8 7.8 0 0 1 1.6 2.6 8.9 8.9 0 0 1 .5 3.2v.9a5 5 0 0 1-.1.8H316v-2.9h11.7l-1.7 1.3q.3-1.5-.2-2.7a4.1 4.1 0 0 0-1.6-2q-1-.7-2.5-.7t-2.6.7q-1 .7-1.7 2-.6 1.4-.5 3.2-.1 1.8.5 3.1.7 1.3 1.9 2 1.2.8 2.7.8 1.6 0 2.7-.7a5.1 5.1 0 0 0 1.7-1.8l3 1.4q-.6 1.2-1.6 2.2-1.1 1-2.6 1.5-1.5.6-3.2.6m17.4-.4V25.2h8.6q2.4 0 4.3.9a6.5 6.5 0 0 1 2.8 2.5q1 1.7 1 4 0 2.5-1.2 4.3-1.2 1.7-3.3 2.5l5.5 9.6h-4.3L347 38.6l2.5 1.5h-6.3V49zm3.8-12.3h5q1.2 0 2.2-.5a3.6 3.6 0 0 0 1.4-1.4q.6-1 .6-2.2 0-1.2-.6-2.1a3.4 3.4 0 0 0-1.4-1.4q-1-.5-2.3-.5h-5zM367 49.4q-2.6 0-4.6-1.2a8.6 8.6 0 0 1-3.1-3.3q-1.1-2-1.1-4.6 0-2.6 1-4.6 1.2-2 3.2-3.2 1.9-1.2 4.3-1.2 2 0 3.5.7a7.4 7.4 0 0 1 2.6 1.9 7.8 7.8 0 0 1 1.6 2.6 8.9 8.9 0 0 1 .5 3.2v.9a5 5 0 0 1-.1.8H361v-2.9h11.7l-1.7 1.3q.3-1.5-.2-2.7-.5-1.3-1.6-2-1-.7-2.5-.7t-2.6.7q-1 .7-1.7 2-.6 1.4-.5 3.2-.1 1.8.5 3.1.7 1.3 1.9 2 1.2.8 2.7.8 1.6 0 2.7-.7a5.1 5.1 0 0 0 1.7-1.8l3 1.4q-.5 1.2-1.6 2.2-1 1-2.6 1.5-1.5.6-3.2.6m19.7 0q-2.6 0-4.6-1.2a9.1 9.1 0 0 1-3.2-3.3q-1.1-2-1.1-4.6 0-2.5 1.1-4.6a8.3 8.3 0 0 1 3.2-3.2q2-1.2 4.6-1.2 1.7 0 3.3.7a8 8 0 0 1 2.6 1.7 6.7 6.7 0 0 1 1.7 2.5l-3.1 1.5a4.5 4.5 0 0 0-1.8-2.2q-1.2-.8-2.7-.8-1.5 0-2.7.7-1.1.7-1.8 2t-.7 3q0 1.6.7 2.9.7 1.3 1.8 2 1.2.7 2.7.7 1.5 0 2.7-.8a5 5 0 0 0 1.8-2.2l3.1 1.5q-.5 1.4-1.6 2.5a8.4 8.4 0 0 1-2.7 1.7q-1.5.7-3.3.7m11.1-.4V31.7h3.5v3.5l-.3-.5q.6-1.7 1.8-2.4 1.3-.8 3.1-.8h1v3.3h-1.5q-1.7 0-2.9 1.1-1 1-1 3.1v10zm17.8.4q-2 0-3.4-.9a6.3 6.3 0 0 1-2.3-2.4q-.8-1.6-.8-3.7V31.7h3.6v10.4q0 1.1.5 2a3.5 3.5 0 0 0 1.3 1.4q.9.5 2 .5t2-.5a3.5 3.5 0 0 0 1.3-1.4q.5-1 .5-2.2V31.7h3.6V49h-3.4v-3.4l.4.5q-.6 1.6-2 2.4-1.4.9-3.3.9m12.5-.4V31.7h3.7V49zm0-19.6v-4.2h3.7v4.2zm15.3 19.8q-2.7 0-4.2-1.5-1.5-1.6-1.5-4.4V35h-3v-3.3h.5q1.2 0 1.9-.7.6-.7.6-2v-1.2h3.6v4h4V35h-4v8.2q0 .9.3 1.5t1 1q.6.3 1.6.3h.6l.6-.1V49l-1 .1a8 8 0 0 1-1 0m5.5-.1V31.7h3.5v3.8l-.5-.6q.6-1.8 2-2.7 1.4-.9 3.3-.9 2 0 3.7 1.2 1.6 1 2.1 2.9h-1q.8-2 2.4-3 1.5-1 3.6-1 1.8 0 3.2.8a6.2 6.2 0 0 1 2.4 2.3q.8 1.4.8 3.3V49H471V38.8q0-1.3-.5-2.2-.4-1-1.3-1.4-.8-.5-1.8-.5-1.1 0-2 .5-.8.5-1.3 1.4-.4 1-.4 2.2V49H460V38.8q0-1.3-.5-2.2-.4-1-1.3-1.4-.8-.5-1.9-.5-1 0-2 .5-.7.5-1.2 1.4-.5 1-.5 2.2V49zm37.5.4q-2.6 0-4.6-1.2a8.6 8.6 0 0 1-3.1-3.3q-1.1-2-1.1-4.6 0-2.6 1.1-4.6 1.1-2 3-3.2 2-1.2 4.4-1.2 2 0 3.5.7a7.4 7.4 0 0 1 2.6 1.9 7.8 7.8 0 0 1 1.6 2.6 8.9 8.9 0 0 1 .6 3.2v.9a5 5 0 0 1-.2.8h-13.8v-2.9h11.7l-1.7 1.3q.3-1.5-.2-2.7-.5-1.3-1.6-2-1-.7-2.5-.7-1.4 0-2.5.7-1.2.7-1.8 2-.6 1.4-.5 3.2-.1 1.8.5 3.1.7 1.3 1.9 2 1.2.8 2.7.8 1.6 0 2.7-.7a5.1 5.1 0 0 0 1.7-1.8l3 1.4q-.5 1.2-1.6 2.2-1 1-2.6 1.5-1.4.6-3.2.6M498 49V31.7h3.4v3.4l-.4-.4q.7-1.7 2-2.5 1.5-.9 3.3-.9 2 0 3.4.9a6 6 0 0 1 2.3 2.3q.8 1.4.8 3.3V49h-3.5V38.8q0-1.3-.5-2.2a3.2 3.2 0 0 0-1.4-1.4q-.9-.5-2-.5t-2 .5a3.3 3.3 0 0 0-1.3 1.4q-.5 1-.5 2.2V49zm26.2.2q-2.7 0-4.2-1.5-1.5-1.6-1.5-4.4V35h-3v-3.3h.4q1.2 0 1.9-.7t.7-2v-1.2h3.6v4h3.9V35h-4v8.2q0 .9.4 1.5.2.6.9 1 .6.3 1.6.3h.6l.6-.1V49l-1 .1a8 8 0 0 1-1 0m11.5-.1V25.2h8.6q2.4 0 4.3.9 1.8.9 2.8 2.5 1 1.7 1 4t-1 4q-1 1.7-2.8 2.6t-4.3.9h-4.8V49zm3.8-12.3h5q1.2 0 2.2-.5a3.8 3.8 0 0 0 1.5-1.4q.5-1 .5-2.2 0-1.2-.5-2.1a3.5 3.5 0 0 0-1.5-1.4q-1-.5-2.3-.5h-5zm24.2 12.7q-2.5 0-4.6-1.2a8.9 8.9 0 0 1-3.2-3.2q-1.2-2-1.2-4.7 0-2.6 1.2-4.6a8.7 8.7 0 0 1 3.2-3.2q2-1.2 4.6-1.2 2.6 0 4.6 1.2a8.4 8.4 0 0 1 3.2 3.2q1.2 2 1.2 4.6 0 2.7-1.2 4.7a8.9 8.9 0 0 1-3.3 3.2q-2 1.2-4.5 1.2m0-3.4q1.5 0 2.7-.7a5.1 5.1 0 0 0 1.9-2q.7-1.3.7-3t-.7-2.9a5.1 5.1 0 0 0-1.9-2q-1.2-.7-2.7-.7-1.5 0-2.7.7a5.4 5.4 0 0 0-1.9 2q-.7 1.3-.7 3t.7 2.9a5.4 5.4 0 0 0 1.9 2q1.2.7 2.7.7m12.5 3V31.7h3.5v3.5l-.3-.5q.5-1.7 1.8-2.4 1.3-.8 3-.8h1.1v3.3h-1.5q-1.8 0-2.9 1.1-1 1-1 3.1v10zm19.4.2q-2.7 0-4.2-1.5-1.5-1.6-1.5-4.4V35h-3v-3.3h.4q1.2 0 2-.7.6-.7.6-2v-1.2h3.6v4h4V35h-4v8.2q0 .9.3 1.5t.9 1q.6.3 1.7.3h.5l.6-.1V49a40 40 0 0 1-1 .1 8 8 0 0 1-.9 0m10.5.3q-1.8 0-3.1-.6-1.3-.7-2-1.7-.8-1.2-.8-2.7 0-1.4.6-2.5.7-1.1 2-1.9 1.3-.7 3.3-1l6-1v2.8l-5.3 1q-1.5.2-2.1.8-.7.7-.7 1.7t.7 1.6q.8.6 2 .6 1.4 0 2.5-.6a4.5 4.5 0 0 0 1.7-1.7 4.8 4.8 0 0 0 .7-2.4v-4.4q0-1.3-1-2.1t-2.5-.8q-1.4 0-2.5.7a4.4 4.4 0 0 0-1.6 2l-3-1.6a5.6 5.6 0 0 1 1.6-2.2A7.8 7.8 0 0 1 605 32a8.9 8.9 0 0 1 3.1-.6q2 0 3.6.8t2.5 2.1q.9 1.4.9 3.2V49h-3.5v-3.1h.7a6.4 6.4 0 0 1-1.5 1.9 6.8 6.8 0 0 1-2.2 1.2q-1.1.4-2.6.4m13.3-.4V24.8h3.6V49z"/>
  <path fill="#333" d="M100.4 82.3q-1.7 0-3.2-.7a7.6 7.6 0 0 1-2.6-1.7 8.4 8.4 0 0 1-1.7-2.7q-.6-1.6-.6-3.4 0-1.8.6-3.4a8.1 8.1 0 0 1 1.7-2.7 7.4 7.4 0 0 1 2.6-1.7q1.4-.7 3.2-.7 1.7 0 3 .6 1.4.6 2.3 1.6 1 1 1.3 2l-1.9 1q-.6-1.5-1.8-2.3-1.2-.9-3-.9-1.6 0-3 .9-1.3.8-2 2.2t-.8 3.4q0 2 .7 3.4.8 1.4 2.1 2.2 1.4.9 3 .9t2.8-.7a4.9 4.9 0 0 0 2-1.7q.6-1.2.6-2.6v-1l1 .9h-6.3v-1.9h7.5v1.5q0 1.7-.6 3a7.2 7.2 0 0 1-1.6 2.4 7.4 7.4 0 0 1-2.4 1.5 7.9 7.9 0 0 1-3 .6m15.9 0q-1.7 0-3.1-.8a6 6 0 0 1-2.2-2.3q-.8-1.4-.8-3.1 0-1.8.8-3.2a6.1 6.1 0 0 1 2.2-2.2q1.4-.8 3.1-.8 1.7 0 3.1.8a5.8 5.8 0 0 1 2.2 2.2q.8 1.4.8 3.2t-.8 3.2a6.3 6.3 0 0 1-2.3 2.2q-1.3.8-3 .8m0-2q1.1 0 2-.6a3.8 3.8 0 0 0 1.4-1.5q.5-1 .5-2.1 0-1.3-.5-2.2a3.8 3.8 0 0 0-1.4-1.5 3.5 3.5 0 0 0-2-.5q-1.1 0-2 .5a4.1 4.1 0 0 0-1.4 1.5q-.6 1-.6 2.2 0 1.1.6 2.1a4 4 0 0 0 1.4 1.5q.9.6 2 .6M128 82l-4.6-11.9h2.3l3.7 10h-.8l3.8-10h2.2L130 82zm13.7.3q-1.7 0-3-.9a5.8 5.8 0 0 1-2.2-2.2q-.7-1.4-.7-3.2 0-1.7.7-3.1a5.8 5.8 0 0 1 2-2.2q1.4-.8 3-.8 1.4 0 2.4.5a4.9 4.9 0 0 1 1.7 1.2q.7.8 1.1 1.9.4 1 .4 2v.6l-.1.6h-9.7v-1.8h8.5l-1 .8q.2-1.1-.2-2a3.3 3.3 0 0 0-3-2q-1 0-2 .5t-1.3 1.5q-.5 1-.4 2.4 0 1.3.4 2.2a3.8 3.8 0 0 0 1.4 1.6 4 4 0 0 0 2 .5q1.2 0 2-.6a4.3 4.3 0 0 0 1.4-1.4l1.7 1q-.4.7-1.1 1.4a5.6 5.6 0 0 1-1.8 1q-1 .5-2.2.5m8-.3V70.1h2v2.2l-.1-.3q.4-1 1.2-1.5.9-.5 2.1-.5h.7v2h-1q-1.2 0-2 .7-.8.8-.8 2.2V82zm7.8 0V70.1h2v2.4l-.4-.2q.5-1.2 1.4-1.8 1-.6 2.4-.6 1.2 0 2.2.5 1 .6 1.6 1.6.6 1 .6 2.3V82h-2v-7q0-1-.4-1.7a2.5 2.5 0 0 0-1-1q-.7-.4-1.5-.4a2.9 2.9 0 0 0-1.5.4q-.6.3-1 1t-.4 1.7v7zm12.7 0V70.1h2v2.5l-.3-.4q.5-1.1 1.5-1.7t2.1-.6q1.4 0 2.5.7a3.9 3.9 0 0 1 1.6 2h-.6q.4-1.3 1.5-2a4.3 4.3 0 0 1 2.5-.7q1.2 0 2.2.6 1 .5 1.6 1.5t.6 2.3V82h-2v-7q0-1-.4-1.7a2.6 2.6 0 0 0-1-1q-.6-.4-1.4-.4-.8 0-1.4.4-.6.3-1 1t-.4 1.7v7h-2v-7q0-1-.4-1.7a2.6 2.6 0 0 0-1-1q-.5-.4-1.4-.4-.7 0-1.4.4-.6.3-1 1-.3.7-.3 1.7v7zm25.6.3q-1.7 0-3-.9a5.8 5.8 0 0 1-2.2-2.2q-.8-1.4-.8-3.2 0-1.7.8-3.1a5.8 5.8 0 0 1 2-2.2q1.4-.8 3-.8 1.3 0 2.3.5 1 .4 1.8 1.2a5.4 5.4 0 0 1 1 1.9q.5 1 .5 2v.6a6 6 0 0 1-.1.6h-9.8v-1.8h8.6l-1 .8q.2-1.1-.2-2a3.3 3.3 0 0 0-3.1-2 3.5 3.5 0 0 0-1.9.5q-.9.6-1.3 1.5-.5 1-.4 2.4-.1 1.3.4 2.2a3.8 3.8 0 0 0 1.4 1.6 4 4 0 0 0 2 .5q1.2 0 2-.6a4.3 4.3 0 0 0 1.3-1.4l1.7 1q-.3.7-1 1.4a5.6 5.6 0 0 1-1.8 1q-1 .5-2.2.5m8-.3V70.1h2v2.4l-.3-.2q.4-1.2 1.4-1.8 1-.6 2.3-.6 1.3 0 2.3.5 1 .6 1.6 1.6.6 1 .6 2.3V82h-2.1v-7q0-1-.4-1.7a2.5 2.5 0 0 0-1-1q-.6-.4-1.4-.4t-1.5.4q-.7.3-1 1-.4.7-.4 1.7v7zm17.6.1q-1.7 0-2.7-1-.9-1-.9-2.8v-6.2h-2.2v-2h.5q.8 0 1.2-.4t.5-1.3v-1h2v2.7h2.7v2h-2.7v6.2q0 .6.2 1 .2.5.7.7.4.3 1.1.3h.4l.4-.1V82a4 4 0 0 1-.6 0l-.6.1m13.3.2q-1.7 0-3-.8a6 6 0 0 1-2.3-2.3q-.8-1.4-.8-3.1t.8-3.2a6.1 6.1 0 0 1 2.2-2.2q1.4-.8 3.1-.8 1.8 0 3.2.8a5.8 5.8 0 0 1 2.1 2.2q.8 1.4.8 3.2t-.8 3.2a6.3 6.3 0 0 1-2.2 2.2q-1.4.8-3 .8m0-2q1 0 2-.6a3.8 3.8 0 0 0 1.3-1.5q.6-1 .6-2.1 0-1.3-.6-2.2a3.8 3.8 0 0 0-1.4-1.5 3.5 3.5 0 0 0-2-.5q-1 0-2 .5a4.1 4.1 0 0 0-1.4 1.5q-.5 1-.5 2.2 0 1.1.5 2.1a4 4 0 0 0 1.4 1.5q1 .6 2 .6m9.7 1.7v-9.9h-2.3v-2h2.3v-.8q0-1.3.6-2.1a3.8 3.8 0 0 1 1.4-1.4 4.7 4.7 0 0 1 2.1-.5h.6l.5.2v1.8a1.8 1.8 0 0 0-.4 0 4 4 0 0 0-.4 0q-1 0-1.7.4-.6.5-.6 1.6v.8h2.8v2h-2.8V82zm11.5 0V65.6h5.8q1.7 0 2.9.6a4.5 4.5 0 0 1 1.9 1.8q.7 1.1.7 2.7 0 1.7-.9 3-.9 1.1-2.4 1.7l3.8 6.6h-2.5l-4-7.1 1.5.8H258V82zm2.2-8.3h3.7q1 0 1.7-.3.7-.4 1.1-1.1.4-.7.4-1.6 0-1-.4-1.7a2.6 2.6 0 0 0-1.1-1q-.7-.4-1.7-.4H258zm15.3 8.6q-1.1 0-2-.5a3.5 3.5 0 0 1-1.4-1.1 3.1 3.1 0 0 1-.5-1.8q0-1 .4-1.7.4-.8 1.2-1.3 1-.5 2.2-.7l4.4-.8v1.7l-3.9.7q-1.1.2-1.7.7a1.8 1.8 0 0 0-.5 1.3q0 .8.6 1.2.6.5 1.5.5 1.1 0 2-.4.7-.5 1.2-1.3a3.5 3.5 0 0 0 .5-1.8v-3q0-1-.7-1.6-.7-.6-1.9-.6-1 0-1.8.5a3 3 0 0 0-1.1 1.4l-1.8-1a3.9 3.9 0 0 1 1-1.4 5.4 5.4 0 0 1 1.7-1 5.6 5.6 0 0 1 2-.4q1.4 0 2.4.5a3.8 3.8 0 0 1 1.6 1.4q.6 1 .6 2.1V82h-2v-2.2h.4q-.4.8-1 1.3t-1.5.9a5.5 5.5 0 0 1-1.9.3m7.2 4.5h-.5a3 3 0 0 1-.5 0v-1.9h1q.8 0 1.4-.4.6-.5.6-1.6V70.1h2V83q0 1.3-.5 2.2a3.3 3.3 0 0 1-1.4 1.3q-1 .4-2.1.4m2-18.6v-2.6h2v2.6zm8.7 14q-1.2 0-2-.4a3.5 3.5 0 0 1-1.4-1.1 3.1 3.1 0 0 1-.5-1.8q0-1 .3-1.7.5-.8 1.3-1.3.9-.5 2.2-.7l4.4-.8v1.7l-4 .7q-1 .2-1.6.7a1.8 1.8 0 0 0-.5 1.3q0 .8.6 1.2.6.5 1.5.5 1 0 1.9-.4.8-.5 1.3-1.3a3.5 3.5 0 0 0 .5-1.8v-3q0-1-.8-1.6-.7-.6-1.8-.6-1 0-1.8.5a3 3 0 0 0-1.2 1.4l-1.8-1a3.9 3.9 0 0 1 1.1-1.4 5.4 5.4 0 0 1 1.7-1 5.6 5.6 0 0 1 2-.4q1.4 0 2.4.5a3.8 3.8 0 0 1 1.6 1.4q.6 1 .6 2.1v8h-2v-2.2h.4q-.4.8-1 1.3t-1.5.9a5.5 5.5 0 0 1-1.9.3m13.4 0q-1.7 0-3-1a4.8 4.8 0 0 1-2-2.3l1.7-.8q.5 1 1.4 1.7.9.6 2 .6.9 0 1.5-.5t.7-1.2q0-.5-.3-.8a1.9 1.9 0 0 0-.7-.5 4 4 0 0 0-.8-.3l-1.8-.5q-1.6-.5-2.3-1.3a3 3 0 0 1-.8-2q0-1 .6-1.8a3.7 3.7 0 0 1 1.4-1.3q1-.4 2.1-.4 1.6 0 2.8.8 1.3.8 1.8 2.2l-1.6.8a3.2 3.2 0 0 0-1.2-1.5 3 3 0 0 0-1.8-.5q-1 0-1.4.4a1.4 1.4 0 0 0-.6 1.1q0 .6.3.9l.6.5.8.2 1.9.6q1.4.4 2.2 1.3.8.9.8 2.1 0 1-.5 1.8-.6.8-1.5 1.2-1 .5-2.3.5m11.8-.2q-1.7 0-2.6-1-1-1-1-2.8v-6.2h-2.1v-2h.4q.8 0 1.3-.4t.4-1.3v-1h2v2.7h2.7v2H315v6.2q0 .6.2 1 .2.5.6.7.4.3 1.2.3h.3l.5-.1V82a4 4 0 0 1-.7 0l-.6.1m4-.1V65.3h2v7.2l-.4-.2q.5-1.2 1.4-1.8 1-.6 2.3-.6 1.3 0 2.3.5 1 .6 1.6 1.6.6 1 .6 2.3V82h-2v-7q0-1-.5-1.7a2.5 2.5 0 0 0-1-1q-.6-.4-1.4-.4-.8 0-1.5.4-.7.3-1 1-.4.7-.4 1.7v7zm16.2.3q-1.2 0-2-.5a3.5 3.5 0 0 1-1.5-1.1 3.1 3.1 0 0 1-.5-1.8q0-1 .4-1.7.4-.8 1.3-1.3t2.2-.7l4.4-.8v1.7l-4 .7q-1 .2-1.6.7a1.8 1.8 0 0 0-.5 1.3q0 .8.6 1.2.5.5 1.4.5 1.1 0 2-.4.8-.5 1.3-1.3a3.5 3.5 0 0 0 .4-1.8v-3q0-1-.7-1.6-.7-.6-1.9-.6-1 0-1.8.5a3 3 0 0 0-1.1 1.4l-1.8-1a3.9 3.9 0 0 1 1-1.4 5.4 5.4 0 0 1 1.8-1 5.6 5.6 0 0 1 2-.4q1.4 0 2.4.5a3.8 3.8 0 0 1 1.6 1.4q.6 1 .6 2.1V82h-2v-2.2h.4q-.4.8-1 1.3t-1.5.9a5.5 5.5 0 0 1-2 .3m9.3-.3V70.1h2v2.4l-.4-.2q.5-1.2 1.4-1.8 1-.6 2.4-.6 1.2 0 2.2.5 1 .6 1.6 1.6.6 1 .6 2.3V82h-2v-7q0-1-.4-1.7a2.5 2.5 0 0 0-1-1q-.7-.4-1.5-.4t-1.5.4a2.7 2.7 0 0 0-1 1q-.4.7-.4 1.7v7zm19.7 3.3a14.6 14.6 0 0 1-2.7-4.5q-.9-2.5-.9-5.4 0-2.8 1-5.3a14.3 14.3 0 0 1 2.6-4.5h1.8a17.7 17.7 0 0 0-2.4 4.8 16.2 16.2 0 0 0-.8 5q0 2.6.8 5.1a18 18 0 0 0 2.4 4.8zm10.6-4.2-1.2 1.2a34 34 0 0 1-5.1-5.4c-.7-1-1-1.8-1-2.4 0-.7.4-1.2 1.1-1.2.7 0 1.3.4 1.8 1 1.3-.5 1.8-1.4 1.8-2.6 0-.7-.2-1.4-.4-1.8H368v-1.6h9.3V70H375c.3.6.3 1.2.3 2 0 2.4-1.5 3.7-3.7 4.6 1.2 1.5 3 3.1 4.6 4.6m4.5-11.2v12h-1.8V69.9h-2v-1.6h6V70zm16.3 0v12h-1.8v-8.1h-3l-1.2-.1c1 .9 1.7 2.1 1.7 3.4 0 2-1.5 3-3.2 3-2.4 0-4.3-1.8-6.2-7l1.6-.6c1.3 4 2.8 6 4.5 6 1 0 1.6-.4 1.6-1.6 0-1.3-1-2.5-2.3-3.3l.6-1.4h6v-2.4h-12.7v-1.6h16.7V70zm8.3 12.4a29 29 0 0 1-4.8-5.8c-.4-.8-.6-1.4-.6-2 0-.7.4-1.2 1.2-1.2.6 0 1.2.4 1.8 1 .8-.5 1-1.5 1-2.4 0-.8-.1-1.6-.3-2H399v-1.6h10.9V70h-4.5c.2.6.3 1.3.3 2.2 0 1-.2 1.9-.7 2.6a8 8 0 0 0 2.7.5l2.2-.2v1.5a9.1 9.1 0 0 1-6-.7 6 6 0 0 1-1.6.8c1 1.4 2.6 2.9 4.3 4.5zM419.2 70v12h-1.8v-3.7c-.8.6-2 1-3.4 1-2.8 0-4.7-1.3-5.6-4.5 3.7-.6 4.7-1.7 4.7-3.3 0-1.2-.6-2-1.6-2-.9 0-1.4.5-1.4 1.2s.6 1.1 1.5 1.5l-.8 1.2c-1.7-.5-2.4-1.5-2.4-2.7 0-1.6 1-2.6 3-2.6 2.2 0 3.5 1.3 3.5 3.4 0 2.2-1.4 3.7-4.1 4.4.7 1.4 1.6 1.9 3 1.9 1.5 0 2.7-.6 3.6-1.6v-6.3h-1.6v-1.6h5.7V70zm5.7 0v12H423V69.9h-2v-1.6h6V70zm2-1.6h12.5V70H437v12h-1.8v-6.6h-4v1.2c0 .8-.4 1.3-1 1.3-1.2 0-2.6-1.7-2.6-2.9 0-.7.3-1.1 1.3-1.1h6.3v-4h-8.5zm22.3 14a29 29 0 0 1-4.8-5.8c-.4-.8-.6-1.4-.6-2 0-.7.4-1.2 1.2-1.2.6 0 1.2.4 1.8 1 .8-.5 1-1.5 1-2.4a5 5 0 0 0-.4-2h-4.6v-1.6H458V70h-2.2v12H454v-5.6l-2.4.2c-1.1 0-2.5-.2-3.7-.8a6 6 0 0 1-1.7.8c1 1.4 2.5 2.9 4.3 4.5zm2.4-7.3c.9 0 1.6 0 2.4-.3V70h-4.7c.2.6.3 1.3.3 2.2a4 4 0 0 1-.7 2.5c1 .3 1.7.4 2.7.4m14.4 6-1.3 1.3a34 34 0 0 1-5-5.4c-.8-1-1-1.8-1-2.4 0-.7.4-1.2 1.1-1.2.6 0 1.2.4 1.8 1 1.2-.5 1.7-1.4 1.7-2.6 0-.7-.1-1.4-.3-1.8h-5.3v-1.6h9.3V70h-2.2c.2.6.3 1.2.3 2 0 2.4-1.5 3.7-3.8 4.6 1.2 1.5 3 3.1 4.7 4.6M484 70h-7.2v4a4 4 0 0 1 2.6-.9c2 0 3.3 1.3 3.3 3.5 0 1.6-.6 3-1.9 4.4l-1.5-1c1-1 1.6-2 1.6-3.4 0-1.3-.6-2-1.7-2-1 0-1.9.7-2.4 1.7V82H475v-3.7c-.8.7-1.8 1.1-3.2 1.1-2.2 0-4-1.3-4-3.8 0-2.4 1.6-3.8 4.5-3.8.7 0 1.4 0 2 .2l-.2 1.6a7.2 7.2 0 0 0-1.8-.2c-1.8 0-2.8.8-2.8 2.3 0 1.4 1 2.1 2.3 2.1a4 4 0 0 0 3.2-1.7V70h-8.3v-1.6H484zm3.3 0v12h-1.7V69.9h-2v-1.6h6V70zm10.3 11-1.3 1.2a34 34 0 0 1-5-5.4c-.8-1-1-1.8-1-2.4 0-.7.3-1.2 1-1.2s1.3.4 1.9 1c1.2-.5 1.7-1.4 1.7-2.6 0-.7-.1-1.4-.3-1.8h-5.3v-1.6h9.3V70h-2.2c.2.6.3 1.2.3 2 0 2.4-1.5 3.7-3.8 4.6 1.2 1.5 3 3.1 4.7 4.6m1.3 4.2a18.5 18.5 0 0 0 2.3-4.8q.9-2.5.9-5 0-2.7-.9-5.1a18 18 0 0 0-2.3-4.8h1.7a14 14 0 0 1 2.7 4.5q1 2.5 1 5.3 0 2.9-1 5.4a14.3 14.3 0 0 1-2.7 4.5z" opacity=".8"/>
</svg>
