<svg width="61" height="61" viewBox="0 0 61 61" fill="none" xmlns="http://www.w3.org/2000/svg">
<g clip-path="url(#clip0_112_1001)">
<g filter="url(#filter0_d_112_1001)">
<path d="M60.1252 18.0502V14.4252C60.1252 12.9665 59.5457 11.5675 58.5143 10.5361C57.4828 9.50462 56.0839 8.92515 54.6252 8.92515H47.9002L47.2252 4.82515C47.0464 3.73688 46.4846 2.74833 45.6411 2.0378C44.7976 1.32726 43.728 0.941524 42.6252 0.950154H33.5502C32.4516 0.94749 31.388 1.33594 30.5497 2.04594C29.7115 2.75595 29.1533 3.74115 28.9752 4.82515L28.3002 8.92515H21.5752C20.1165 8.92515 18.7175 9.50462 17.6861 10.5361C16.6546 11.5675 16.0752 12.9665 16.0752 14.4252V18.0502H60.1252ZM32.6252 5.55015C32.6609 5.34494 32.7686 5.15918 32.929 5.02629C33.0894 4.89339 33.2919 4.82207 33.5002 4.82515H42.6252C42.8334 4.82207 43.036 4.89339 43.1964 5.02629C43.3568 5.15918 43.4645 5.34494 43.5002 5.55015L44.0752 9.05015H32.0752L32.6252 5.55015ZM39.9752 21.8002V25.4502C39.9752 25.9474 39.7776 26.4243 39.426 26.776C39.0744 27.1276 38.5974 27.3252 38.1002 27.3252C37.6029 27.3252 37.126 27.1276 36.7743 26.776C36.4227 26.4243 36.2252 25.9474 36.2252 25.4502V21.8002H16.0752V33.7002C16.0752 34.4224 16.2174 35.1376 16.4938 35.8049C16.7702 36.4722 17.1754 37.0785 17.6861 37.5892C18.1968 38.1 18.8031 38.5051 19.4704 38.7815C20.1377 39.0579 20.8529 39.2002 21.5752 39.2002H54.6252C56.0839 39.2002 57.4828 38.6207 58.5143 37.5892C59.5457 36.5578 60.1252 35.1588 60.1252 33.7002V21.8002H39.9752ZM43.1002 48.1752L35.6002 50.6752C35.5028 50.6697 35.406 50.6928 35.3216 50.7417C35.2372 50.7905 35.1689 50.863 35.1252 50.9502C34.7798 51.6995 34.226 52.3337 33.5301 52.777C32.8341 53.2203 32.0253 53.454 31.2002 53.4502H22.6252C22.3401 53.4502 22.0666 53.3369 21.865 53.1353C21.6634 52.9337 21.5502 52.6603 21.5502 52.3752C21.5502 52.09 21.6634 51.8166 21.865 51.615C22.0666 51.4134 22.3401 51.3002 22.6252 51.3002H31.2252C31.7954 51.3002 32.3422 51.0736 32.7454 50.6704C33.1487 50.2672 33.3752 49.7204 33.3752 49.1502C33.3752 48.5799 33.1487 48.0331 32.7454 47.6299C32.3422 47.2267 31.7954 47.0002 31.2252 47.0002H23.7252C21.246 45.1028 18.2441 44.012 15.1252 43.8752H10.7502C9.41258 43.8817 8.09472 44.1983 6.90017 44.8002L0.425167 48.0252C0.345278 48.0674 0.27648 48.1279 0.224356 48.2018C0.172232 48.2756 0.13825 48.3607 0.125167 48.4502V60.0252C0.122722 60.122 0.147116 60.2176 0.195651 60.3015C0.244186 60.3853 0.314969 60.4541 0.400167 60.5002C0.483778 60.5484 0.578622 60.5738 0.675167 60.5738C0.771713 60.5738 0.866557 60.5484 0.950167 60.5002L7.85017 56.2002C8.12134 56.0254 8.42763 55.9124 8.74734 55.8692C9.06704 55.826 9.39233 55.8536 9.70017 55.9502C31.1002 63.1752 23.9502 63.2002 48.0752 50.9502C48.2421 50.8685 48.3856 50.7459 48.4923 50.5938C48.599 50.4417 48.6654 50.265 48.6854 50.0803C48.7053 49.8956 48.6782 49.7088 48.6065 49.5374C48.5347 49.366 48.4208 49.2156 48.2752 49.1002C47.5617 48.52 46.7124 48.1307 45.8072 47.9689C44.902 47.8071 43.9705 47.8781 43.1002 48.1752Z" fill="white"/>
</g>
</g>
<defs>
<filter id="filter0_d_112_1001" x="-10.875" y="-10.05" width="82.0002" height="81.9238" filterUnits="userSpaceOnUse" color-interpolation-filters="sRGB">
<feFlood flood-opacity="0" result="BackgroundImageFix"/>
<feColorMatrix in="SourceAlpha" type="matrix" values="0 0 0 0 0 0 0 0 0 0 0 0 0 0 0 0 0 0 127 0" result="hardAlpha"/>
<feOffset/>
<feGaussianBlur stdDeviation="5.5"/>
<feComposite in2="hardAlpha" operator="out"/>
<feColorMatrix type="matrix" values="0 0 0 0 0.926282 0 0 0 0 0.0890656 0 0 0 0 0.103019 0 0 0 0.55 0"/>
<feBlend mode="normal" in2="BackgroundImageFix" result="effect1_dropShadow_112_1001"/>
<feBlend mode="normal" in="SourceGraphic" in2="effect1_dropShadow_112_1001" result="shape"/>
</filter>
<clipPath id="clip0_112_1001">
<rect width="60" height="60" fill="white" transform="translate(0.125 0.950012)"/>
</clipPath>
</defs>
</svg>
