<svg width="18" height="20" viewBox="0 0 18 20" fill="none" xmlns="http://www.w3.org/2000/svg">
  <path d="M9 1.99902C6.79086 1.99902 5 3.78988 5 5.99902C5 8.20812 6.79086 9.99902 9 9.99902C11.2091 9.99902 13 8.20812 13 5.99902C13 3.78988 11.2091 1.99902 9 1.99902ZM3 5.99902C3 2.68531 5.68629 -0.000976562 9 -0.000976562C12.3137 -0.000976562 15 2.68531 15 5.99902C15 9.31272 12.3137 11.999 9 11.999C5.68629 11.999 3 9.31272 3 5.99902ZM5 15.999C3.34315 15.999 2 17.3421 2 18.999C2 19.5513 1.55228 19.999 1 19.999C0.44772 19.999 0 19.5513 0 18.999C0 16.2376 2.23858 13.999 5 13.999H13C15.7614 13.999 18 16.2376 18 18.999C18 19.5513 17.5523 19.999 17 19.999C16.4477 19.999 16 19.5513 16 18.999C16 17.3421 14.6569 15.999 13 15.999H5Z"
        fill="currentColor"/>
</svg>
